<svg width="226" height="64" viewBox="0 0 226 64" fill="none" xmlns="http://www.w3.org/2000/svg">
<path d="M40.2684 55.6185C38.6437 55.6185 37.0856 54.9731 35.9368 53.8243C34.788 52.6755 34.1426 51.1174 34.1426 49.4927V36.3057C34.1426 34.4012 33.386 32.5746 32.0393 31.2279C30.6926 29.8812 28.8661 29.1246 26.9616 29.1246C25.0571 29.1246 23.2305 29.8812 21.8838 31.2279C20.5371 32.5746 19.7806 34.4012 19.7806 36.3057V49.4844C19.7806 51.1116 19.1341 52.6722 17.9835 53.8228C16.8329 54.9734 15.2723 55.6198 13.6451 55.6198C12.0179 55.6198 10.4573 54.9734 9.30664 53.8228C8.15602 52.6722 7.5096 51.1116 7.5096 49.4844V36.3057C7.4788 33.7314 7.95923 31.1767 8.92304 28.7895C9.88685 26.4023 11.3149 24.2301 13.1243 22.3989C14.9338 20.5676 17.0887 19.1137 19.4642 18.1214C21.8397 17.1291 24.3886 16.6182 26.963 16.6182C29.5374 16.6182 32.0862 17.1291 34.4617 18.1214C36.8372 19.1137 38.9922 20.5676 40.8016 22.3989C42.6111 24.2301 44.0391 26.4023 45.0029 28.7895C45.9667 31.1767 46.4472 33.7314 46.4164 36.3057V49.4844C46.4175 50.2914 46.2591 51.0907 45.9504 51.8363C45.6416 52.5819 45.1886 53.2592 44.6173 53.8292C44.046 54.3992 43.3677 54.8507 42.6213 55.1578C41.875 55.4648 41.0754 55.6214 40.2684 55.6185Z" fill="white"/>
<path d="M66.8485 22.1977C66.7287 22.3063 66.6758 22.3564 66.57 22.4761L66.2916 22.7546C66.1635 22.891 66.0326 23.033 65.9045 23.1667C65.7765 23.3003 65.6957 23.3978 65.5955 23.5119C64.7151 24.5201 63.9398 25.6154 63.2816 26.7809C63.2176 26.895 63.1563 27.0092 63.0895 27.1233C63.0905 27.1317 63.0905 27.1401 63.0895 27.1484C63.0171 27.2848 62.9447 27.4268 62.8723 27.5688C62.7999 27.7109 62.7136 27.8863 62.6384 28.0506C62.5632 28.2148 62.5131 28.329 62.4546 28.4543C62.2737 28.8608 62.1066 29.2729 61.959 29.6934C61.92 29.7852 61.8894 29.8799 61.8588 29.9718C61.8059 30.111 61.7613 30.2502 61.7196 30.3923C61.6861 30.4841 61.6583 30.5788 61.6305 30.6707L61.5775 30.8405C61.5413 30.9658 61.5052 31.0967 61.4717 31.2248C61.4693 31.2405 61.4693 31.2564 61.4717 31.2721C61.4439 31.3696 61.4188 31.4698 61.3966 31.5645C61.3743 31.6592 61.3437 31.7733 61.3186 31.8791C61.3186 31.907 61.3186 31.9376 61.3019 31.9655C61.2713 32.0935 61.2406 32.2244 61.2156 32.3553C61.214 32.3766 61.214 32.398 61.2156 32.4193L61.132 32.8537C61.1042 33.0152 61.0764 33.1739 61.0541 33.3354C61.0318 33.4969 61.004 33.6584 60.9845 33.8227C60.9455 34.1234 60.9149 34.4325 60.8898 34.7387C60.8898 34.9114 60.8647 35.0812 60.8564 35.2539L60.784 35.6409H60.7422C60.5717 33.8009 59.6985 32.0975 58.3042 30.8848C56.9099 29.6722 55.1018 29.0438 53.2559 29.1302C51.4101 29.2166 49.6686 30.0113 48.3937 31.3489C47.1188 32.6865 46.4086 34.4641 46.4108 36.3119V49.4878C46.4128 50.4917 46.168 51.4807 45.698 52.3678C45.228 53.2548 44.5472 54.0128 43.7155 54.575C43.2218 54.9097 42.6813 55.1696 42.1116 55.3463C41.1942 55.6338 40.2219 55.7014 39.2735 55.5435C38.3251 55.3856 37.4271 55.0067 36.6523 54.4374C35.8775 53.868 35.2476 53.1243 34.8135 52.2664C34.3795 51.4085 34.1534 50.4605 34.1538 49.499V36.3064C34.1369 32.5122 35.2356 28.7967 37.3132 25.6219C39.3909 22.4471 42.3559 19.953 45.8396 18.4497C49.3233 16.9464 53.172 16.5002 56.9073 17.1666C60.6425 17.8329 64.0995 19.5825 66.8485 22.1977V22.1977Z" fill="white"/>
<path d="M100.239 36.3061V49.482C100.242 50.4868 99.9978 51.4769 99.5278 52.3651C99.0577 53.2532 98.3765 54.012 97.544 54.5747C97.048 54.9073 96.507 55.167 95.9373 55.346C95.0198 55.631 94.0482 55.6966 93.1006 55.5377C92.1531 55.3787 91.2561 54.9996 90.4817 54.4309C89.7074 53.8621 89.0773 53.1195 88.6422 52.2629C88.2072 51.4063 87.9792 50.4595 87.9767 49.4987V36.3061C87.97 34.4638 87.2555 32.6944 85.9809 31.3641C84.7063 30.0338 82.9692 29.2442 81.1288 29.1588C79.2885 29.0733 77.4856 29.6984 76.0932 30.9049C74.7008 32.1114 73.8254 33.8068 73.648 35.6406H73.6007C73.6007 35.5209 73.6007 35.4012 73.5868 35.2814C73.5728 35.1617 73.5868 35.0949 73.5701 35.003C73.5534 34.9111 73.5701 34.8025 73.5478 34.6995C73.5491 34.6865 73.5491 34.6735 73.5478 34.6605C73.5478 34.5018 73.5227 34.3459 73.5032 34.1899C73.4837 34.034 73.4754 33.9449 73.4587 33.8224C73.442 33.6999 73.4253 33.544 73.403 33.4131C73.3751 33.2265 73.3445 33.0428 73.3111 32.8562C73.2777 32.6696 73.2526 32.5499 73.222 32.394C73.1914 32.2381 73.158 32.0793 73.119 31.9206C73.08 31.7619 73.0494 31.6255 73.0104 31.4779C73.0104 31.4556 73.0104 31.4389 72.9965 31.4194C72.9658 31.2997 72.9352 31.1828 72.899 31.0658C72.8183 30.7679 72.7264 30.4727 72.6206 30.1804C72.5927 30.0968 72.5677 30.0133 72.5343 29.9326C72.3598 29.4202 72.1621 28.92 71.9412 28.4318C71.8771 28.2842 71.8075 28.1338 71.7379 27.9862C71.6015 27.7078 71.4595 27.4015 71.298 27.1175C71.22 26.9755 71.142 26.8391 71.0613 26.6915C70.8942 26.3963 70.7188 26.104 70.5323 25.8227C70.3457 25.5415 70.1953 25.3048 70.0171 25.0542C69.8389 24.8036 69.6496 24.553 69.4603 24.308C69.4188 24.2499 69.3742 24.1942 69.3266 24.141C69.179 23.9516 69.0259 23.7651 68.8672 23.5841L68.8226 23.5312C68.7168 23.4114 68.611 23.2917 68.4996 23.172C68.3882 23.0522 68.2435 22.8935 68.1098 22.7599L67.8314 22.4814C67.7172 22.3701 67.6838 22.3144 67.5529 22.203C70.3065 19.604 73.7611 17.8684 77.49 17.2107C81.219 16.553 85.0589 17.0018 88.5355 18.5019C92.0122 20.002 94.9733 22.4875 97.0533 25.6516C99.1332 28.8156 100.241 32.5196 100.239 36.3061V36.3061Z" fill="white"/>
<path d="M120.755 55.6191C119.13 55.6191 117.572 54.9737 116.423 53.8249C115.275 52.6761 114.629 51.118 114.629 49.4934V36.3036C114.629 35.3605 114.443 34.4267 114.083 33.5555C113.722 32.6842 113.193 31.8926 112.526 31.2258C111.859 30.559 111.067 30.03 110.196 29.6691C109.325 29.3083 108.391 29.1225 107.448 29.1225C106.505 29.1225 105.571 29.3083 104.7 29.6691C103.829 30.03 103.037 30.559 102.37 31.2258C101.704 31.8926 101.175 32.6842 100.814 33.5555C100.453 34.4267 100.267 35.3605 100.267 36.3036V49.4822C100.267 51.1095 99.6207 52.67 98.4701 53.8207C97.3195 54.9713 95.7589 55.6177 94.1317 55.6177C92.5044 55.6177 90.9439 54.9713 89.7932 53.8207C88.6426 52.67 87.9962 51.1095 87.9962 49.4822V36.3036C87.9962 33.7491 88.4993 31.2196 89.4769 28.8596C90.4544 26.4996 91.8873 24.3552 93.6935 22.5489C95.4998 20.7426 97.6442 19.3098 100.004 18.3323C102.364 17.3547 104.894 16.8516 107.448 16.8516C110.003 16.8516 112.532 17.3547 114.892 18.3323C117.252 19.3098 119.397 20.7426 121.203 22.5489C123.009 24.3552 124.442 26.4996 125.419 28.8596C126.397 31.2196 126.9 33.7491 126.9 36.3036V49.4822C126.902 50.2893 126.744 51.0886 126.435 51.8344C126.127 52.5802 125.674 53.2576 125.103 53.8279C124.532 54.3982 123.854 54.85 123.108 55.1574C122.362 55.4648 121.562 55.6217 120.755 55.6191V55.6191Z" fill="white"/>
<path d="M67.1965 22.5312C69.0415 24.3007 70.5104 26.4243 71.5151 28.7749C72.5199 31.1255 73.0398 33.6548 73.0438 36.2111C73.0438 36.2418 73.0438 36.2724 73.0438 36.3058V49.4817C73.0428 49.8279 73.013 50.1734 72.9547 50.5147C72.9157 50.718 72.8795 50.8739 72.8406 51.0131C72.8016 51.1523 72.7487 51.3278 72.6902 51.4948C72.2987 52.5609 71.6061 53.4905 70.6965 54.1707C70.5751 54.2629 70.4487 54.3485 70.3179 54.4268C69.4332 54.9867 68.4145 55.2988 67.3681 55.3305C66.3216 55.3622 65.2859 55.1124 64.3689 54.6071C63.452 54.1018 62.6876 53.3597 62.1554 52.4581C61.6233 51.5565 61.3429 50.5286 61.3437 49.4817V36.3058C61.3488 33.7351 61.8695 31.1916 62.8748 28.8256C63.8801 26.4597 65.3496 24.3194 67.1965 22.5312V22.5312Z" fill="white"/>
<path d="M66.726 9.42244C66.7309 9.45474 66.7309 9.4876 66.726 9.51989C66.2516 9.56837 65.7926 9.71537 65.3783 9.95148L65.3505 9.9125C64.7769 8.8934 64.1986 7.87244 63.6158 6.84963C63.6106 6.84064 63.6059 6.83134 63.6018 6.82179C64.5648 6.27398 65.6442 5.96286 66.751 5.91406C66.7547 5.94179 66.7547 5.96987 66.751 5.9976C66.751 6.57397 66.751 7.15035 66.7371 7.72951C66.7232 8.30867 66.7232 8.86277 66.726 9.42244Z" fill="white"/>
<path d="M70.5518 19.0898L70.3708 19.2401L70.2677 19.3237C69.4018 20.0198 68.405 20.7019 67.3636 21.6793C67.3636 21.4565 67.3636 19.9334 67.3636 19.9112C67.3636 19.3404 67.3636 18.7695 67.3775 18.1987C67.3914 17.6279 67.3775 17.0432 67.3775 16.4668C67.3739 16.4355 67.3787 16.4038 67.3914 16.3749C67.8787 16.3341 68.3511 16.1868 68.7753 15.9434L68.8059 16.0046C69.1512 16.6061 69.4946 17.2075 69.8362 17.8089C70.0645 18.2099 70.2872 18.6136 70.5183 19.0118C70.5313 19.037 70.5425 19.063 70.5518 19.0898V19.0898Z" fill="white"/>
<path d="M70.3067 6.70786C70.3 6.73073 70.2897 6.75235 70.2761 6.7719C69.6969 7.75202 69.1206 8.73399 68.547 9.71782C68.5286 9.75019 68.5051 9.77934 68.4774 9.80414C68.0452 9.61093 67.578 9.50858 67.1046 9.50342C67.0968 9.4639 67.0968 9.42322 67.1046 9.38369C67.1046 8.82681 67.1046 8.26992 67.1186 7.71304V6.09529C67.1131 6.03973 67.1131 5.98378 67.1186 5.92822C68.228 5.9322 69.3207 6.1994 70.3067 6.70786V6.70786Z" fill="white"/>
<path d="M67.0294 21.6796L66.957 21.6211C66.208 20.9306 64.1337 19.4326 63.8441 19.2042C63.8514 19.1777 63.8627 19.1523 63.8775 19.1291C64.4622 18.1406 65.0386 17.1493 65.615 16.1553C65.6263 16.1342 65.6414 16.1153 65.6595 16.0996C66.0979 16.2945 66.572 16.3959 67.0517 16.3975C67.0406 16.4282 67.0378 21.6573 67.0294 21.6796Z" fill="white"/>
<path d="M65.0497 10.1522C64.662 10.432 64.3367 10.7895 64.0947 11.2019L64.0473 11.174C63.0542 10.5893 62.0583 10.0064 61.0597 9.42542C61.0387 9.415 61.0198 9.40085 61.004 9.38365C61.5659 8.42856 62.3453 7.61957 63.2788 7.02246C63.2926 7.03785 63.3048 7.05465 63.315 7.07258C63.8719 8.08054 64.4511 9.08294 65.0219 10.0881L65.0497 10.1522Z" fill="white"/>
<path d="M73.1273 16.5142C72.5627 17.4682 71.7827 18.2768 70.8497 18.8754C70.8274 18.8448 70.8135 18.8114 70.7968 18.7835C70.5517 18.3603 70.3123 17.9482 70.07 17.5083C69.7526 16.9514 69.438 16.3945 69.115 15.8376C69.0984 15.8102 69.087 15.78 69.0816 15.7485C69.4627 15.4725 69.7839 15.122 70.0255 14.7183C70.0577 14.7211 70.0885 14.7327 70.1146 14.7517C71.0984 15.3327 72.085 15.9109 73.0744 16.4864L73.1273 16.5142Z" fill="white"/>
<path d="M65.3198 15.9189L65.2669 16.0163L63.5434 18.965C63.5351 18.9841 63.5227 19.0012 63.5072 19.0151C62.5523 18.4553 61.7433 17.6777 61.146 16.7458C61.1603 16.7328 61.1762 16.7215 61.1933 16.7124C62.1957 16.1555 63.1944 15.5866 64.1894 15.0056C64.2155 14.9886 64.2449 14.9772 64.2757 14.9722C64.5552 15.3559 64.9106 15.6781 65.3198 15.9189V15.9189Z" fill="white"/>
<path d="M64.0668 14.6487C64.0499 14.6659 64.0301 14.68 64.0084 14.6905C63.0032 15.2474 62.0008 15.8321 61.0012 16.4029L60.9511 16.428C60.4037 15.4666 60.0917 14.3894 60.0406 13.2843C60.0719 13.2794 60.1039 13.2794 60.1352 13.2843C60.6921 13.2843 61.2685 13.2843 61.8337 13.2843C62.399 13.2843 62.9781 13.2843 63.5489 13.2843C63.5783 13.2783 63.6086 13.2783 63.638 13.2843C63.6862 13.7566 63.8322 14.2137 64.0668 14.6264V14.6487Z" fill="white"/>
<path d="M63.922 11.5333C63.7246 11.971 63.6212 12.4453 63.6185 12.9255H63.5461H61.817C61.2601 12.9255 60.7032 12.9255 60.1464 12.9255C60.1115 12.9263 60.0767 12.9216 60.0433 12.9115C60.0512 11.806 60.3213 10.7182 60.8313 9.7373L60.8954 9.7735L63.4013 11.2465C63.5628 11.3411 63.7215 11.4442 63.8858 11.5249L63.922 11.5333Z" fill="white"/>
<path d="M74.0963 13.0143C74.087 14.1188 73.8171 15.2054 73.3084 16.1858C73.2807 16.1778 73.2544 16.1656 73.2304 16.1496C72.2447 15.5649 71.259 14.9885 70.2706 14.4121C70.2452 14.3988 70.2225 14.3808 70.2037 14.3592C70.3947 13.9351 70.497 13.4765 70.5045 13.0115C70.5506 12.9873 70.603 12.9776 70.6548 12.9837C71.2117 12.9837 71.7686 12.9837 72.3255 12.9837C72.8823 12.9837 73.4671 12.9837 74.0407 12.9837L74.0963 13.0143Z" fill="white"/>
<path d="M74.0908 12.6441H74.0295C73.4476 12.6441 72.8656 12.6441 72.2809 12.6301H70.5852C70.5539 12.6324 70.5225 12.6276 70.4933 12.6162C70.4577 12.2623 70.3685 11.9159 70.2288 11.5888C70.2438 11.5738 70.2607 11.5607 70.2789 11.5498L73.3417 9.81787H73.364C73.8032 10.698 74.0509 11.6612 74.0908 12.6441V12.6441Z" fill="white"/>
<path d="M71.2033 7.26471C71.1923 7.28482 71.1802 7.30433 71.1671 7.32319C70.5016 8.25318 69.8362 9.18597 69.1679 10.1076C69.1549 10.1328 69.14 10.157 69.1233 10.18L69.0927 10.1577C69.0092 10.0993 68.9229 10.0408 68.8365 9.98788C68.8421 9.95725 68.8534 9.92795 68.87 9.90156C69.4528 8.92516 70.0292 7.94411 70.5991 6.95843C70.6124 6.93452 70.6283 6.91211 70.6464 6.8916C70.8385 7.01133 71.0251 7.13385 71.2033 7.26471Z" fill="#29C76F"/>
<path d="M73.1747 9.46719C73.1495 9.48184 73.1235 9.49486 73.0967 9.50617C72.3542 9.92755 71.6173 10.3461 70.8859 10.7619C70.6297 10.9095 70.3708 11.0404 70.1202 11.2047C70.0996 11.219 70.0756 11.2277 70.0506 11.2297C70.006 11.1573 69.9615 11.0849 69.9141 11.0125C69.9298 10.9938 69.9475 10.977 69.967 10.9624C70.9026 10.2969 71.8326 9.62311 72.7514 8.94928C72.7696 8.93376 72.7903 8.92151 72.8127 8.91309C72.9519 9.09129 73.0661 9.27506 73.1747 9.46719Z" fill="#29C76F"/>
<path d="M71.7853 7.73783C71.7315 7.81789 71.6668 7.89006 71.5931 7.95223C70.8803 8.75229 70.1656 9.55049 69.4491 10.3468C69.4318 10.3692 69.4122 10.3898 69.3906 10.4081L69.3767 10.3942C69.3127 10.3357 69.2431 10.28 69.1762 10.2243C69.1902 10.202 69.2208 10.1853 69.2347 10.1631L71.1643 7.45939C71.1973 7.40816 71.2355 7.36056 71.2785 7.31738C71.4539 7.45104 71.6238 7.59026 71.7853 7.73783Z" fill="#29C76F"/>
<path d="M72.3143 8.27281L72.2809 8.29787L69.7109 10.6034C69.6896 10.6254 69.6652 10.6441 69.6385 10.6591V10.6591C69.5828 10.5978 69.5243 10.5366 69.4631 10.4781C69.4722 10.4486 69.4884 10.4218 69.5104 10.4001C69.7888 10.0994 70.0673 9.79033 70.329 9.48682C70.8052 8.95221 71.2841 8.42317 71.7574 7.88578C71.7845 7.85222 71.8176 7.82391 71.8549 7.80225C72.0136 7.94982 72.1695 8.10853 72.3143 8.27281Z" fill="#29C76F"/>
<path d="M72.7737 8.84324C72.7579 8.85739 72.7412 8.87042 72.7236 8.88223L71.6098 9.69528L69.9782 10.8592L69.864 10.9371C69.8111 10.862 69.7554 10.7923 69.6969 10.7227C69.716 10.7052 69.7365 10.6894 69.7582 10.6754L71.8576 8.78199C72.0108 8.64555 72.1667 8.50354 72.3143 8.36989C72.3304 8.3541 72.3481 8.34009 72.3672 8.32812C72.5092 8.49241 72.6456 8.66504 72.7737 8.84324Z" fill="#29C76F"/>
<path d="M68.856 11.4634C68.7781 11.5302 68.6221 11.6889 68.5776 11.7418C68.0931 12.1595 67.6058 12.5772 67.1241 12.992C67.0712 13.0366 67.0378 13.0533 66.9821 12.992C66.7343 12.7136 66.4809 12.4658 66.2582 12.2291C66.4447 12.3238 66.6675 12.4546 66.8875 12.5855C66.9234 12.6154 66.9688 12.6318 67.0155 12.6318C67.0623 12.6318 67.1076 12.6154 67.1436 12.5855C67.6086 12.2709 68.082 11.9646 68.5498 11.6555C68.5943 11.6165 68.7892 11.4968 68.856 11.4634Z" fill="white"/>
<path d="M144.175 16.9854L139.734 29.1004L135.323 16.9854H130.901V34.1847H133.987V21.3207L138.255 32.6728H141.243L145.511 21.3207V34.1792H148.594V16.9854H144.175Z" fill="white"/>
<path d="M155.775 21.7656C151.999 21.7656 149.68 24.628 149.68 28.0835C149.68 31.539 151.999 34.4236 155.775 34.4236C159.55 34.4236 161.867 31.5111 161.867 28.0835C161.867 24.6559 159.522 21.7656 155.775 21.7656ZM155.775 31.8341C153.53 31.8341 152.639 30.0576 152.639 28.0835C152.639 26.1093 153.53 24.3579 155.775 24.3579C158.019 24.3579 158.907 26.0843 158.907 28.0835C158.907 30.0827 158.019 31.8341 155.775 31.8341Z" fill="white"/>
<path d="M169.223 21.7656C167.739 21.7656 166.408 22.2613 165.545 23.4363V22.0134H162.583V34.1786H165.545V29.317C165.545 27.1479 165.545 24.3579 168.31 24.3579C170.554 24.3579 170.554 26.2346 170.554 27.07V34.1786H173.517V26.3321C173.517 23.4446 171.961 21.7656 169.223 21.7656Z" fill="white"/>
<path d="M185.409 27.9359C185.409 24.5556 183.583 21.7656 179.807 21.7656C175.761 21.7656 174.035 24.9733 174.035 28.1698C174.035 31.4248 175.811 34.4348 180.005 34.4348C180.947 34.4631 181.883 34.2806 182.745 33.9005C183.608 33.5203 184.374 32.9523 184.989 32.2378L182.937 30.428C182.583 30.853 182.136 31.1917 181.632 31.4185C181.127 31.6453 180.577 31.7541 180.024 31.7367C178.103 31.7367 177.114 30.6758 176.992 29.0692H185.345C185.389 28.693 185.411 28.3146 185.409 27.9359V27.9359ZM176.967 26.7303C177.142 25.5246 177.98 24.241 179.785 24.241C181.336 24.241 182.522 25.1765 182.569 26.7303H176.967Z" fill="white"/>
<path d="M193.796 22.0137L190.689 30.4533L187.603 22.0137H184.346L189.107 33.8558L186.938 39.2103H187.807L190.755 37.5034L190.856 37.445L197.054 22.0137H193.796Z" fill="white"/>
<path d="M203.012 16.9854H202.645C202.282 16.9854 201.933 17.1297 201.676 17.3866C201.419 17.6435 201.275 17.992 201.275 18.3553C201.275 18.7186 201.419 19.0671 201.676 19.324C201.933 19.5809 202.282 19.7252 202.645 19.7252H203.012C203.376 19.7252 203.724 19.5809 203.981 19.324C204.238 19.0671 204.382 18.7186 204.382 18.3553C204.382 17.992 204.238 17.6435 203.981 17.3866C203.724 17.1297 203.376 16.9854 203.012 16.9854V16.9854ZM201.342 22.0196V34.1847H204.302V22.014L201.342 22.0196Z" fill="white"/>
<path d="M212.747 21.7656C211.268 21.7656 209.934 22.2613 209.071 23.4363V22.0134H206.111V34.1786H209.071V29.317C209.071 27.1479 209.071 24.3579 211.833 24.3579C214.08 24.3579 214.08 26.2346 214.08 27.07V34.1786H217.04V26.3321C217.04 23.4446 215.487 21.7656 212.747 21.7656Z" fill="white"/>
<path d="M144.25 37.4697L139.795 49.5848L135.356 37.4697H130.913V54.6663H134.012V41.8106L138.302 53.1627H141.298L145.586 41.8106V54.6663H148.688V37.4697H144.25Z" fill="white"/>
<path d="M152.528 37.4697V40.2096H155.649V37.4697H152.528ZM152.6 42.504V54.6663H155.577V42.504H152.6Z" fill="white"/>
<path d="M165.715 42.2563C164.228 42.2563 162.892 42.7492 162.023 43.9075V42.5153H159.049V54.6777H162.023V49.8077C162.023 47.6331 162.023 44.8487 164.807 44.8487C167.065 44.8487 167.065 46.7226 167.065 47.5607V54.6665H170.036V46.82C170.028 43.9354 168.458 42.2563 165.715 42.2563Z" fill="white"/>
<path d="M180.84 42.5039V47.1149C180.84 49.2896 180.84 52.3218 178.056 52.3218C175.8 52.3218 175.8 50.2028 175.8 49.3619V42.5039H172.829V50.1026C172.829 52.6949 174.121 54.9141 177.195 54.9141C178.632 54.9141 179.98 54.4212 180.84 53.2601V54.6663H183.811V42.5039H180.84Z" fill="white"/>
<path d="M193.796 44.8487V42.5042H190.755V39.8979L190.677 39.9397L188.389 41.2679L187.779 41.6215V42.5042H185.796V44.8487H187.779V51.2528C187.779 53.8396 189.516 54.9032 191.571 54.9032C192.329 54.9009 193.081 54.7758 193.799 54.5329V52.1633C193.32 52.329 192.818 52.4228 192.312 52.4418C191.346 52.4418 190.753 51.9963 190.753 51.0329V44.8487H193.796Z" fill="white"/>
<path d="M206.693 48.4238C206.693 45.0463 204.856 42.2563 201.063 42.2563C197.001 42.2563 195.266 45.464 195.266 48.6605C195.266 51.9183 197.051 54.9283 201.264 54.9283C202.21 54.9582 203.151 54.7765 204.018 54.3964C204.885 54.0164 205.657 53.4475 206.276 52.7313L204.221 50.9326C203.863 51.3569 203.414 51.6949 202.907 51.921C202.401 52.1472 201.849 52.2557 201.294 52.2385C199.359 52.2385 198.368 51.1776 198.245 49.5738H206.624C206.672 49.1924 206.695 48.8083 206.693 48.4238V48.4238ZM198.215 47.2154C198.387 46.007 199.231 44.7233 201.041 44.7233C202.603 44.7233 203.792 45.6617 203.842 47.2154H198.215Z" fill="white"/>
<path d="M211.354 45.6366C211.354 45.0798 211.948 44.6008 212.917 44.6008C214.253 44.6008 214.924 45.3888 215.345 46.1545L217.65 44.896C216.731 43.242 215.122 42.2563 213.014 42.2563C210.658 42.2563 208.528 43.4648 208.528 45.8093C208.528 50.3228 214.824 48.9696 214.824 51.0162C214.824 51.6566 214.228 52.4473 212.841 52.4473C211.204 52.4473 210.561 51.3336 210.238 50.4481L207.857 51.5118C208.453 53.3634 210.413 54.9171 212.989 54.9171C215.294 54.9171 217.75 53.6836 217.75 50.8435C217.742 46.3996 211.354 47.4883 211.354 45.6366Z" fill="white"/>
</svg>
