<svg xmlns="http://www.w3.org/2000/svg" viewBox="0 0 1000 1000"><defs><style>.cls-1{fill:#070a6a;}.cls-2{fill:#29c76f;}</style></defs><g id="LOGO_ICON" data-name="LOGO ICON"><path class="cls-1" d="M480.56,259.47a18.27,18.27,0,0,1-.63,5.87,204.59,204.59,0,0,0-80.56,26.27,15.14,15.14,0,0,1-1.6-2.33q-52.35-91.23-105.21-182.16a7.16,7.16,0,0,1-.77-1.59A418.59,418.59,0,0,1,480,49.83a16.06,16.06,0,0,1,.59,5c-.32,34.59-.16,69.18-.16,103.77C480.44,192.23,480.28,225.85,480.56,259.47Z"/><path class="cls-1" d="M713.64,837.22c-56.54,47.86-122.22,100.29-190,156.39-.19-1,0-104.52,0-106,.39-34.24.15-68.48.15-102.72,0-34.55.2-69.1-.15-103.65a12.33,12.33,0,0,1,.89-5.52,205.29,205.29,0,0,0,80.69-26.31c.73,1,1.24,2.37,1.94,3.53q31.25,53.82,62.38,107.7c13.83,23.94,27.32,48.12,41.47,71.86A49.33,49.33,0,0,1,713.64,837.22Z"/><path class="cls-1" d="M694.08,95.34a15.78,15.78,0,0,1-1.79,4q-51.59,88.32-102.52,177a17.19,17.19,0,0,1-4.16,5.32,206.47,206.47,0,0,0-82.09-17.52,21.17,21.17,0,0,1-.81-7.19c.39-33.58.19-67.2.19-100.82V59.2c0-4.7,0-7.85.51-10A419.75,419.75,0,0,1,694.08,95.34Z"/><path class="cls-1" d="M503.66,993.61c-55.42-42.73-140-106.64-192.25-147.39a18.78,18.78,0,0,1,2-4.39q51.9-89.19,103-178.86a12.36,12.36,0,0,1,2.68-3.46A205.64,205.64,0,0,0,501.74,677C502.24,678.52,504,992.36,503.66,993.61Z"/><path class="cls-1" d="M380.52,303.9a206.26,206.26,0,0,0-56.94,63.27,0,0,0,0,1,0,0,31.67,31.67,0,0,1-2.84-1.56Q231,313.65,140.91,262a14.09,14.09,0,0,1-3.38-2.49,422.64,422.64,0,0,1,135.41-142.4,16.33,16.33,0,0,1,2.21,3.11q51.6,90.06,103.38,179.94C379.31,301.49,380,302.81,380.52,303.9Z"/><path class="cls-1" d="M866.88,681.75a423.36,423.36,0,0,1-135.56,142.4c-1.25-1.75-2.1-3.73-3.11-5.48-14.81-25.26-29.39-50.68-44-76-19.24-33.5-38.32-67.08-57.87-100.35a13.14,13.14,0,0,1-2.06-5.25,206.88,206.88,0,0,0,56.08-62.18,12.34,12.34,0,0,1,5.37,2.06q88.78,51.77,178,102.79A22.4,22.4,0,0,1,866.88,681.75Z"/><path class="cls-1" d="M398.94,649.25c-.9,1.67-2,3.77-3.15,5.83q-51.07,88.68-102.1,177.39a15.43,15.43,0,0,1-2.1,3A423,423,0,0,1,149.11,700.4a17,17,0,0,1,2.95-2Q241.67,647,330.88,594.92a14.75,14.75,0,0,1,5.13-2A207.58,207.58,0,0,0,398.94,649.25Z"/><path class="cls-1" d="M323.34,573.58a14.48,14.48,0,0,1-3.42,2.57q-90,51.58-179.63,103.85a20.28,20.28,0,0,1-2.88,1.4,418.51,418.51,0,0,1-55.85-188,18.31,18.31,0,0,1,5.72-.62c33.92.51,67.85.2,101.78.2,34.28,0,68.52.15,102.76-.12a16.58,16.58,0,0,1,5.29.58,201.31,201.31,0,0,0,7.46,36.65A205.09,205.09,0,0,0,323.34,573.58Z"/><path class="cls-1" d="M313.47,387a205.23,205.23,0,0,0-17.64,83.13,20.81,20.81,0,0,1-4.36.31c-34.55-.15-69.1-.07-103.65-.07-33.58,0-67.2-.28-100.78.19a16.2,16.2,0,0,1-6.1-.78A419.09,419.09,0,0,1,126.8,279.22c1.21.54,2.49,1.43,3.85,2.21l151.11,87.22c9.71,5.59,19.24,11.69,29.23,16.75A13.69,13.69,0,0,1,313.47,387Z"/><path class="cls-1" d="M923.54,471.68A419.33,419.33,0,0,1,877.61,662a17.31,17.31,0,0,1-4.55-2Q784.32,608.2,695.13,557.14a12.59,12.59,0,0,1-4-3.18,205.75,205.75,0,0,0,17.53-80.88c2-1.29,4.93-1.79,9-1.71,33.27.7,66.54.27,99.85.27,34.24,0,68.48.15,102.72-.16A26.88,26.88,0,0,1,923.54,471.68Z"/><path class="cls-1" d="M923,449.49a19.85,19.85,0,0,1-3.62.23c-34.86-.2-69.76-.12-104.66-.12-33.93,0-67.82-.11-101.75.16a14.39,14.39,0,0,1-5.48-.74,204.9,204.9,0,0,0-16.28-61.49,13.78,13.78,0,0,1,3.1-2.29q91.13-52.41,182.13-105.09a13.14,13.14,0,0,1,1.32-.7A418.78,418.78,0,0,1,923,449.49Z"/><path class="cls-2" d="M748.07,128.38c-.7,1.13-1.44,2.37-2.3,3.54q-59.22,84.06-118.61,168c-.7,1-1.52,3-2.61,4.39-.62-.46-1.24-.93-1.86-1.36-5-3.57-10.19-6.95-15.47-10.1a14.9,14.9,0,0,1,2.06-5.13q51.65-88.32,102.41-177.11a19,19,0,0,1,2.84-4C726.07,113.3,737.26,120.61,748.07,128.38Z"/><path class="cls-2" d="M867,259.51c-1.36,1-3.15,1.56-4.59,2.41q-65.94,38.19-132,76.18c-15.31,8.82-30.78,17.37-45.78,26.7a9.54,9.54,0,0,1-4.16,1.63c-2.6-4.43-5.33-8.74-8.24-12.94a13.2,13.2,0,0,1,3.19-3Q759,289.92,842.12,228.65a20.47,20.47,0,0,1,3.54-2.21Q857,242.42,867,259.51Z"/><path class="cls-2" d="M783,156.48c-1.83,4.39-7.62,8.74-11.35,13q-63.72,72.16-127.6,144.23c-1,1.17-1.9,2.8-3.46,3.73-.27-.27-.54-.51-.81-.74-3.93-3.53-8-6.88-12.13-10.1.82-1.36,2.68-2.49,3.58-3.81Q688.48,221.38,745.81,140c3-4.32,4.94-7.08,6.73-8.44Q768.34,143.33,783,156.48Z"/><path class="cls-2" d="M815,188.31a11.33,11.33,0,0,0-2.14,1.48q-76.54,69.6-153,139.25a16.57,16.57,0,0,1-4.27,3.3l-.08-.07q-5.13-5.65-10.65-10.89a10.43,10.43,0,0,1,2.8-4.66c16.55-18,32.41-36.73,48.62-55.07,28.37-32.14,56.9-64.13,85-96.47a20.42,20.42,0,0,1,5.75-5.05C796.8,169.07,806.17,178.48,815,188.31Z"/><path class="cls-2" d="M842.63,222.28a16.23,16.23,0,0,1-2.84,2.49c-22.47,16.2-44.62,32.8-67,49.16q-48.33,35.32-96.85,70.5c-2.21,1.63-4.51,3.19-6.76,4.74-.08-.07-.12-.19-.2-.27-3.18-4.35-6.56-8.59-10.1-12.71,1-1.12,2.64-2,3.65-2.95q62.51-57.14,125.15-114.15c9.09-8.24,18.34-16.32,27.09-24.87a13.66,13.66,0,0,1,3.26-2.49Q831.07,206.42,842.63,222.28Z"/><path class="cls-1" d="M609,381c-4.61,4-13.8,13.58-16.6,16-28.8,25.22-57.75,50.25-86.51,75.47-3.19,2.8-5.21,3.77-8.59.24-14.93-15.78-30.12-31.37-43.61-45.36,11.24,5.54,24.6,13.29,37.78,21.07,5.67,3.34,9.6,3.77,15.43-.28,27.75-19.08,55.89-37.62,84-56.27C593.38,390.18,605.11,382.87,609,381Z"/></g></svg>