<svg xmlns="http://www.w3.org/2000/svg" viewBox="0 0 808.96 229.85"><defs><style>.cls-1{fill:#040769;}.cls-2{fill:#0093df;}.cls-3{fill:#070a6a;}.cls-4{fill:#29c76f;}</style></defs><g id="LOGO_AND_TEXT" data-name="LOGO AND TEXT"><path class="cls-1" d="M144.62,199.75a22,22,0,0,1-22-22V130.39a25.79,25.79,0,0,0-51.58,0v47.33a22,22,0,0,1-44.07,0V130.39a69.87,69.87,0,1,1,139.73,0v47.33A22,22,0,0,1,144.62,199.75Z"/><path class="cls-1" d="M240.08,79.72c-.43.39-.62.57-1,1l-1,1c-.46.49-.93,1-1.39,1.48s-.75.83-1.11,1.24a70.73,70.73,0,0,0-8.31,11.74c-.23.41-.45.82-.69,1.23a.36.36,0,0,1,0,.09c-.26.49-.52,1-.78,1.51s-.57,1.14-.84,1.73-.45,1-.66,1.45c-.65,1.46-1.25,2.94-1.78,4.45-.14.33-.25.67-.36,1-.19.5-.35,1-.5,1.51-.12.33-.22.67-.32,1l-.19.61c-.13.45-.26.92-.38,1.38a.55.55,0,0,0,0,.17c-.1.35-.19.71-.27,1.05s-.19.75-.28,1.13c0,.1,0,.21-.06.31-.11.46-.22.93-.31,1.4a1.55,1.55,0,0,0,0,.23l-.3,1.56c-.1.58-.2,1.15-.28,1.73s-.18,1.16-.25,1.75c-.14,1.08-.25,2.19-.34,3.29,0,.62-.09,1.23-.12,1.85L218.3,128h-.15a25.79,25.79,0,0,0-51.47,2.41v47.32A22,22,0,0,1,157,196s0,0,0,0a21.73,21.73,0,0,1-5.76,2.77,22,22,0,0,1-28.58-21V130.39A69.51,69.51,0,0,1,240.08,79.72Z"/><path class="cls-2" d="M360,130.39v47.32A22,22,0,0,1,350.32,196a22.43,22.43,0,0,1-5.77,2.77,22.05,22.05,0,0,1-28.59-21V130.39A25.79,25.79,0,0,0,264.5,128h-.17c0-.43,0-.86-.05-1.29s0-.67-.06-1,0-.72-.08-1.09a.71.71,0,0,0,0-.14c0-.57-.09-1.13-.16-1.69s-.1-.88-.16-1.32-.12-1-.2-1.47c-.1-.67-.21-1.33-.33-2s-.21-1.1-.32-1.66-.23-1.13-.37-1.7-.25-1.06-.39-1.59c0-.08,0-.14-.05-.21-.11-.43-.22-.85-.35-1.27-.29-1.07-.62-2.13-1-3.18-.1-.3-.19-.6-.31-.89q-.94-2.76-2.13-5.39c-.23-.53-.48-1.07-.73-1.6-.49-1-1-2.1-1.58-3.12-.28-.51-.56-1-.85-1.53-.6-1.06-1.23-2.11-1.9-3.12s-1.21-1.86-1.85-2.76-1.32-1.8-2-2.68a7,7,0,0,0-.48-.6c-.53-.68-1.08-1.35-1.65-2l-.16-.19c-.38-.43-.76-.86-1.16-1.29s-.92-1-1.4-1.48l-1-1c-.41-.4-.53-.6-1-1A69.61,69.61,0,0,1,360,130.39Z"/><path class="cls-2" d="M433.68,199.75a22,22,0,0,1-22-22V130.38a25.79,25.79,0,1,0-51.58,0v47.33a22,22,0,1,1-44.07,0V130.38a69.86,69.86,0,1,1,139.72,0v47.33A22,22,0,0,1,433.68,199.75Z"/><path class="cls-1" d="M241.33,80.92a68.22,68.22,0,0,1,21,49.13c0,.11,0,.22,0,.34v47.32a22.46,22.46,0,0,1-.32,3.71c-.14.73-.27,1.29-.41,1.79s-.33,1.13-.54,1.73a21.07,21.07,0,0,1-7.16,9.61,14.93,14.93,0,0,1-1.36.92,21,21,0,0,1-32.23-17.76V130.39A69.05,69.05,0,0,1,241.33,80.92Z"/><path class="cls-3" d="M239.64,33.84a1.16,1.16,0,0,1,0,.35,12.3,12.3,0,0,0-4.84,1.55l-.1-.14q-3.09-5.49-6.23-11a.93.93,0,0,1-.05-.1,25.11,25.11,0,0,1,11.31-3.26,1.15,1.15,0,0,1,0,.3c0,2.07,0,4.14-.05,6.22S239.63,31.83,239.64,33.84Z"/><path class="cls-3" d="M253.38,68.56l-.65.54-.37.3c-3.11,2.5-6.69,4.95-10.43,8.46,0-.8,0-6.27,0-6.35,0-2.05,0-4.1.05-6.15s0-4.15,0-6.22a.64.64,0,0,1,.05-.33A12,12,0,0,0,247,57.26l.11.22q1.86,3.24,3.7,6.48c.82,1.44,1.62,2.89,2.45,4.32A2.14,2.14,0,0,1,253.38,68.56Z"/><path class="cls-3" d="M252.5,24.09a.79.79,0,0,1-.11.23q-3.12,5.28-6.21,10.58a1.23,1.23,0,0,1-.25.31A12.41,12.41,0,0,0,241,34.13a1.1,1.1,0,0,1,0-.43c0-2,0-4,.05-6l0-5.81a3.05,3.05,0,0,1,0-.6A25.18,25.18,0,0,1,252.5,24.09Z"/><path class="cls-3" d="M240.73,77.86l-.26-.21h0v0c-2.69-2.48-10.14-7.86-11.18-8.68a1,1,0,0,1,.12-.27c2.1-3.55,4.17-7.11,6.24-10.68a.7.7,0,0,1,.16-.2,12.41,12.41,0,0,0,5,1.07C240.77,59,240.76,77.78,240.73,77.86Z"/><path class="cls-3" d="M233.62,36.46a12.37,12.37,0,0,0-3.43,3.77h0l-.17-.1q-5.35-3.15-10.73-6.28a.69.69,0,0,1-.2-.15,25.29,25.29,0,0,1,8.17-8.48,1.06,1.06,0,0,1,.13.18c2,3.62,4.08,7.22,6.13,10.83Z"/><path class="cls-3" d="M262.63,59.31a25.52,25.52,0,0,1-8.18,8.48c-.08-.11-.13-.23-.19-.33-.88-1.52-1.74-3-2.61-4.58-1.14-2-2.27-4-3.43-6a.92.92,0,0,1-.12-.32,12.48,12.48,0,0,0,3.39-3.7.64.64,0,0,1,.32.12q5.3,3.13,10.63,6.23Z"/><path class="cls-3" d="M234.59,57.17l-.19.35-6.19,10.59a.52.52,0,0,1-.13.18,25.23,25.23,0,0,1-8.48-8.15.83.83,0,0,1,.17-.12q5.4-3,10.76-6.13a.81.81,0,0,1,.31-.12A12.45,12.45,0,0,0,234.59,57.17Z"/><path class="cls-3" d="M230.09,52.61a.76.76,0,0,1-.21.15c-3.61,2-7.21,4.1-10.8,6.15l-.18.09a25.17,25.17,0,0,1-3.27-11.29,1.09,1.09,0,0,1,.34,0c2,0,4.07,0,6.1,0s4.11,0,6.16,0a.79.79,0,0,1,.32,0,12.27,12.27,0,0,0,1.54,4.82Z"/><path class="cls-3" d="M229.57,41.42a12.33,12.33,0,0,0-1.09,5h-.26l-6.21,0c-2,0-4,0-6,0a1.18,1.18,0,0,1-.37-.05,25.1,25.1,0,0,1,2.83-11.4l.23.13,9,5.29c.58.34,1.15.71,1.74,1Z"/><path class="cls-3" d="M266.11,46.74a25.19,25.19,0,0,1-2.83,11.39A1,1,0,0,1,263,58c-3.54-2.1-7.08-4.17-10.63-6.24a.83.83,0,0,1-.24-.19,12.27,12.27,0,0,0,1.08-4.84.93.93,0,0,1,.54-.1c2,0,4,0,6,0s4.1,0,6.16,0Z"/><path class="cls-3" d="M266.09,45.41h-.22c-2.09,0-4.18,0-6.28-.05l-6.09,0a.76.76,0,0,1-.33-.05,12.61,12.61,0,0,0-.95-3.69.94.94,0,0,1,.18-.14l11-6.22.08,0A25,25,0,0,1,266.09,45.41Z"/><path class="cls-4" d="M255.72,26.09a2.39,2.39,0,0,1-.13.21c-2.39,3.34-4.78,6.69-7.18,10a2.05,2.05,0,0,1-.16.26l-.11-.08c-.3-.21-.61-.42-.92-.61a.88.88,0,0,1,.12-.31q3.14-5.26,6.21-10.57a1.37,1.37,0,0,1,.17-.24C254.41,25.18,255.08,25.62,255.72,26.09Z"/><path class="cls-4" d="M262.8,34a2.44,2.44,0,0,1-.28.14q-4,2.27-7.94,4.51c-.92.53-1.85,1-2.75,1.59a.51.51,0,0,1-.25.09c-.16-.26-.32-.52-.49-.78a1.13,1.13,0,0,1,.19-.18c3.36-2.39,6.7-4.81,10-7.23a.74.74,0,0,1,.22-.13C262,32.65,262.41,33.31,262.8,34Z"/><path class="cls-4" d="M257.81,27.79a3.72,3.72,0,0,1-.69.77q-3.84,4.31-7.7,8.6a1.45,1.45,0,0,1-.21.22l-.05-.05c-.23-.21-.48-.41-.72-.61.05-.08.16-.14.21-.22l6.93-9.71a3.1,3.1,0,0,1,.41-.51C256.62,26.76,257.23,27.26,257.81,27.79Z"/><path class="cls-4" d="M259.71,29.71l-.12.09-9.23,8.28a1.13,1.13,0,0,1-.26.2h0c-.2-.22-.41-.44-.63-.65a.67.67,0,0,1,.17-.28c1-1.08,2-2.19,2.94-3.28,1.71-1.92,3.43-3.82,5.13-5.75a1.27,1.27,0,0,1,.35-.3C258.63,28.55,259.19,29.12,259.71,29.71Z"/><path class="cls-4" d="M261.36,31.76a1.63,1.63,0,0,1-.18.14l-4,2.92L251.32,39l-.41.28h0c-.19-.27-.39-.52-.6-.77a1.63,1.63,0,0,1,.22-.17l7.54-6.8c.55-.49,1.11-1,1.64-1.48a1.12,1.12,0,0,1,.19-.15C260.41,30.5,260.9,31.12,261.36,31.76Z"/><path class="cls-3" d="M247.29,41.17c-.28.24-.84.81-1,1-1.74,1.5-3.49,3-5.22,4.49-.19.16-.31.22-.51,0-.89-1-1.8-1.89-2.6-2.74.67.34,1.47.81,2.26,1.28a.72.72,0,0,0,.92,0c1.67-1.13,3.37-2.23,5.05-3.34C246.35,41.72,247.05,41.29,247.29,41.17Z"/><path class="cls-1" d="M517.79,61l-15.95,43.51L486,61H470.12v61.77H481.2V76.57l15.33,40.77h10.73l15.33-40.77v46.18h11.07V61Z"/><path class="cls-1" d="M559.45,78.17c-13.56,0-21.89,10.28-21.89,22.69s8.33,22.77,21.89,22.77,21.88-10.46,21.88-22.77S572.91,78.17,559.45,78.17Zm0,36.16c-8.06,0-11.26-6.38-11.26-13.47s3.2-13.38,11.26-13.38,11.25,6.2,11.25,13.38S567.51,114.33,559.45,114.33Z"/><path class="cls-1" d="M607.75,78.17c-5.33,0-10.11,1.78-13.21,6V79.06H583.9v43.69h10.64V105.29c0-7.79,0-17.81,9.93-17.81,8.06,0,8.06,6.74,8.06,9.74v25.53h10.64V94.57C623.17,84.2,617.58,78.17,607.75,78.17Z"/><path class="cls-1" d="M665.88,100.33c0-12.14-6.56-22.16-20.12-22.16-14.53,0-20.73,11.52-20.73,23,0,11.69,6.38,22.5,21.44,22.5a22.71,22.71,0,0,0,17.9-7.89L657,109.28a13.08,13.08,0,0,1-10.46,4.7c-6.9,0-10.45-3.81-10.89-9.58h30A33.9,33.9,0,0,0,665.88,100.33ZM635.56,96c.63-4.33,3.64-8.94,10.12-8.94,5.57,0,9.83,3.36,10,8.94Z"/><path class="cls-1" d="M696,79.06l-11.16,30.31L673.76,79.06h-11.7l17.1,42.53-7.79,19.23h3.12l10.59-6.13.36-.21L707.7,79.06Z"/><path class="cls-1" d="M729.1,61h-1.32a4.92,4.92,0,1,0,0,9.84h1.32a4.92,4.92,0,0,0,0-9.84Zm-6,18.08v43.69h10.63V79.06Z"/><path class="cls-1" d="M764.06,78.17c-5.31,0-10.1,1.78-13.2,6V79.06H740.23v43.69h10.63V105.29c0-7.79,0-17.81,9.92-17.81,8.07,0,8.07,6.74,8.07,9.74v25.53h10.63V94.57C779.48,84.2,773.9,78.17,764.06,78.17Z"/><path class="cls-1" d="M518.06,134.57l-16,43.51-15.94-43.51H470.16v61.76h11.13V150.16l15.41,40.77h10.76l15.4-40.77v46.17H534V134.57Z"/><path class="cls-1" d="M547.79,134.57v9.84H559v-9.84Zm.26,18.08v43.68h10.69V152.65Z"/><path class="cls-1" d="M595.15,151.76c-5.34,0-10.14,1.77-13.26,5.93v-5H571.21v43.68h10.68V178.88c0-7.81,0-17.81,10-17.81,8.11,0,8.11,6.73,8.11,9.74v25.52h10.67V168.15C610.64,157.79,605,151.76,595.15,151.76Z"/><path class="cls-1" d="M649.47,152.65v16.56c0,7.81,0,18.7-10,18.7-8.1,0-8.1-7.61-8.1-10.63V152.65H620.7v27.29c0,9.31,4.64,17.28,15.68,17.28,5.16,0,10-1.77,13.09-5.94v5.05h10.67V152.65Z"/><path class="cls-1" d="M696,161.07v-8.42H685.08v-9.36l-.28.15-8.22,4.77-2.19,1.27v3.17h-7.12v8.42h7.12v23c0,9.29,6.24,13.11,13.62,13.11a25.19,25.19,0,0,0,8-1.33v-8.51a18.46,18.46,0,0,1-5.34,1c-3.47,0-5.6-1.6-5.6-5.06V161.07Z"/><path class="cls-1" d="M742.32,173.91c0-12.13-6.6-22.15-20.22-22.15-14.59,0-20.82,11.52-20.82,23,0,11.7,6.41,22.51,21.54,22.51a22.84,22.84,0,0,0,18-7.89l-7.38-6.46a13.21,13.21,0,0,1-10.51,4.69c-6.95,0-10.51-3.81-10.95-9.57h30.09A32.11,32.11,0,0,0,742.32,173.91Zm-30.45-4.34c.62-4.34,3.65-8.95,10.15-8.95,5.61,0,9.88,3.37,10.06,8.95Z"/><path class="cls-1" d="M759.06,163.9c0-2,2.13-3.72,5.61-3.72,4.8,0,7.21,2.83,8.72,5.58l8.28-4.52c-3.3-5.94-9.08-9.48-16.65-9.48-8.46,0-16.11,4.34-16.11,12.76,0,16.21,22.61,11.35,22.61,18.7,0,2.3-2.14,5.14-7.12,5.14-5.88,0-8.19-4-9.35-7.18L746.5,185c2.14,6.65,9.18,12.23,18.43,12.23,8.28,0,17.1-4.43,17.1-14.63C782,166.64,759.06,170.55,759.06,163.9Z"/></g></svg>