<svg width="137" height="64" viewBox="0 0 137 64" fill="none" xmlns="http://www.w3.org/2000/svg">
<path d="M38.1155 58.9159C36.3 58.9159 34.5589 58.1947 33.2752 56.911C31.9915 55.6272 31.2703 53.8861 31.2703 52.0707V37.37C31.2703 35.2454 30.4263 33.2077 28.9239 31.7053C27.4215 30.203 25.3839 29.3589 23.2592 29.3589C21.1345 29.3589 19.0969 30.203 17.5945 31.7053C16.0921 33.2077 15.2481 35.2454 15.2481 37.37V52.0707C15.2609 52.9777 15.0934 53.8781 14.7551 54.7198C14.4169 55.5614 13.9148 56.3274 13.278 56.9733C12.6411 57.6192 11.8822 58.1321 11.0455 58.4822C10.2087 58.8323 9.31067 59.0125 8.40361 59.0125C7.49655 59.0125 6.59854 58.8323 5.76175 58.4822C4.92497 58.1321 4.16611 57.6192 3.52926 56.9733C2.89242 56.3274 2.3903 55.5614 2.05208 54.7198C1.71386 53.8781 1.54628 52.9777 1.55909 52.0707V37.37C1.55909 25.4053 11.2931 15.6631 23.266 15.6631C35.239 15.6631 44.973 25.3984 44.973 37.37V52.0707C44.9732 52.9707 44.7958 53.8619 44.4511 54.6933C44.1064 55.5247 43.6011 56.2799 42.9641 56.9157C42.3272 57.5516 41.571 58.0555 40.739 58.3987C39.907 58.7419 39.0155 58.9177 38.1155 58.9159V58.9159Z" fill="white"/>
<path d="M67.7653 21.6318C67.6288 21.752 67.5728 21.8107 67.4458 21.9417L67.1277 22.2598C66.9844 22.4127 66.8383 22.5643 66.695 22.7213C66.5775 22.8482 66.4629 22.9779 66.3482 23.1062C65.3664 24.2304 64.5018 25.4518 63.7679 26.7514C63.6983 26.8783 63.6314 27.0053 63.555 27.1323C63.552 27.1423 63.5478 27.1519 63.5427 27.1609C63.4594 27.3138 63.3802 27.4695 63.301 27.6292C63.2218 27.7889 63.1222 27.9855 63.0403 28.1671C62.9693 28.3159 62.9037 28.4661 62.8328 28.619C62.6321 29.0695 62.445 29.531 62.2798 29.9992C62.2375 30.1043 62.2034 30.2095 62.1679 30.3146C62.1106 30.4702 62.06 30.6259 62.0123 30.7815C61.9768 30.8866 61.9454 30.9917 61.914 31.0969L61.8566 31.288C61.8157 31.4245 61.7733 31.5706 61.7351 31.7139C61.7297 31.7314 61.7256 31.7492 61.7228 31.7672C61.6914 31.8764 61.6628 31.987 61.6368 32.0948C61.6109 32.2027 61.5795 32.3269 61.5508 32.4457C61.5508 32.4771 61.5358 32.5085 61.5317 32.5413C61.4976 32.6778 61.4648 32.8307 61.4361 32.9768C61.4294 32.9996 61.4244 33.0228 61.4211 33.0464C61.3884 33.2089 61.357 33.3713 61.3283 33.5338C61.2996 33.6962 61.2641 33.8901 61.2395 34.0703C61.215 34.2505 61.1849 34.4307 61.1631 34.6164C61.118 34.9536 61.0839 35.299 61.058 35.6417C61.0416 35.8328 61.0293 36.0226 61.0197 36.2137C61.0197 36.3502 61.0075 36.4867 61.0006 36.6233H60.9528C60.7593 34.5738 59.784 32.6775 58.2295 31.328C56.6749 29.9784 54.6605 29.2793 52.6041 29.3755C50.5478 29.4718 48.6074 30.3561 47.1857 31.8449C45.7641 33.3337 44.9702 35.3128 44.9689 37.3714V52.0693C44.9696 53.191 44.6945 54.2956 44.1679 55.2859C43.6413 56.2763 42.8793 57.122 41.949 57.7486C41.949 57.7486 41.949 57.7486 41.949 57.7486C40.8194 58.5094 39.4884 58.9158 38.1264 58.9159C37.2269 58.917 36.336 58.7406 35.5047 58.397C34.6734 58.0533 33.918 57.5491 33.2818 56.9131C32.6456 56.2772 32.1411 55.522 31.7971 54.6909C31.4531 53.8597 31.2764 52.9689 31.2771 52.0693V37.37C31.2818 31.6144 33.5703 26.0959 37.6401 22.0261C41.71 17.9563 47.2285 15.6678 52.9841 15.6631C58.7235 15.6685 63.8785 17.9758 67.7653 21.6318Z" fill="white"/>
<path d="M105.026 37.3701V52.0694C105.027 52.9686 104.851 53.8591 104.507 54.6899C104.163 55.5207 103.658 56.2753 103.022 56.9105C102.713 57.2226 102.373 57.503 102.008 57.7474C101.455 58.1179 100.852 58.4071 100.216 58.6061C99.1916 58.9252 98.1061 58.9988 97.0475 58.8212C95.9889 58.6435 94.9869 58.2195 94.1224 57.5833C93.2578 56.9472 92.5549 56.1167 92.0704 55.1589C91.5859 54.2011 91.3333 53.1428 91.333 52.0694V37.3701C91.3355 35.309 90.5433 33.3263 89.1212 31.8343C87.6991 30.3423 85.7566 29.456 83.6977 29.3596C81.6389 29.2633 79.6221 29.9643 78.0669 31.3169C76.5117 32.6696 75.5377 34.5696 75.3477 36.622H75.2972C75.2972 36.4882 75.2917 36.3544 75.2808 36.2206C75.2808 36.1196 75.2712 36.0145 75.2617 35.9094C75.2521 35.8042 75.2494 35.6841 75.2357 35.5694C75.237 35.5544 75.237 35.5394 75.2357 35.5244C75.2235 35.3496 75.2071 35.1749 75.1852 35.0001C75.1729 34.8636 75.1566 34.7271 75.1374 34.5906C75.1183 34.454 75.0992 34.2861 75.0733 34.1332C75.0446 33.9257 75.0105 33.7236 74.9722 33.5161C74.9436 33.3441 74.9081 33.1721 74.874 33.0001C74.8398 32.8281 74.8002 32.6479 74.7593 32.4731C74.7183 32.2984 74.6787 32.1414 74.6378 31.9762C74.6309 31.9543 74.6282 31.9352 74.6214 31.9134C74.5873 31.7768 74.5518 31.6485 74.5135 31.5188C74.4221 31.1843 74.3197 30.8567 74.2118 30.529C74.1804 30.4362 74.1518 30.3447 74.1163 30.256C73.9197 29.6867 73.7067 29.127 73.4541 28.5836C73.3818 28.4171 73.3053 28.2519 73.2261 28.0867C73.0732 27.759 72.908 27.4341 72.736 27.116C72.65 26.9576 72.5613 26.7979 72.4712 26.6423C72.2841 26.3119 72.0903 25.987 71.8828 25.673C71.6985 25.3835 71.5046 25.0968 71.308 24.817C71.1114 24.5371 70.8984 24.2572 70.68 23.9828C70.6336 23.92 70.5817 23.8559 70.5312 23.7958C70.366 23.5855 70.194 23.3794 70.0192 23.1787C70.0029 23.1596 69.9878 23.1405 69.9687 23.1214C69.85 22.9849 69.7325 22.8483 69.6083 22.72C69.465 22.5644 69.323 22.4115 69.1728 22.2586C69.0704 22.1548 68.9667 22.0456 68.8615 21.9446C68.7332 21.8176 68.6977 21.7562 68.5667 21.6333C72.4548 17.9745 77.5771 15.6714 83.326 15.6714C89.0793 15.6815 94.594 17.9719 98.6616 22.0408C102.729 26.1096 105.018 31.625 105.026 37.3783V37.3701Z" fill="white"/>
<path d="M127.899 58.9144C127 58.9144 126.11 58.7374 125.28 58.3933C124.449 58.0493 123.695 57.5451 123.059 56.9094C122.424 56.2738 121.92 55.5192 121.576 54.6887C121.232 53.8582 121.055 52.9681 121.055 52.0692V37.3686C121.028 35.2618 120.171 33.2507 118.672 31.7706C117.172 30.2906 115.15 29.4607 113.043 29.4607C110.937 29.4607 108.914 30.2906 107.415 31.7706C105.915 33.2507 105.059 35.2618 105.032 37.3686V52.0692C105.044 52.9762 104.877 53.8767 104.539 54.7183C104.2 55.5599 103.698 56.326 103.061 56.9719C102.425 57.6178 101.666 58.1307 100.829 58.4807C99.9922 58.8308 99.0942 59.0111 98.1871 59.0111C97.2801 59.0111 96.3821 58.8308 95.5453 58.4807C94.7085 58.1307 93.9496 57.6178 93.3128 56.9719C92.6759 56.326 92.1738 55.5599 91.8356 54.7183C91.4974 53.8767 91.3298 52.9762 91.3426 52.0692V37.3686C91.3426 25.4038 101.078 15.6616 113.05 15.6616C125.021 15.6616 134.757 25.397 134.757 37.3686V52.0692C134.757 52.9692 134.579 53.8603 134.234 54.6916C133.89 55.5229 133.384 56.2781 132.747 56.9139C132.11 57.5497 131.354 58.0536 130.522 58.3969C129.69 58.7402 128.799 58.916 127.899 58.9144V58.9144Z" fill="white"/>
<path d="M68.1543 22.0044C70.2135 23.9786 71.8527 26.3484 72.9736 28.9717C74.0945 31.5949 74.674 34.4176 74.6773 37.2703C74.6773 37.3044 74.6773 37.3399 74.6773 37.3754V52.0692C74.6769 52.4549 74.644 52.8399 74.579 53.2201C74.534 53.4494 74.4957 53.6215 74.452 53.7771C74.4083 53.9327 74.3496 54.1266 74.2827 54.315C73.8475 55.5045 73.0746 56.5412 72.0588 57.298C71.9239 57.4016 71.783 57.4973 71.637 57.5847C70.596 58.2475 69.387 58.5986 68.1529 58.5963C67.2954 58.5985 66.446 58.4307 65.6537 58.1027C64.8614 57.7746 64.1421 57.2928 63.5371 56.685C62.9284 56.0817 62.4459 55.3631 62.1177 54.5714C61.7896 53.7796 61.6223 52.9304 61.6258 52.0733V37.3699C61.6315 34.5023 62.2122 31.665 63.3335 29.0258C64.4549 26.3866 66.0941 23.999 68.1543 22.0044V22.0044Z" fill="white"/>
<path d="M67.6288 7.38167C67.6304 7.41849 67.6262 7.45535 67.6165 7.49089C67.088 7.54431 66.5765 7.70753 66.1147 7.97008C66.1031 7.95666 66.0931 7.94201 66.0847 7.92639C65.4421 6.79053 64.7964 5.65604 64.1474 4.52291C64.1411 4.51363 64.136 4.50352 64.1324 4.49287C65.206 3.88146 66.4095 3.5338 67.6438 3.47852C67.6512 3.50934 67.6544 3.54103 67.6533 3.57272C67.6438 4.21573 67.6424 4.86012 67.6383 5.5045C67.6342 6.14888 67.6274 6.7564 67.6288 7.38167Z" fill="white"/>
<path d="M71.8964 18.1668L71.6957 18.3334L71.5811 18.4276C70.6145 19.203 69.5032 19.9648 68.3401 21.0529C68.3401 20.8058 68.3523 19.1074 68.3537 19.0829C68.3646 18.4453 68.3646 17.8078 68.3687 17.1716C68.3728 16.5354 68.381 15.8842 68.3796 15.2412C68.3768 15.2062 68.3824 15.1711 68.396 15.1388C68.9247 15.0852 69.4362 14.9215 69.8978 14.6582C69.9114 14.6773 69.921 14.7033 69.9333 14.7251C70.3173 15.3959 70.7 16.0667 71.0814 16.7374C71.3367 17.1852 71.5838 17.6371 71.8445 18.0808C71.8641 18.1081 71.8814 18.1368 71.8964 18.1668V18.1668Z" fill="white"/>
<path d="M71.6248 4.35242C71.6167 4.37838 71.6052 4.40317 71.5906 4.42615C70.9426 5.51832 70.2991 6.61049 69.6602 7.70267C69.6409 7.74019 69.6145 7.77359 69.5824 7.80096C69.1019 7.58581 68.5825 7.4715 68.0561 7.46512C68.0428 7.4209 68.0377 7.37464 68.0411 7.3286C68.0534 6.70333 68.0533 6.07669 68.0574 5.45142L68.0697 3.64661C68.0667 3.58455 68.0699 3.52235 68.0793 3.46094C69.3149 3.47385 70.53 3.77935 71.6248 4.35242V4.35242Z" fill="white"/>
<path d="M67.9687 21.0531L67.8882 20.9903C67.054 20.2203 64.74 18.548 64.415 18.2927C64.4242 18.2638 64.4371 18.2363 64.4533 18.2107C65.104 17.1077 65.7502 16.0018 66.3919 14.8933C66.4048 14.8691 66.4219 14.8474 66.4424 14.8291C66.9243 15.0414 67.4448 15.152 67.9715 15.154C67.9878 15.1868 67.9755 21.0245 67.9687 21.0531Z" fill="white"/>
<path d="M65.7612 8.19105C65.3274 8.50304 64.9633 8.90196 64.6922 9.36241V9.36241C64.6738 9.35414 64.656 9.34456 64.639 9.33374C63.5304 8.68117 62.4191 8.03041 61.3051 7.38148C61.2819 7.3694 61.2607 7.35373 61.2423 7.33506C61.8697 6.26972 62.7391 5.36707 63.7802 4.7002C63.7964 4.71788 63.8102 4.73762 63.8212 4.7589C64.4583 5.88111 65.0927 7.00195 65.7243 8.12143L65.7612 8.19105Z" fill="white"/>
<path d="M74.7688 15.2906C74.1408 16.3563 73.2704 17.259 72.2282 17.9254C72.205 17.8927 72.1899 17.8558 72.1708 17.823C71.8978 17.3507 71.6247 16.8756 71.3613 16.4018C71.0063 15.7752 70.6554 15.1486 70.2964 14.526C70.2763 14.4966 70.2632 14.463 70.2582 14.4277C70.6839 14.1204 71.0417 13.7286 71.3094 13.2769C71.3452 13.2822 71.3793 13.2957 71.409 13.3164C72.5085 13.9663 73.6093 14.6116 74.7115 15.2523C74.7315 15.2636 74.7507 15.2764 74.7688 15.2906V15.2906Z" fill="white"/>
<path d="M66.0615 14.6293C66.0437 14.6594 66.0232 14.699 66.0014 14.7372C65.3643 15.8294 64.7235 16.9261 64.0792 18.0274C64.0683 18.0471 64.055 18.0655 64.0396 18.082C62.9747 17.4564 62.0717 16.5894 61.4033 15.5509C61.4207 15.5364 61.4395 15.5236 61.4593 15.5126C62.5751 14.8819 63.6892 14.2475 64.8014 13.6095C64.8305 13.5908 64.8629 13.5779 64.8969 13.5713C65.2082 14.0003 65.6047 14.3605 66.0615 14.6293Z" fill="white"/>
<path d="M64.6635 13.211C64.6447 13.2301 64.6231 13.2462 64.5993 13.2588C63.4771 13.8909 62.3604 14.5312 61.2423 15.1701C61.2246 15.1799 61.2064 15.1885 61.1877 15.196C60.576 14.1239 60.2279 12.9218 60.1719 11.6888C60.2066 11.6794 60.2426 11.6757 60.2784 11.6779C60.9092 11.6915 61.5413 11.6901 62.1733 11.6942C62.8054 11.6983 63.4485 11.7052 64.0847 11.7038C64.1179 11.7023 64.1511 11.7064 64.1829 11.7161C64.2375 12.2443 64.4006 12.7556 64.6621 13.2178L64.6635 13.211Z" fill="white"/>
<path d="M64.5024 9.73544C64.2827 10.2217 64.1678 10.7487 64.1652 11.2822C64.138 11.2852 64.1105 11.2852 64.0833 11.2822C63.4403 11.2822 62.7973 11.2727 62.1543 11.2686C61.5113 11.2645 60.9024 11.2549 60.2771 11.2604C60.2386 11.2627 60.2001 11.2571 60.1638 11.244C60.1722 10.0107 60.473 8.79705 61.0416 7.70264C61.0635 7.71219 61.088 7.72994 61.1126 7.74359L63.9154 9.38185C64.0956 9.48834 64.2717 9.60302 64.4615 9.69722C64.476 9.70897 64.4897 9.72175 64.5024 9.73544V9.73544Z" fill="white"/>
<path d="M75.85 11.3873C75.8405 12.6198 75.5392 13.8324 74.9708 14.926C74.9412 14.9178 74.9131 14.9049 74.8876 14.8878C73.7899 14.2379 72.6895 13.5922 71.5865 12.9505C71.5577 12.9363 71.5325 12.9158 71.5127 12.8904C71.725 12.4177 71.8392 11.9068 71.8486 11.3887C71.9005 11.3628 71.9587 11.3519 72.0165 11.3573C72.6363 11.3751 73.2548 11.371 73.8759 11.3751C74.4971 11.3791 75.151 11.386 75.7872 11.3846C75.8082 11.3839 75.8292 11.3848 75.85 11.3873V11.3873Z" fill="white"/>
<path d="M75.8433 10.9734C75.821 10.9757 75.7986 10.9757 75.7764 10.9734C75.1265 10.9652 74.4767 10.9624 73.8282 10.9583C73.1797 10.9542 72.5654 10.9488 71.9333 10.9488C71.8986 10.9508 71.8638 10.9461 71.8309 10.9351C71.7926 10.5399 71.6931 10.153 71.536 9.78834C71.553 9.77157 71.5723 9.75731 71.5933 9.74602C72.7292 9.10255 73.8637 8.45771 74.9968 7.8115L75.0228 7.79785C75.5176 8.78647 75.7973 9.86876 75.8433 10.9734V10.9734Z" fill="white"/>
<path d="M72.6295 4.97471C72.6159 4.99518 72.6022 5.01839 72.5859 5.04024C71.845 6.0778 71.1023 7.11537 70.3578 8.15293C70.3442 8.17068 70.3291 8.2089 70.3087 8.23348L70.2732 8.2089C70.1809 8.1408 70.0852 8.07746 69.9865 8.01914C69.9938 7.98517 70.0072 7.95279 70.0261 7.92357C70.6695 6.82776 71.3098 5.73377 71.9469 4.64159C71.9616 4.61492 71.9795 4.59016 72.0002 4.56787C72.22 4.69074 72.4248 4.82863 72.6295 4.97471Z" fill="#29C76F"/>
<path d="M74.8221 7.43074C74.7976 7.44849 74.7634 7.45941 74.7375 7.47443L72.2705 8.87378C71.9852 9.03624 71.6958 9.19324 71.4159 9.36526C71.3925 9.38096 71.3659 9.39122 71.3381 9.39529C71.2908 9.31247 71.2403 9.23192 71.1866 9.15365C71.2027 9.13171 71.2226 9.11277 71.2453 9.09768C72.2883 8.35227 73.3277 7.60322 74.3634 6.85053C74.3841 6.83444 74.4066 6.8207 74.4303 6.80957C74.5696 7.01071 74.7002 7.21777 74.8221 7.43074Z" fill="#29C76F"/>
<path d="M73.2726 5.50186C73.2129 5.59131 73.1412 5.67215 73.0596 5.74214C72.2623 6.63226 71.4645 7.52193 70.6664 8.41114C70.6482 8.43756 70.6261 8.46104 70.6008 8.48076C70.5955 8.47421 70.589 8.46866 70.5817 8.46438C70.5094 8.39749 70.4343 8.32786 70.3578 8.27462C70.3728 8.24868 70.4083 8.2282 70.4247 8.20363L72.5818 5.18786C72.6167 5.13041 72.6595 5.07805 72.7087 5.03223C72.9026 5.18786 73.0923 5.33667 73.2726 5.50186Z" fill="#29C76F"/>
<path d="M73.8651 6.09826C73.8504 6.10576 73.8367 6.11492 73.8241 6.12557C72.8685 6.98292 71.9128 7.84073 70.9571 8.699C70.9339 8.72377 70.9066 8.74453 70.8766 8.76043V8.76043C70.8138 8.68944 70.7483 8.62118 70.68 8.55565C70.6894 8.52289 70.7073 8.49321 70.7319 8.46964C71.0431 8.13653 71.3408 7.78703 71.6439 7.44982C72.1763 6.85596 72.7114 6.26345 73.2398 5.66549C73.2691 5.62719 73.3058 5.59516 73.3476 5.57129C73.5279 5.73375 73.7012 5.91396 73.8651 6.09826Z" fill="#29C76F"/>
<path d="M74.3743 6.73453C74.3586 6.75186 74.3407 6.76701 74.321 6.77959C73.9006 7.07857 73.4869 7.38574 73.0678 7.68746C72.4653 8.12159 71.8614 8.55528 71.2561 8.98851C71.2152 9.01854 71.1715 9.04721 71.1305 9.07588C71.0718 8.99397 71.009 8.91478 70.9435 8.83833C70.9652 8.81881 70.988 8.80058 71.0118 8.78372L73.3558 6.6731C73.5265 6.52156 73.6999 6.37139 73.8637 6.21302C73.882 6.19521 73.9026 6.18004 73.9251 6.16797C74.0817 6.34727 74.2314 6.53612 74.3743 6.73453Z" fill="#29C76F"/>
<path d="M70.0042 9.66064C69.9182 9.73437 69.7461 9.91184 69.6929 9.9569C69.1536 10.4224 68.6116 10.8852 68.0738 11.3508C68.0137 11.4027 67.9755 11.4204 67.914 11.3508C67.641 11.0545 67.357 10.7624 67.1072 10.5003C67.3161 10.6054 67.5632 10.7515 67.8075 10.8975C67.8481 10.9309 67.899 10.9492 67.9516 10.9492C68.0041 10.9492 68.055 10.9309 68.0956 10.8975C68.6144 10.5467 69.14 10.204 69.6656 9.86133C69.7134 9.82993 69.9318 9.69341 70.0042 9.66064Z" fill="white"/>
</svg>
