<svg width="120" height="120" viewBox="0 0 120 120" fill="none" xmlns="http://www.w3.org/2000/svg">
<path d="M57.6672 31.1363C57.6803 31.3736 57.6548 31.6115 57.5916 31.8407C54.1845 32.2053 50.8915 33.2792 47.9244 34.9931C47.8518 34.9061 47.7875 34.8125 47.7324 34.7135C43.5444 27.4151 39.336 20.1287 35.1072 12.8543C35.0686 12.7947 35.0376 12.7307 35.0148 12.6635C41.9071 8.67698 49.6482 6.386 57.6 5.97949C57.655 6.17453 57.6789 6.37701 57.6708 6.57949C57.6324 10.7303 57.6516 14.8811 57.6516 19.0319C57.6528 23.0675 57.6336 27.1019 57.6672 31.1363Z" fill="white"/>
<path d="M45.1871 35.728C45.3203 35.9249 45.4205 36.1422 45.4839 36.3713C42.7473 38.4335 40.4727 41.0456 38.8065 44.0397C38.6995 44.0023 38.5963 43.955 38.4981 43.8983C31.1572 39.7854 23.8049 35.6931 16.4413 31.6217C16.3776 31.5904 16.3181 31.5513 16.2641 31.5054C20.1319 24.5459 25.5989 18.6055 32.2139 14.1742C32.3613 14.3134 32.4857 14.4749 32.5827 14.6528C34.6808 18.2345 36.8283 21.7867 38.9593 25.3487C41.0322 28.8112 43.087 32.2832 45.1871 35.728Z" fill="white"/>
<path d="M85.6368 100.466C78.852 106.21 70.9704 112.501 62.8368 119.233C62.814 119.113 62.8368 106.691 62.8368 106.513C62.8836 102.404 62.8548 98.2956 62.8548 94.1868C62.8548 90.0408 62.8788 85.8948 62.8368 81.7488C62.8212 81.5227 62.8577 81.2961 62.9436 81.0864C66.3559 80.7199 69.6539 79.6446 72.6264 77.9292C72.714 78.0492 72.7752 78.2136 72.8592 78.3528C75.3592 82.6584 77.8544 86.9664 80.3448 91.2768C82.0044 94.1496 83.6232 97.0512 85.3212 99.9C85.4367 100.083 85.5421 100.272 85.6368 100.466Z" fill="white"/>
<path d="M83.2895 11.4406C83.2406 11.6098 83.1683 11.7714 83.0747 11.9206C78.9475 18.9862 74.8467 26.0662 70.7723 33.1606C70.6498 33.4043 70.4801 33.6213 70.2731 33.799C67.1681 32.4311 63.8153 31.7155 60.4224 31.6966C60.3407 31.4167 60.3078 31.1249 60.3252 30.8338C60.372 26.8042 60.348 22.7698 60.348 18.7354V7.10381C60.348 6.53981 60.348 6.16181 60.4092 5.90381C68.3662 5.91626 76.2071 7.81368 83.2895 11.4406V11.4406Z" fill="white"/>
<path d="M60.4392 119.233C53.7888 114.106 43.6392 106.436 37.3692 101.546C37.4262 101.361 37.5069 101.184 37.6092 101.02C41.7612 93.8843 45.8812 86.7299 49.9692 79.5563C50.0508 79.3999 50.1597 79.2593 50.2908 79.1411C53.4159 80.5196 56.7932 81.2342 60.2088 81.2399C60.2688 81.4223 60.48 119.083 60.4392 119.233Z" fill="white"/>
<path d="M104.026 81.81C100.019 88.7036 94.4466 94.5575 87.7584 98.898C87.6084 98.688 87.5064 98.4504 87.3852 98.2404C85.608 95.2092 83.8584 92.1588 82.1052 89.1204C79.7964 85.1004 77.5068 81.0708 75.1608 77.0784C75.0338 76.8888 74.9494 76.6738 74.9136 76.4484C77.642 74.4459 79.9321 71.9067 81.6432 68.9868C81.8745 69.0173 82.0953 69.102 82.2876 69.234C89.39 73.3756 96.51 77.4872 103.648 81.5688C103.78 81.6385 103.907 81.7192 104.026 81.81V81.81Z" fill="white"/>
<path d="M47.8728 77.91C47.7648 78.1104 47.6328 78.3624 47.4948 78.6096C43.4092 85.704 39.3252 92.7996 35.2428 99.8964C35.1734 100.026 35.0888 100.147 34.9908 100.256C28.0993 96.2693 22.2424 90.7169 17.8932 84.048C18.0025 83.9558 18.1211 83.8754 18.2472 83.808C25.416 79.696 32.5688 75.5568 39.7056 71.3904C39.8939 71.2725 40.1028 71.191 40.3212 71.1504C42.3486 73.8973 44.919 76.1981 47.8728 77.91V77.91Z" fill="white"/>
<path d="M38.8008 68.8296C38.68 68.9521 38.5417 69.0561 38.3904 69.138C31.1904 73.2644 24.0052 77.4184 16.8348 81.5999C16.7242 81.665 16.6086 81.7211 16.4892 81.768C12.4999 74.8849 10.2028 67.1527 9.7872 59.208C10.0107 59.1472 10.2423 59.1221 10.4736 59.1336C14.544 59.1948 18.6156 59.1576 22.6872 59.1576C26.8008 59.1576 30.9096 59.1756 35.0184 59.1432C35.2324 59.132 35.4467 59.1556 35.6532 59.2128C35.8145 60.7034 36.1142 62.1757 36.5484 63.6108C37.0951 65.4315 37.851 67.1828 38.8008 68.8296V68.8296Z" fill="white"/>
<path d="M37.6164 46.44C36.2225 49.5811 35.5015 52.9791 35.4996 56.4156C35.327 56.4463 35.1516 56.4588 34.9764 56.4528C30.8304 56.4348 26.6844 56.4444 22.5384 56.4444C18.5088 56.4444 14.4744 56.4108 10.4448 56.4672C10.1971 56.483 9.94858 56.4512 9.7128 56.3736C9.71393 48.4233 11.5999 40.5866 15.216 33.5063C15.3612 33.5711 15.5148 33.6779 15.678 33.7715L33.8112 44.238C34.9764 44.9088 36.12 45.6408 37.3188 46.248C37.4246 46.301 37.5244 46.3654 37.6164 46.44Z" fill="white"/>
<path d="M110.825 56.6017C110.815 64.5427 108.927 72.3688 105.313 79.44C105.121 79.3867 104.937 79.3059 104.767 79.2C97.668 75.056 90.5508 70.9417 83.4156 66.8569C83.2312 66.7638 83.0678 66.6339 82.9356 66.4753C84.2869 63.4159 85.0026 60.1139 85.0392 56.7697C85.2792 56.6149 85.6308 56.5549 86.1192 56.5645C90.1116 56.6485 94.104 56.5969 98.1012 56.5969C102.21 56.5969 106.319 56.6149 110.428 56.5777C110.56 56.5775 110.693 56.5855 110.825 56.6017Z" fill="white"/>
<path d="M110.76 53.9385C110.616 53.9609 110.471 53.9702 110.326 53.9661C106.142 53.9421 101.954 53.9517 97.7664 53.9517C93.6948 53.9517 89.628 53.9385 85.5564 53.9709C85.3335 53.9841 85.1102 53.9539 84.8988 53.8821C84.6357 51.3358 83.9765 48.8462 82.9452 46.5033C83.0557 46.3947 83.1809 46.3022 83.3172 46.2285C90.6076 42.0357 97.8928 37.8321 105.173 33.6177C105.224 33.5867 105.277 33.5587 105.331 33.5337C108.565 39.8741 110.416 46.8292 110.76 53.9385Z" fill="white"/>
<path d="M89.7684 15.4054C89.6844 15.541 89.5956 15.6898 89.4924 15.8302C84.7548 22.555 80.0104 29.275 75.2592 35.9902C75.1752 36.1102 75.0768 36.3502 74.946 36.517C74.8716 36.4618 74.7972 36.4054 74.7228 36.3538C74.1228 35.9254 73.5 35.5198 72.8664 35.1418C72.9097 34.9229 72.9935 34.7141 73.1136 34.5262C77.2456 27.4606 81.342 20.3762 85.4028 13.273C85.4952 13.0989 85.6097 12.9376 85.7436 12.793C87.1284 13.5958 88.4712 14.473 89.7684 15.4054Z" fill="#29C76F"/>
<path d="M104.04 31.1408C103.877 31.2608 103.662 31.328 103.489 31.43C98.214 34.4852 92.934 37.5324 87.6492 40.5716C85.812 41.63 83.9556 42.656 82.1556 43.7756C82.007 43.8794 81.8359 43.9464 81.6564 43.9712C81.3444 43.4396 81.0168 42.9224 80.6676 42.4184C80.7743 42.2779 80.9036 42.1562 81.0504 42.0584C87.7368 37.2128 94.4048 32.3392 101.054 27.4376C101.187 27.3349 101.329 27.2461 101.479 27.1724C102.386 28.4508 103.24 29.7736 104.04 31.1408Z" fill="#29C76F"/>
<path d="M93.96 18.7775C93.7404 19.3043 93.0456 19.8263 92.598 20.3375C87.5004 26.1103 82.3964 31.8795 77.286 37.6451C77.166 37.7855 77.058 37.9811 76.8708 38.0927C76.8384 38.0603 76.806 38.0315 76.7736 38.0039C76.302 37.5803 75.8136 37.1783 75.318 36.7919C75.4164 36.6287 75.6396 36.4931 75.7476 36.3347C80.3276 29.8219 84.9108 23.3103 89.4972 16.7999C89.8572 16.2815 90.09 15.9503 90.3048 15.7871C91.5688 16.7287 92.7872 17.7255 93.96 18.7775Z" fill="#29C76F"/>
<path d="M97.8 22.5969C97.7079 22.6461 97.6217 22.7057 97.5432 22.7745C91.42 28.3425 85.3 33.9125 79.1832 39.4845C79.0352 39.6436 78.8621 39.7774 78.6708 39.8805L78.6612 39.8721C78.2508 39.4201 77.8248 38.9845 77.3832 38.5653C77.4438 38.3525 77.5597 38.1596 77.7192 38.0061C79.7052 35.8461 81.6084 33.5985 83.5536 31.3977C86.958 27.5409 90.3816 23.7021 93.7536 19.8213C93.9434 19.5777 94.1775 19.372 94.4436 19.2153C95.616 20.2881 96.7404 21.4173 97.8 22.5969Z" fill="#29C76F"/>
<path d="M101.116 26.6738C101.014 26.7863 100.9 26.8866 100.775 26.9726C98.0784 28.9166 95.4204 30.9086 92.7348 32.8718C88.8684 35.6974 84.9944 38.5174 81.1128 41.3318C80.8476 41.5274 80.5716 41.7146 80.3016 41.9006C80.292 41.8922 80.2872 41.8778 80.2776 41.8682C79.896 41.3462 79.4904 40.8374 79.0656 40.343C79.1856 40.2086 79.3824 40.103 79.5036 39.989C84.5044 35.4178 89.5104 30.8518 94.5216 26.291C95.6124 25.3022 96.7224 24.3326 97.7724 23.3066C97.887 23.1879 98.0189 23.0872 98.1636 23.0078C99.2068 24.183 100.191 25.405 101.116 26.6738Z" fill="#29C76F"/>
<path d="M73.08 45.7197C72.5268 46.1997 71.424 47.3493 71.088 47.6397C67.632 50.6661 64.158 53.6697 60.7068 56.6961C60.324 57.0321 60.0816 57.1485 59.676 56.7249C57.8844 54.8313 56.0616 52.9605 54.4428 51.2817C55.7916 51.9465 57.3948 52.8765 58.9764 53.8101C59.6568 54.2109 60.1284 54.2625 60.828 53.7765C64.158 51.4869 67.5348 49.2621 70.908 47.0241C71.2056 46.8213 72.6132 45.9441 73.08 45.7197Z" fill="white"/>
</svg>
