<svg id="LOGO_MIM" data-name="LOGO MIM" xmlns="http://www.w3.org/2000/svg" viewBox="0 0 1000 468.79"><defs><style>.cls-1{fill:#040769;}.cls-2{fill:#0093df;}.cls-3{fill:#070a6a;}.cls-4{fill:#29c76f;}</style></defs><path class="cls-1" d="M279.19,431.55a50.14,50.14,0,0,1-50.14-50.14V273.73a58.68,58.68,0,0,0-117.36,0V381.41a50.14,50.14,0,1,1-100.27,0V273.73c0-87.64,71.3-159,159-159s159,71.31,159,159V381.41A50.13,50.13,0,0,1,279.19,431.55Z"/><path class="cls-1" d="M496.37,158.45c-1,.88-1.41,1.31-2.34,2.27l-2.33,2.33c-1.05,1.12-2.12,2.23-3.17,3.38-.86.93-1.7,1.88-2.54,2.82a160.76,160.76,0,0,0-18.9,26.7c-.51.93-1,1.86-1.56,2.79a1,1,0,0,1-.09.21c-.61,1.12-1.19,2.26-1.77,3.43s-1.31,2.61-1.91,3.94c-.52,1.09-1,2.19-1.52,3.31-1.47,3.3-2.84,6.68-4.05,10.11-.31.77-.56,1.54-.82,2.31-.42,1.14-.79,2.28-1.14,3.42-.26.77-.49,1.54-.72,2.31l-.42,1.4c-.3,1-.61,2.07-.89,3.12a2.74,2.74,0,0,0-.09.39c-.23.8-.44,1.61-.63,2.4s-.42,1.7-.63,2.57c0,.23-.11.46-.14.7-.25,1-.49,2.12-.7,3.19a3.51,3.51,0,0,0-.11.51c-.24,1.19-.47,2.38-.68,3.57s-.47,2.61-.65,3.93-.4,2.64-.56,4c-.33,2.47-.58,5-.77,7.51-.12,1.4-.21,2.79-.28,4.19,0,1-.09,2-.14,3h-.35a58.67,58.67,0,0,0-117.08,5.48V381.4A50.12,50.12,0,0,1,307.27,423s0,0,0,0a50.13,50.13,0,0,1-28,8.55A50.11,50.11,0,0,1,229.1,381.4V273.73a159.13,159.13,0,0,1,159-159C430.14,114.77,467.9,131.67,496.37,158.45Z"/><path class="cls-2" d="M769.3,273.73V381.4a50,50,0,0,1-14.68,35.46,48.22,48.22,0,0,1-7.43,6.13,50.89,50.89,0,0,1-13.12,6.29A50.16,50.16,0,0,1,669,381.4V273.73a58.67,58.67,0,0,0-117.09-5.48h-.37q0-1.47-.12-2.94c0-.74-.07-1.51-.14-2.28s-.09-1.65-.19-2.49a1.94,1.94,0,0,0,0-.33c-.09-1.28-.21-2.56-.37-3.84-.09-1-.21-2-.35-3s-.28-2.23-.47-3.35c-.21-1.52-.46-3-.74-4.52-.21-1.26-.47-2.52-.72-3.78s-.54-2.58-.84-3.86-.59-2.43-.89-3.64c-.05-.16-.07-.3-.12-.46-.25-1-.51-1.94-.79-2.89-.67-2.45-1.42-4.85-2.21-7.25-.23-.68-.44-1.35-.7-2-1.44-4.17-3-8.27-4.85-12.25-.53-1.22-1.09-2.43-1.67-3.64-1.12-2.4-2.33-4.78-3.59-7.11-.63-1.16-1.28-2.33-1.94-3.47-1.37-2.42-2.79-4.8-4.31-7.1-1.35-2.12-2.77-4.22-4.21-6.27s-3-4.1-4.6-6.11c-.34-.46-.72-.93-1.09-1.37-1.21-1.54-2.47-3.05-3.75-4.52-.12-.14-.23-.28-.37-.42-.87-1-1.73-2-2.64-2.94-1.05-1.14-2.09-2.26-3.19-3.38-.75-.76-1.51-1.56-2.28-2.3-.94-.93-1.2-1.38-2.16-2.28,28.48-26.8,66-43.67,108.11-43.67a159.23,159.23,0,0,1,158.95,159Z"/><path class="cls-2" d="M936.84,431.54a50.13,50.13,0,0,1-50.13-50.14V273.72a58.69,58.69,0,0,0-117.37,0V381.4a50.14,50.14,0,1,1-100.27,0V273.72c0-87.64,71.31-159,159-159s159,71.31,159,159V381.4A50.14,50.14,0,0,1,936.84,431.54Z"/><path class="cls-1" d="M499.22,161.18A155.16,155.16,0,0,1,547,273c0,.25,0,.51,0,.77V381.4a50.37,50.37,0,0,1-.72,8.43c-.33,1.68-.61,2.94-.93,4.08s-.75,2.56-1.24,3.94a47.68,47.68,0,0,1-16.29,21.85,32.23,32.23,0,0,1-3.09,2.1,47.35,47.35,0,0,1-25.52,7.41,47.53,47.53,0,0,1-33.81-14,47.29,47.29,0,0,1-14-33.78V273.73A157.09,157.09,0,0,1,499.22,161.18Z"/><path class="cls-3" d="M495.37,54.07a2.59,2.59,0,0,1-.09.8,27.94,27.94,0,0,0-11,3.51,1.77,1.77,0,0,1-.22-.32Q477,45.58,469.87,33.13a.9.9,0,0,1-.11-.22,57.14,57.14,0,0,1,25.72-7.43,2.56,2.56,0,0,1,.07.69c-.07,4.71-.08,9.43-.11,14.15S495.36,49.49,495.37,54.07Z"/><path class="cls-3" d="M526.63,133.07l-1.47,1.22-.84.69c-7.08,5.68-15.22,11.26-23.74,19.23,0-1.81.09-14.25.1-14.43.08-4.67.08-9.34.11-14s.09-9.43.08-14.14a1.59,1.59,0,0,1,.12-.75,27.88,27.88,0,0,0,11-3.52c.1.14.17.33.26.49q4.22,7.37,8.41,14.74c1.87,3.28,3.68,6.59,5.59,9.84A4.63,4.63,0,0,1,526.63,133.07Z"/><path class="cls-3" d="M524.64,31.88a2.28,2.28,0,0,1-.25.54q-7.12,12-14.14,24a2.37,2.37,0,0,1-.57.72,28.19,28.19,0,0,0-11.18-2.46,2.78,2.78,0,0,1-.11-1c.09-4.58.09-9.17.12-13.75l.09-13.22a6.8,6.8,0,0,1,.07-1.36A57.29,57.29,0,0,1,524.64,31.88Z"/><path class="cls-3" d="M497.86,154.21l-.59-.46h0l0,0c-6.11-5.64-23.06-17.89-25.44-19.76a2.58,2.58,0,0,1,.28-.6q7.15-12.12,14.2-24.3a1.71,1.71,0,0,1,.37-.47A28.05,28.05,0,0,0,497.88,111C498,111.24,497.91,154,497.86,154.21Z"/><path class="cls-3" d="M481.69,60a28.18,28.18,0,0,0-7.83,8.58h0a3.1,3.1,0,0,1-.39-.21q-12.18-7.17-24.42-14.3a1.83,1.83,0,0,1-.46-.34,57.68,57.68,0,0,1,18.59-19.3,2,2,0,0,1,.3.43q7,12.33,13.94,24.63Z"/><path class="cls-3" d="M547.67,112a57.64,57.64,0,0,1-18.61,19.3c-.17-.24-.28-.51-.42-.75-2-3.46-4-6.94-5.93-10.41-2.6-4.59-5.17-9.18-7.8-13.74a1.7,1.7,0,0,1-.28-.72,28,28,0,0,0,7.7-8.43,1.72,1.72,0,0,1,.73.29q12.08,7.14,24.19,14.18A3.38,3.38,0,0,1,547.67,112Z"/><path class="cls-3" d="M483.89,107.16c-.13.22-.28.51-.44.79q-7,12-14.08,24.1a2,2,0,0,1-.29.4,57.74,57.74,0,0,1-19.31-18.54,2.61,2.61,0,0,1,.41-.28q12.26-6.93,24.48-13.94a2,2,0,0,1,.7-.28A28.23,28.23,0,0,0,483.89,107.16Z"/><path class="cls-3" d="M473.65,96.77a1.91,1.91,0,0,1-.47.35c-8.22,4.63-16.4,9.32-24.59,14a3.52,3.52,0,0,1-.4.19,57.06,57.06,0,0,1-7.44-25.69,2.42,2.42,0,0,1,.78-.08c4.62.1,9.25.09,13.88.12s9.34.08,14,.07a2.14,2.14,0,0,1,.72.09,28.22,28.22,0,0,0,3.51,11Z"/><path class="cls-3" d="M472.47,71.31A27.84,27.84,0,0,0,470,82.64a2.76,2.76,0,0,1-.6,0c-4.71,0-9.42-.07-14.13-.1s-9.17-.1-13.75-.06a2.08,2.08,0,0,1-.83-.12,57.11,57.11,0,0,1,6.43-25.94c.16.07.34.2.52.3l20.53,12c1.32.78,2.61,1.62,4,2.31A2.89,2.89,0,0,1,472.47,71.31Z"/><path class="cls-3" d="M555.59,83.41a57.16,57.16,0,0,1-6.44,25.92,2.1,2.1,0,0,1-.61-.28q-12.06-7.14-24.18-14.19a1.56,1.56,0,0,1-.54-.44,28.09,28.09,0,0,0,2.46-11,2.28,2.28,0,0,1,1.23-.23c4.54.13,9.07.1,13.62.13s9.34.08,14,.07A3,3,0,0,1,555.59,83.41Z"/><path class="cls-3" d="M555.54,80.38a2.38,2.38,0,0,1-.49,0c-4.76-.06-9.52-.08-14.27-.11s-9.25-.07-13.88-.07a2,2,0,0,1-.75-.1,28.08,28.08,0,0,0-2.16-8.4,1.83,1.83,0,0,1,.42-.31q12.48-7.07,24.93-14.17l.19-.1A57.29,57.29,0,0,1,555.54,80.38Z"/><path class="cls-4" d="M532,36.44c-.1.15-.2.32-.32.48q-8.14,11.4-16.32,22.8c-.1.13-.21.41-.36.59l-.26-.18a24.61,24.61,0,0,0-2.1-1.39,2.12,2.12,0,0,1,.29-.7Q520,46,527,34a2.71,2.71,0,0,1,.39-.54C529,34.36,530.5,35.37,532,36.44Z"/><path class="cls-4" d="M548.06,54.43c-.18.13-.43.21-.62.32L529.37,65c-2.09,1.19-4.21,2.34-6.26,3.6a1.38,1.38,0,0,1-.57.22q-.52-.91-1.11-1.77a1.71,1.71,0,0,1,.43-.41q11.46-8.19,22.84-16.46a2.59,2.59,0,0,1,.49-.3Q546.72,52.09,548.06,54.43Z"/><path class="cls-4" d="M536.71,40.3a8.62,8.62,0,0,1-1.56,1.76q-8.76,9.78-17.53,19.55a2.3,2.3,0,0,1-.48.51A.52.52,0,0,0,517,62c-.53-.49-1.08-1-1.64-1.39.11-.19.37-.34.49-.52L531.65,38a5.38,5.38,0,0,1,.93-1.14C534,38,535.39,39.09,536.71,40.3Z"/><path class="cls-4" d="M541.05,44.67a1.57,1.57,0,0,0-.3.2q-10.5,9.42-21,18.85a2.26,2.26,0,0,1-.59.45h0q-.69-.78-1.44-1.5a1.41,1.41,0,0,1,.38-.63c2.28-2.44,4.46-5,6.68-7.47,3.9-4.35,7.82-8.69,11.69-13.07a2.64,2.64,0,0,1,.79-.69C538.58,42,539.85,43.32,541.05,44.67Z"/><path class="cls-4" d="M544.78,49.33a1.92,1.92,0,0,1-.39.33c-3.08,2.19-6.11,4.44-9.18,6.65q-6.62,4.77-13.27,9.53c-.3.22-.62.43-.92.64l0,0c-.43-.6-.89-1.18-1.37-1.74a5.47,5.47,0,0,1,.5-.4l17.17-15.46c1.25-1.11,2.52-2.21,3.72-3.37a2,2,0,0,1,.45-.33Q543.21,47.15,544.78,49.33Z"/><path class="cls-3" d="M512.77,70.76c-.63.54-1.89,1.84-2.28,2.17-3.95,3.41-7.92,6.8-11.86,10.21-.44.38-.72.51-1.17,0-2-2.17-4.08-4.31-5.91-6.23,1.53.77,3.34,1.84,5.13,2.91a1.66,1.66,0,0,0,2.11,0c3.8-2.57,7.65-5.08,11.5-7.59C510.64,72,512.24,71,512.77,70.76Z"/></svg>