<svg width="1440" height="601" viewBox="0 0 1440 601" fill="none" xmlns="http://www.w3.org/2000/svg">
<path fill-rule="evenodd" clip-rule="evenodd" d="M60.5 0C60.5 -0.276142 60.2761 -0.5 60 -0.5C59.7239 -0.5 59.5 -0.276142 59.5 0V59.5H0C-0.276142 59.5 -0.5 59.7239 -0.5 60C-0.5 60.2761 -0.276142 60.5 0 60.5H59.5V119.5H0C-0.276142 119.5 -0.5 119.724 -0.5 120C-0.5 120.276 -0.276142 120.5 0 120.5H59.5V179.5H0C-0.276142 179.5 -0.5 179.724 -0.5 180C-0.5 180.276 -0.276142 180.5 0 180.5H59.5V239.5H0C-0.276142 239.5 -0.5 239.724 -0.5 240C-0.5 240.276 -0.276142 240.5 0 240.5H59.5V299.5H0C-0.276142 299.5 -0.5 299.724 -0.5 300C-0.5 300.276 -0.276142 300.5 0 300.5H59.5V359.5H0C-0.276142 359.5 -0.5 359.724 -0.5 360C-0.5 360.276 -0.276142 360.5 0 360.5H59.5V419.5H0C-0.276142 419.5 -0.5 419.724 -0.5 420C-0.5 420.276 -0.276142 420.5 0 420.5H59.5V479.5H0C-0.276142 479.5 -0.5 479.724 -0.5 480C-0.5 480.276 -0.276142 480.5 0 480.5H59.5V539.5H0C-0.276142 539.5 -0.5 539.724 -0.5 540C-0.5 540.276 -0.276142 540.5 0 540.5H59.5V600C59.5 600.276 59.7239 600.5 60 600.5C60.2761 600.5 60.5 600.276 60.5 600V540.5H119.5V600C119.5 600.276 119.724 600.5 120 600.5C120.276 600.5 120.5 600.276 120.5 600V540.5H179.5V600C179.5 600.276 179.724 600.5 180 600.5C180.276 600.5 180.5 600.276 180.5 600V540.5H239.5V600C239.5 600.276 239.724 600.5 240 600.5C240.276 600.5 240.5 600.276 240.5 600V540.5H299.5V600C299.5 600.276 299.724 600.5 300 600.5C300.276 600.5 300.5 600.276 300.5 600V540.5H359.5V600C359.5 600.276 359.724 600.5 360 600.5C360.276 600.5 360.5 600.276 360.5 600V540.5H419.5V600C419.5 600.276 419.724 600.5 420 600.5C420.276 600.5 420.5 600.276 420.5 600V540.5H479.5V600C479.5 600.276 479.724 600.5 480 600.5C480.276 600.5 480.5 600.276 480.5 600V540.5H539.5V600C539.5 600.276 539.724 600.5 540 600.5C540.276 600.5 540.5 600.276 540.5 600V540.5H599.5V600C599.5 600.276 599.724 600.5 600 600.5C600.276 600.5 600.5 600.276 600.5 600V540.5H659.5V600C659.5 600.276 659.724 600.5 660 600.5C660.276 600.5 660.5 600.276 660.5 600V540.5H719.5V600C719.5 600.276 719.724 600.5 720 600.5C720.276 600.5 720.5 600.276 720.5 600V540.5H779.5V600C779.5 600.276 779.724 600.5 780 600.5C780.276 600.5 780.5 600.276 780.5 600V540.5H839.5V600C839.5 600.276 839.724 600.5 840 600.5C840.276 600.5 840.5 600.276 840.5 600V540.5H899.5V600C899.5 600.276 899.724 600.5 900 600.5C900.276 600.5 900.5 600.276 900.5 600V540.5H959.5V600C959.5 600.276 959.724 600.5 960 600.5C960.276 600.5 960.5 600.276 960.5 600V540.5H1019.5V600C1019.5 600.276 1019.72 600.5 1020 600.5C1020.28 600.5 1020.5 600.276 1020.5 600V540.5H1079.5V600C1079.5 600.276 1079.72 600.5 1080 600.5C1080.28 600.5 1080.5 600.276 1080.5 600V540.5H1139.5V600C1139.5 600.276 1139.72 600.5 1140 600.5C1140.28 600.5 1140.5 600.276 1140.5 600V540.5H1199.5V600C1199.5 600.276 1199.72 600.5 1200 600.5C1200.28 600.5 1200.5 600.276 1200.5 600V540.5H1259.5V600C1259.5 600.276 1259.72 600.5 1260 600.5C1260.28 600.5 1260.5 600.276 1260.5 600V540.5H1319.5V600C1319.5 600.276 1319.72 600.5 1320 600.5C1320.28 600.5 1320.5 600.276 1320.5 600V540.5H1379.5V600C1379.5 600.276 1379.72 600.5 1380 600.5C1380.28 600.5 1380.5 600.276 1380.5 600V540.5H1440C1440.28 540.5 1440.5 540.276 1440.5 540C1440.5 539.724 1440.28 539.5 1440 539.5H1380.5V480.5H1440C1440.28 480.5 1440.5 480.276 1440.5 480C1440.5 479.724 1440.28 479.5 1440 479.5H1380.5V420.5H1440C1440.28 420.5 1440.5 420.276 1440.5 420C1440.5 419.724 1440.28 419.5 1440 419.5H1380.5V360.5H1440C1440.28 360.5 1440.5 360.276 1440.5 360C1440.5 359.724 1440.28 359.5 1440 359.5H1380.5V300.5H1440C1440.28 300.5 1440.5 300.276 1440.5 300C1440.5 299.724 1440.28 299.5 1440 299.5H1380.5V240.5H1440C1440.28 240.5 1440.5 240.276 1440.5 240C1440.5 239.724 1440.28 239.5 1440 239.5H1380.5V180.5H1440C1440.28 180.5 1440.5 180.276 1440.5 180C1440.5 179.724 1440.28 179.5 1440 179.5H1380.5V120.5H1440C1440.28 120.5 1440.5 120.276 1440.5 120C1440.5 119.724 1440.28 119.5 1440 119.5H1380.5V60.5H1440C1440.28 60.5 1440.5 60.2761 1440.5 60C1440.5 59.7239 1440.28 59.5 1440 59.5H1380.5V0C1380.5 -0.276142 1380.28 -0.5 1380 -0.5C1379.72 -0.5 1379.5 -0.276142 1379.5 0V59.5H1320.5V0C1320.5 -0.276142 1320.28 -0.5 1320 -0.5C1319.72 -0.5 1319.5 -0.276142 1319.5 0V59.5H1260.5V0C1260.5 -0.276142 1260.28 -0.5 1260 -0.5C1259.72 -0.5 1259.5 -0.276142 1259.5 0V59.5H1200.5V0C1200.5 -0.276142 1200.28 -0.5 1200 -0.5C1199.72 -0.5 1199.5 -0.276142 1199.5 0V59.5H1140.5V0C1140.5 -0.276142 1140.28 -0.5 1140 -0.5C1139.72 -0.5 1139.5 -0.276142 1139.5 0V59.5H1080.5V0C1080.5 -0.276142 1080.28 -0.5 1080 -0.5C1079.72 -0.5 1079.5 -0.276142 1079.5 0V59.5H1020.5V0C1020.5 -0.276142 1020.28 -0.5 1020 -0.5C1019.72 -0.5 1019.5 -0.276142 1019.5 0V59.5H960.5V0C960.5 -0.276142 960.276 -0.5 960 -0.5C959.724 -0.5 959.5 -0.276142 959.5 0V59.5H900.5V0C900.5 -0.276142 900.276 -0.5 900 -0.5C899.724 -0.5 899.5 -0.276142 899.5 0V59.5H840.5V0C840.5 -0.276142 840.276 -0.5 840 -0.5C839.724 -0.5 839.5 -0.276142 839.5 0V59.5H780.5V0C780.5 -0.276142 780.276 -0.5 780 -0.5C779.724 -0.5 779.5 -0.276142 779.5 0V59.5H720.5V0C720.5 -0.276142 720.276 -0.5 720 -0.5C719.724 -0.5 719.5 -0.276142 719.5 0V59.5H660.5V0C660.5 -0.276142 660.276 -0.5 660 -0.5C659.724 -0.5 659.5 -0.276142 659.5 0V59.5H600.5V0C600.5 -0.276142 600.276 -0.5 600 -0.5C599.724 -0.5 599.5 -0.276142 599.5 0V59.5H540.5V0C540.5 -0.276142 540.276 -0.5 540 -0.5C539.724 -0.5 539.5 -0.276142 539.5 0V59.5H480.5V0C480.5 -0.276142 480.276 -0.5 480 -0.5C479.724 -0.5 479.5 -0.276142 479.5 0V59.5H420.5V0C420.5 -0.276142 420.276 -0.5 420 -0.5C419.724 -0.5 419.5 -0.276142 419.5 0V59.5H360.5V0C360.5 -0.276142 360.276 -0.5 360 -0.5C359.724 -0.5 359.5 -0.276142 359.5 0V59.5H300.5V0C300.5 -0.276142 300.276 -0.5 300 -0.5C299.724 -0.5 299.5 -0.276142 299.5 0V59.5H240.5V0C240.5 -0.276142 240.276 -0.5 240 -0.5C239.724 -0.5 239.5 -0.276142 239.5 0V59.5H180.5V0C180.5 -0.276142 180.276 -0.5 180 -0.5C179.724 -0.5 179.5 -0.276142 179.5 0V59.5H120.5V0C120.5 -0.276142 120.276 -0.5 120 -0.5C119.724 -0.5 119.5 -0.276142 119.5 0V59.5H60.5V0ZM60.5 60.5V119.5H119.5V60.5H60.5ZM120.5 60.5V119.5H179.5V60.5H120.5ZM180.5 60.5V119.5H239.5V60.5H180.5ZM240.5 60.5V119.5H299.5V60.5H240.5ZM300.5 60.5V119.5H359.5V60.5H300.5ZM360.5 60.5V119.5H419.5V60.5H360.5ZM420.5 60.5V119.5H479.5V60.5H420.5ZM480.5 60.5V119.5H539.5V60.5H480.5ZM540.5 60.5V119.5H599.5V60.5H540.5ZM600.5 60.5V119.5H659.5V60.5H600.5ZM660.5 60.5V119.5H719.5V60.5H660.5ZM720.5 60.5V119.5H779.5V60.5H720.5ZM780.5 60.5V119.5H839.5V60.5H780.5ZM840.5 60.5V119.5H899.5V60.5H840.5ZM900.5 60.5V119.5H959.5V60.5H900.5ZM960.5 60.5V119.5H1019.5V60.5H960.5ZM1020.5 60.5V119.5H1079.5V60.5H1020.5ZM1080.5 60.5V119.5H1139.5V60.5H1080.5ZM1140.5 60.5V119.5H1199.5V60.5H1140.5ZM1200.5 60.5V119.5H1259.5V60.5H1200.5ZM1260.5 60.5V119.5H1319.5V60.5H1260.5ZM1320.5 60.5V119.5H1379.5V60.5H1320.5ZM60.5 299.5V240.5H119.5V299.5H60.5ZM60.5 239.5H119.5V180.5H60.5V239.5ZM120.5 299.5V240.5H179.5V299.5H120.5ZM120.5 239.5H179.5V180.5H120.5V239.5ZM180.5 299.5V240.5H239.5V299.5H180.5ZM180.5 239.5H239.5V180.5H180.5V239.5ZM240.5 299.5V240.5H299.5V299.5H240.5ZM240.5 239.5H299.5V180.5H240.5V239.5ZM300.5 299.5V240.5H359.5V299.5H300.5ZM300.5 239.5H359.5V180.5H300.5V239.5ZM360.5 299.5V240.5H419.5V299.5H360.5ZM360.5 239.5H419.5V180.5H360.5V239.5ZM420.5 299.5V240.5H479.5V299.5H420.5ZM420.5 239.5H479.5V180.5H420.5V239.5ZM480.5 299.5V240.5H539.5V299.5H480.5ZM480.5 239.5H539.5V180.5H480.5V239.5ZM540.5 299.5V240.5H599.5V299.5H540.5ZM540.5 239.5H599.5V180.5H540.5V239.5ZM600.5 299.5V240.5H659.5V299.5H600.5ZM600.5 239.5H659.5V180.5H600.5V239.5ZM660.5 299.5V240.5H719.5V299.5H660.5ZM660.5 239.5H719.5V180.5H660.5V239.5ZM720.5 299.5V240.5H779.5V299.5H720.5ZM720.5 239.5H779.5V180.5H720.5V239.5ZM780.5 299.5V240.5H839.5V299.5H780.5ZM780.5 239.5H839.5V180.5H780.5V239.5ZM840.5 299.5V240.5H899.5V299.5H840.5ZM840.5 239.5H899.5V180.5H840.5V239.5ZM900.5 299.5V240.5H959.5V299.5H900.5ZM900.5 239.5H959.5V180.5H900.5V239.5ZM960.5 299.5V240.5H1019.5V299.5H960.5ZM960.5 239.5H1019.5V180.5H960.5V239.5ZM1020.5 299.5V240.5H1079.5V299.5H1020.5ZM1020.5 239.5H1079.5V180.5H1020.5V239.5ZM1080.5 299.5V240.5H1139.5V299.5H1080.5ZM1080.5 239.5H1139.5V180.5H1080.5V239.5ZM1140.5 299.5V240.5H1199.5V299.5H1140.5ZM1140.5 239.5H1199.5V180.5H1140.5V239.5ZM1200.5 299.5V240.5H1259.5V299.5H1200.5ZM1200.5 239.5H1259.5V180.5H1200.5V239.5ZM1260.5 299.5V240.5H1319.5V299.5H1260.5ZM1260.5 239.5H1319.5V180.5H1260.5V239.5ZM1320.5 299.5V240.5H1379.5V299.5H1320.5ZM1320.5 239.5H1379.5V180.5H1320.5V239.5ZM1379.5 419.5V360.5H1320.5V419.5H1379.5ZM1319.5 419.5V360.5H1260.5V419.5H1319.5ZM1260.5 420.5H1319.5V479.5H1260.5V420.5ZM1259.5 419.5V360.5H1200.5V419.5H1259.5ZM1200.5 420.5H1259.5V479.5H1200.5V420.5ZM1199.5 419.5V360.5H1140.5V419.5H1199.5ZM1140.5 420.5H1199.5V479.5H1140.5V420.5ZM1139.5 419.5V360.5H1080.5V419.5H1139.5ZM1080.5 420.5H1139.5V479.5H1080.5V420.5ZM1079.5 419.5V360.5H1020.5V419.5H1079.5ZM1020.5 420.5H1079.5V479.5H1020.5V420.5ZM1019.5 419.5V360.5H960.5V419.5H1019.5ZM960.5 420.5H1019.5V479.5H960.5V420.5ZM959.5 419.5V360.5H900.5V419.5H959.5ZM900.5 420.5H959.5V479.5H900.5V420.5ZM899.5 419.5V360.5H840.5V419.5H899.5ZM840.5 420.5H899.5V479.5H840.5V420.5ZM839.5 419.5V360.5H780.5V419.5H839.5ZM780.5 420.5H839.5V479.5H780.5V420.5ZM779.5 419.5V360.5H720.5V419.5H779.5ZM720.5 420.5H779.5V479.5H720.5V420.5ZM719.5 419.5V360.5H660.5V419.5H719.5ZM660.5 420.5H719.5V479.5H660.5V420.5ZM659.5 419.5V360.5H600.5V419.5H659.5ZM600.5 420.5H659.5V479.5H600.5V420.5ZM599.5 419.5V360.5H540.5V419.5H599.5ZM540.5 420.5H599.5V479.5H540.5V420.5ZM539.5 419.5V360.5H480.5V419.5H539.5ZM480.5 420.5H539.5V479.5H480.5V420.5ZM479.5 419.5V360.5H420.5V419.5H479.5ZM420.5 420.5H479.5V479.5H420.5V420.5ZM419.5 419.5V360.5H360.5V419.5H419.5ZM360.5 420.5H419.5V479.5H360.5V420.5ZM359.5 419.5V360.5H300.5V419.5H359.5ZM300.5 420.5H359.5V479.5H300.5V420.5ZM299.5 419.5V360.5H240.5V419.5H299.5ZM240.5 420.5H299.5V479.5H240.5V420.5ZM239.5 419.5V360.5H180.5V419.5H239.5ZM180.5 420.5H239.5V479.5H180.5V420.5ZM179.5 419.5V360.5H120.5V419.5H179.5ZM120.5 420.5H179.5V479.5H120.5V420.5ZM119.5 419.5V360.5H60.5V419.5H119.5ZM60.5 420.5H119.5V479.5H60.5V420.5ZM1320.5 420.5H1379.5V479.5H1320.5V420.5ZM60.5 179.5V120.5H119.5V179.5H60.5ZM120.5 179.5V120.5H179.5V179.5H120.5ZM180.5 179.5V120.5H239.5V179.5H180.5ZM240.5 179.5V120.5H299.5V179.5H240.5ZM300.5 179.5V120.5H359.5V179.5H300.5ZM360.5 179.5V120.5H419.5V179.5H360.5ZM420.5 179.5V120.5H479.5V179.5H420.5ZM480.5 179.5V120.5H539.5V179.5H480.5ZM540.5 179.5V120.5H599.5V179.5H540.5ZM600.5 179.5V120.5H659.5V179.5H600.5ZM660.5 179.5V120.5H719.5V179.5H660.5ZM720.5 179.5V120.5H779.5V179.5H720.5ZM780.5 179.5V120.5H839.5V179.5H780.5ZM840.5 179.5V120.5H899.5V179.5H840.5ZM900.5 179.5V120.5H959.5V179.5H900.5ZM960.5 179.5V120.5H1019.5V179.5H960.5ZM1020.5 179.5V120.5H1079.5V179.5H1020.5ZM1080.5 179.5V120.5H1139.5V179.5H1080.5ZM1140.5 179.5V120.5H1199.5V179.5H1140.5ZM1200.5 179.5V120.5H1259.5V179.5H1200.5ZM1260.5 179.5V120.5H1319.5V179.5H1260.5ZM1320.5 179.5V120.5H1379.5V179.5H1320.5ZM1260.5 300.5H1319.5V359.5H1260.5V300.5ZM1200.5 300.5H1259.5V359.5H1200.5V300.5ZM1140.5 300.5H1199.5V359.5H1140.5V300.5ZM1080.5 300.5H1139.5V359.5H1080.5V300.5ZM1020.5 300.5H1079.5V359.5H1020.5V300.5ZM960.5 300.5H1019.5V359.5H960.5V300.5ZM900.5 300.5H959.5V359.5H900.5V300.5ZM840.5 300.5H899.5V359.5H840.5V300.5ZM780.5 300.5H839.5V359.5H780.5V300.5ZM720.5 300.5H779.5V359.5H720.5V300.5ZM660.5 300.5H719.5V359.5H660.5V300.5ZM600.5 300.5H659.5V359.5H600.5V300.5ZM540.5 300.5H599.5V359.5H540.5V300.5ZM480.5 300.5H539.5V359.5H480.5V300.5ZM420.5 300.5H479.5V359.5H420.5V300.5ZM360.5 300.5H419.5V359.5H360.5V300.5ZM300.5 300.5H359.5V359.5H300.5V300.5ZM240.5 300.5H299.5V359.5H240.5V300.5ZM180.5 300.5H239.5V359.5H180.5V300.5ZM120.5 300.5H179.5V359.5H120.5V300.5ZM60.5 300.5H119.5V359.5H60.5V300.5ZM1320.5 300.5H1379.5V359.5H1320.5V300.5ZM60.5 539.5V480.5H119.5V539.5H60.5ZM120.5 539.5V480.5H179.5V539.5H120.5ZM180.5 539.5V480.5H239.5V539.5H180.5ZM240.5 539.5V480.5H299.5V539.5H240.5ZM300.5 539.5V480.5H359.5V539.5H300.5ZM360.5 539.5V480.5H419.5V539.5H360.5ZM420.5 539.5V480.5H479.5V539.5H420.5ZM480.5 539.5V480.5H539.5V539.5H480.5ZM540.5 539.5V480.5H599.5V539.5H540.5ZM600.5 539.5V480.5H659.5V539.5H600.5ZM660.5 539.5V480.5H719.5V539.5H660.5ZM720.5 539.5V480.5H779.5V539.5H720.5ZM780.5 539.5V480.5H839.5V539.5H780.5ZM840.5 539.5V480.5H899.5V539.5H840.5ZM900.5 539.5V480.5H959.5V539.5H900.5ZM960.5 539.5V480.5H1019.5V539.5H960.5ZM1020.5 539.5V480.5H1079.5V539.5H1020.5ZM1080.5 539.5V480.5H1139.5V539.5H1080.5ZM1140.5 539.5V480.5H1199.5V539.5H1140.5ZM1200.5 539.5V480.5H1259.5V539.5H1200.5ZM1260.5 539.5V480.5H1319.5V539.5H1260.5ZM1320.5 539.5V480.5H1379.5V539.5H1320.5Z" fill="url(#paint0_linear_3154_7342)"/>
<defs>
<linearGradient id="paint0_linear_3154_7342" x1="720" y1="132.5" x2="720" y2="601" gradientUnits="userSpaceOnUse">
<stop stop-color="#060809" stop-opacity="0"/>
<stop offset="1" stop-color="#060809" stop-opacity="0.05"/>
</linearGradient>
</defs>
</svg>
