<svg width="858" height="126" viewBox="0 0 858 126" fill="none" xmlns="http://www.w3.org/2000/svg">
<path d="M367.137 56.0276L368.958 64.426C370.139 69.9238 357.592 77.3104 340.896 80.9194C324.2 84.5284 309.731 82.9431 308.55 77.5465L306.729 69.148C307.023 69.997 307.512 70.7655 308.156 71.3921C308.8 72.0187 309.582 72.4861 310.439 72.757C314.3 74.1259 318.387 74.7441 322.48 74.5784C328.073 74.4949 333.644 73.8508 339.108 72.6558C344.569 71.4851 349.902 69.7792 355.028 67.5628C358.804 65.9859 362.239 63.6955 365.147 60.817C365.843 60.2402 366.387 59.5028 366.734 58.6683C367.081 57.8338 367.219 56.9275 367.137 56.0276Z" fill="#29C76F"/>
<path opacity="0.2" d="M367.137 56.0276L368.958 64.426C370.139 69.9238 357.592 77.3104 340.896 80.9194C324.2 84.5284 309.731 82.9431 308.55 77.5465L306.729 69.148C307.023 69.997 307.512 70.7655 308.156 71.3921C308.8 72.0187 309.582 72.4861 310.439 72.757C314.3 74.1259 318.387 74.7441 322.48 74.5784C328.073 74.4949 333.644 73.8508 339.108 72.6558C344.569 71.4851 349.902 69.7792 355.028 67.5628C358.804 65.9859 362.239 63.6955 365.147 60.817C365.843 60.2402 366.387 59.5028 366.734 58.6683C367.081 57.8338 367.219 56.9275 367.137 56.0276Z" fill="black"/>
<path d="M367.137 56.0277C367.231 56.9191 367.108 57.8201 366.78 58.654C366.451 59.4879 365.925 60.2299 365.248 60.8171C362.34 63.6956 358.905 65.986 355.129 67.5629C350.007 69.7823 344.673 71.4773 339.209 72.6222C333.751 73.8504 328.176 74.4949 322.581 74.5447C318.49 74.7188 314.404 74.1121 310.54 72.7571C309.683 72.4862 308.902 72.0188 308.257 71.3922C307.613 70.7656 307.124 69.9971 306.83 69.1481C305.649 63.6503 318.23 56.2638 334.892 52.6548C351.554 49.0458 365.248 50.5637 367.103 55.7241C367.124 55.8241 367.135 55.9257 367.137 56.0277Z" fill="#29C76F"/>
<path opacity="0.2" d="M360.156 56.2973C360.22 56.9891 360.119 57.6863 359.861 58.3313C359.603 58.9764 359.195 59.5509 358.671 60.0075C356.386 62.2136 353.694 63.9548 350.745 65.1342C346.768 66.8784 342.619 68.2011 338.367 69.0805C334.123 70.0201 329.795 70.5286 325.449 70.5984C322.273 70.7287 319.101 70.2478 316.106 69.1817C315.439 68.979 314.83 68.6188 314.331 68.1316C313.832 67.6444 313.457 67.0445 313.239 66.3823C312.328 62.0987 322.076 56.2636 335.028 53.5653C347.98 50.867 358.638 51.9463 360.054 55.96L360.156 56.2973Z" fill="white"/>
<path d="M311.62 77.749L311.822 86.3498C311.822 91.9825 298.331 96.8731 281.196 97.2779C264.062 97.6826 250.2 93.4328 250.065 87.8001L249.863 79.1993C249.978 80.0903 250.308 80.9397 250.825 81.6743C251.342 82.4089 252.031 83.0065 252.831 83.4154C256.36 85.4842 260.253 86.8582 264.298 87.4629C269.806 88.4528 275.402 88.8598 280.994 88.6771C286.579 88.5791 292.139 87.9123 297.589 86.6871C301.599 85.8977 305.422 84.3524 308.854 82.1337C309.632 81.6778 310.29 81.0415 310.771 80.2785C311.253 79.5154 311.544 78.648 311.62 77.749Z" fill="#29C76F"/>
<path opacity="0.2" d="M311.62 77.749L311.822 86.3498C311.822 91.9825 298.331 96.8731 281.196 97.2779C264.062 97.6826 250.2 93.4328 250.065 87.8001L249.863 79.1993C249.978 80.0903 250.308 80.9397 250.825 81.6743C251.342 82.4089 252.031 83.0065 252.831 83.4154C256.36 85.4842 260.253 86.8582 264.298 87.4629C269.806 88.4528 275.402 88.8598 280.994 88.6771C286.579 88.5791 292.139 87.9123 297.589 86.6871C301.599 85.8977 305.422 84.3524 308.854 82.1337C309.632 81.6778 310.29 81.0415 310.771 80.2785C311.253 79.5154 311.544 78.648 311.62 77.749Z" fill="black"/>
<path d="M311.62 77.7488C311.541 78.6426 311.249 79.5044 310.768 80.2616C310.286 81.0188 309.63 81.6492 308.854 82.0998C305.425 84.3311 301.601 85.888 297.589 86.6869C286.645 89.0793 275.342 89.3427 264.298 87.4627C260.253 86.858 256.36 85.484 252.831 83.4152C252.031 83.0063 251.342 82.4087 250.825 81.6741C250.308 80.9395 249.978 80.0901 249.863 79.1991C249.863 73.5664 263.354 68.6758 280.522 68.2711C297.69 67.8663 310.878 71.9137 311.586 77.3103C311.586 77.4452 311.62 77.6139 311.62 77.7488Z" fill="#29C76F"/>
<path opacity="0.2" d="M304.705 76.7034C304.644 77.3981 304.417 78.0678 304.041 78.6551C303.665 79.2425 303.152 79.7302 302.547 80.0762C299.889 81.8135 296.924 83.027 293.811 83.6515C289.567 84.5963 285.24 85.116 280.893 85.203C276.555 85.3127 272.217 84.9964 267.941 84.2586C264.802 83.7818 261.781 82.7176 259.037 81.1218C258.407 80.7871 257.867 80.306 257.462 79.719C257.057 79.1321 256.799 78.4564 256.709 77.7489C256.709 73.3979 267.266 69.5866 280.522 69.283C293.777 68.9794 304.132 72.1163 304.671 76.2986C304.671 76.4673 304.705 76.5684 304.705 76.7034Z" fill="white"/>
<path d="M394.356 72.9932L394.66 81.7289C394.66 87.3616 381.168 92.2522 364.034 92.657C346.9 93.0617 333.037 88.8119 332.902 83.1792L332.7 74.5784C332.823 75.4667 333.157 76.3127 333.673 77.046C334.19 77.7793 334.873 78.3788 335.668 78.7945C339.197 80.8633 343.09 82.2372 347.136 82.8419C352.643 83.8318 358.239 84.2389 363.831 84.0562C369.416 83.9603 374.977 83.2935 380.426 82.0662C384.436 81.2768 388.259 79.7315 391.691 77.5128C392.469 77.0322 393.118 76.3696 393.582 75.5822C394.046 74.7948 394.312 73.9062 394.356 72.9932Z" fill="#29C76F"/>
<path opacity="0.2" d="M394.356 72.9932L394.66 81.7289C394.66 87.3616 381.168 92.2522 364.034 92.657C346.9 93.0617 333.037 88.8119 332.902 83.1792L332.7 74.5784C332.823 75.4667 333.157 76.3127 333.673 77.046C334.19 77.7793 334.873 78.3788 335.668 78.7945C339.197 80.8633 343.09 82.2372 347.136 82.8419C352.643 83.8318 358.239 84.2389 363.831 84.0562C369.416 83.9603 374.977 83.2935 380.426 82.0662C384.436 81.2768 388.259 79.7315 391.691 77.5128C392.469 77.0322 393.118 76.3696 393.582 75.5822C394.046 74.7948 394.312 73.9062 394.356 72.9932Z" fill="black"/>
<path d="M394.356 72.9932C394.277 73.887 393.985 74.7488 393.504 75.506C393.022 76.2632 392.366 76.8937 391.59 77.3442C388.161 79.5756 384.337 81.1324 380.325 81.9313C369.381 84.3237 358.078 84.5871 347.035 82.7071C342.989 82.1024 339.096 80.7284 335.567 78.6596C334.772 78.2439 334.088 77.6444 333.572 76.9111C333.056 76.1778 332.722 75.3318 332.599 74.4435C332.599 68.8108 346.09 63.9202 363.258 63.5154C380.426 63.1107 393.614 67.1581 394.322 72.5547C394.35 72.6991 394.361 72.8462 394.356 72.9932Z" fill="#29C76F"/>
<path opacity="0.2" d="M387.442 71.9477C387.381 72.6424 387.153 73.3121 386.777 73.8995C386.401 74.4869 385.889 74.9745 385.283 75.3206C382.629 77.0638 379.663 78.2778 376.548 78.8958C372.304 79.8406 367.976 80.3604 363.629 80.4473C359.292 80.557 354.954 80.2407 350.678 79.5029C347.542 79.0146 344.523 77.9512 341.773 76.3661C341.143 76.0365 340.603 75.5561 340.203 74.9676C339.803 74.3792 339.554 73.701 339.48 72.9933C339.48 68.6423 350.037 64.8309 363.258 64.5273C376.48 64.2238 386.869 67.3269 387.408 71.543C387.408 71.6104 387.442 71.8128 387.442 71.9477Z" fill="white"/>
<path d="M384.811 92.5896L385.014 101.19C385.014 106.823 371.522 111.714 354.388 112.119C337.254 112.523 323.391 108.273 323.256 102.641L323.054 94.0399C323.18 94.9316 323.515 95.7811 324.03 96.5194C324.546 97.2578 325.228 97.8642 326.022 98.2898C329.548 100.36 333.443 101.723 337.49 102.303C348.53 104.229 359.841 103.966 370.78 101.528C374.794 100.753 378.62 99.2065 382.046 96.9743C382.826 96.5205 383.485 95.8848 383.966 95.1213C384.448 94.3578 384.738 93.4893 384.811 92.5896Z" fill="#29C76F"/>
<path opacity="0.2" d="M384.811 92.5896L385.014 101.19C385.014 106.823 371.522 111.714 354.388 112.119C337.254 112.523 323.391 108.273 323.256 102.641L323.054 94.0399C323.18 94.9316 323.515 95.7811 324.03 96.5194C324.546 97.2578 325.228 97.8642 326.022 98.2898C329.548 100.36 333.443 101.723 337.49 102.303C348.53 104.229 359.841 103.966 370.78 101.528C374.794 100.753 378.62 99.2065 382.046 96.9743C382.826 96.5205 383.485 95.8848 383.966 95.1213C384.448 94.3578 384.738 93.4893 384.811 92.5896Z" fill="black"/>
<path d="M384.811 92.5894C384.735 93.4883 384.444 94.3558 383.963 95.1188C383.482 95.8819 382.824 96.5181 382.046 96.9741C378.613 99.1928 374.79 100.738 370.78 101.527C365.331 102.753 359.77 103.419 354.186 103.517C348.593 103.7 342.997 103.293 337.49 102.303C333.444 101.699 329.551 100.325 326.022 98.2558C325.227 97.8401 324.544 97.2406 324.027 96.5073C323.511 95.774 323.177 94.928 323.054 94.0397C323.054 88.407 336.545 83.5164 353.713 83.1116C370.881 82.7069 384.069 86.7543 384.778 92.1509C384.806 92.2953 384.817 92.4424 384.811 92.5894Z" fill="#29C76F"/>
<path opacity="0.2" d="M377.795 91.5441C377.732 92.238 377.503 92.9066 377.127 93.4936C376.751 94.0805 376.24 94.5687 375.636 94.9169C373.012 96.6695 370.084 97.9164 367.002 98.5934C362.761 99.5547 358.432 100.075 354.084 100.145C349.746 100.272 345.406 99.9551 341.132 99.2004C337.995 98.7182 334.975 97.6544 332.228 96.0637C331.595 95.7365 331.054 95.2567 330.654 94.6677C330.253 94.0788 330.006 93.3994 329.934 92.6908C329.934 88.3398 340.491 84.5284 353.713 84.2249C366.934 83.9213 377.323 87.0582 377.863 91.2405C377.795 91.308 377.795 91.4429 377.795 91.5441Z" fill="white"/>
<path d="M599.798 11.5396L600 20.1403C600 25.773 586.508 30.6638 569.374 31.0685C552.24 31.4733 538.378 27.1897 538.243 21.5907L538.04 12.9561C538.159 13.8504 538.49 14.7033 539.006 15.4428C539.523 16.1824 540.21 16.787 541.008 17.206C544.538 19.2748 548.43 20.6487 552.476 21.2534C557.988 22.2096 563.58 22.6163 569.172 22.4676C574.757 22.3717 580.317 21.7049 585.766 20.4776C589.779 19.6787 593.602 18.1219 597.032 15.8906C597.808 15.44 598.464 14.8095 598.945 14.0523C599.427 13.2951 599.719 12.4333 599.798 11.5396Z" fill="#29C76F"/>
<path opacity="0.2" d="M599.798 11.5396L600 20.1403C600 25.773 586.508 30.6638 569.374 31.0685C552.24 31.4733 538.378 27.1897 538.243 21.5907L538.04 12.9561C538.159 13.8504 538.49 14.7033 539.006 15.4428C539.523 16.1824 540.21 16.787 541.008 17.206C544.538 19.2748 548.43 20.6487 552.476 21.2534C557.988 22.2096 563.58 22.6163 569.172 22.4676C574.757 22.3717 580.317 21.7049 585.766 20.4776C589.779 19.6787 593.602 18.1219 597.032 15.8906C597.808 15.44 598.464 14.8095 598.945 14.0523C599.427 13.2951 599.719 12.4333 599.798 11.5396Z" fill="black"/>
<path d="M599.798 11.5057C599.724 12.4053 599.434 13.274 598.953 14.0375C598.471 14.8009 597.812 15.4367 597.032 15.8904C593.607 18.1226 589.781 19.6689 585.766 20.4437C574.828 22.8816 563.517 23.1452 552.476 21.2195C548.429 20.6393 544.534 19.276 541.008 17.2058C540.211 16.7846 539.526 16.1794 539.01 15.4402C538.494 14.7011 538.161 13.8494 538.04 12.956C538.04 7.32327 551.532 2.43264 568.7 2.02789C585.868 1.62315 599.055 5.6706 599.764 11.1009C599.792 11.2339 599.803 11.3699 599.798 11.5057Z" fill="#29C76F"/>
<path opacity="0.2" d="M592.884 10.46C592.823 11.1547 592.595 11.8245 592.219 12.4119C591.843 12.9993 591.331 13.4868 590.725 13.8329C588.068 15.5634 585.102 16.7659 581.989 17.3744C577.76 18.3359 573.442 18.8558 569.105 18.9259C564.755 19.0693 560.403 18.7527 556.119 17.9815C552.976 17.5243 549.951 16.4588 547.215 14.8448C546.586 14.5128 546.048 14.0317 545.648 13.4437C545.249 12.8557 544.999 12.1787 544.921 11.4719C544.921 7.08717 555.478 3.27576 568.734 2.9722C581.989 2.66864 592.344 5.80547 592.85 9.98783C592.85 10.2577 592.884 10.3588 592.884 10.46Z" fill="white"/>
<path d="M420.395 87.429L422.216 95.8274C423.431 101.325 410.883 108.745 394.221 112.388C377.559 116.031 363.056 114.479 361.876 109.015L360.021 100.583C360.309 101.441 360.799 102.217 361.451 102.846C362.103 103.474 362.896 103.936 363.764 104.192C367.618 105.537 371.694 106.132 375.772 105.946C381.368 105.886 386.942 105.23 392.4 103.99C397.866 102.824 403.201 101.106 408.32 98.8629C412.103 97.2998 415.541 95.0077 418.439 92.1172C419.113 91.5471 419.643 90.8246 419.983 90.0094C420.323 89.1941 420.464 88.3096 420.395 87.429Z" fill="#29C76F"/>
<path opacity="0.2" d="M420.395 87.429L422.216 95.8274C423.431 101.325 410.883 108.745 394.221 112.388C377.559 116.031 363.056 114.479 361.876 109.015L360.021 100.583C360.309 101.441 360.799 102.217 361.451 102.846C362.103 103.474 362.896 103.936 363.764 104.192C367.618 105.537 371.694 106.132 375.772 105.946C381.368 105.886 386.942 105.23 392.4 103.99C397.866 102.824 403.201 101.106 408.32 98.8629C412.103 97.2998 415.541 95.0077 418.439 92.1172C419.113 91.5471 419.643 90.8246 419.983 90.0094C420.323 89.1941 420.464 88.3096 420.395 87.429Z" fill="black"/>
<path d="M420.395 87.3954C420.495 88.2922 420.375 89.1999 420.046 90.0401C419.717 90.8804 419.189 91.628 418.506 92.2186C415.599 95.0977 412.163 97.3882 408.388 98.9643C403.263 101.193 397.93 102.91 392.468 104.091C387.004 105.298 381.434 105.953 375.839 106.047C371.762 106.234 367.686 105.638 363.832 104.294C362.969 104.027 362.181 103.562 361.53 102.935C360.88 102.308 360.386 101.537 360.088 100.685C358.908 95.1867 371.421 87.7664 388.117 84.1237C404.812 80.481 418.472 81.9314 420.328 87.0918C420.358 87.191 420.381 87.2925 420.395 87.3954Z" fill="#29C76F"/>
<path opacity="0.2" d="M413.379 87.6989C413.462 88.3939 413.373 89.0987 413.12 89.7514C412.867 90.404 412.458 90.9848 411.929 91.4428C409.651 93.6502 406.972 95.4017 404.036 96.6033C396.041 100.061 387.449 101.928 378.74 102.101C375.565 102.254 372.391 101.784 369.397 100.718C368.724 100.526 368.11 100.17 367.61 99.6809C367.109 99.1922 366.738 98.5865 366.53 97.9187C365.586 93.6689 375.333 87.8001 388.285 85.0681C401.237 82.336 411.895 83.3817 413.312 87.3617C413.347 87.4711 413.37 87.5842 413.379 87.6989Z" fill="white"/>
<path d="M428.153 93.0618L426.837 101.561C425.96 107.127 411.592 109.521 394.761 106.891C377.93 104.26 364.911 97.5814 365.788 92.0162L367.137 83.5166C367.095 84.4188 367.268 85.318 367.644 86.1394C368.019 86.9608 368.586 87.6805 369.296 88.2386C372.407 90.9024 376.003 92.9409 379.887 94.2423C385.131 96.1618 390.555 97.5516 396.077 98.391C401.593 99.2895 407.188 99.6173 412.772 99.3691C416.864 99.3034 420.905 98.4562 424.678 96.8731C425.522 96.5653 426.279 96.0579 426.884 95.3942C427.489 94.7305 427.924 93.9302 428.153 93.0618Z" fill="#29C76F"/>
<path opacity="0.2" d="M428.153 93.0618L426.837 101.561C425.96 107.127 411.592 109.521 394.761 106.891C377.93 104.26 364.911 97.5814 365.788 92.0162L367.137 83.5166C367.095 84.4188 367.268 85.318 367.644 86.1394C368.019 86.9608 368.586 87.6805 369.296 88.2386C372.407 90.9024 376.003 92.9409 379.887 94.2423C385.131 96.1618 390.555 97.5516 396.077 98.391C401.593 99.2895 407.188 99.6173 412.772 99.3691C416.864 99.3034 420.905 98.4562 424.678 96.8731C425.522 96.5653 426.279 96.0579 426.884 95.3942C427.489 94.7305 427.924 93.9302 428.153 93.0618Z" fill="black"/>
<path d="M428.153 93.0618C427.934 93.9195 427.514 94.7128 426.927 95.3757C426.341 96.0385 425.605 96.5519 424.78 96.8731C421.006 98.4562 416.965 99.3034 412.874 99.3691C401.681 99.8017 390.511 98.0489 379.988 94.2086C376.099 92.9207 372.5 90.8808 369.397 88.2049C368.686 87.6559 368.117 86.9426 367.742 86.1261C367.366 85.3097 367.193 84.4143 367.239 83.5166C368.082 77.9514 382.484 75.5903 399.348 78.2212C416.213 80.852 428.49 87.1593 428.321 92.6234C428.186 92.7583 428.186 92.9269 428.153 93.0618Z" fill="#29C76F"/>
<path opacity="0.2" d="M421.643 90.8021C421.458 91.4794 421.114 92.1024 420.638 92.6189C420.163 93.1354 419.57 93.5303 418.911 93.7702C415.983 95.0003 412.845 95.6531 409.669 95.6928C405.338 95.8922 400.997 95.6435 396.717 94.9507C392.421 94.2505 388.207 93.1206 384.136 91.5779C381.114 90.5656 378.319 88.973 375.907 86.8895C375.358 86.4586 374.919 85.9038 374.626 85.2707C374.333 84.6376 374.194 83.9441 374.22 83.2469C374.895 78.9296 386.059 77.0745 399.179 79.1319C412.3 81.1894 421.811 86.08 421.677 90.3298C421.643 90.5659 421.643 90.7009 421.643 90.8021Z" fill="white"/>
<path d="M416.01 72.1162L415.437 80.6834C415.066 86.3161 400.933 89.925 383.934 88.7782C366.935 87.6315 353.41 82.0325 353.781 76.501L354.388 67.9001C354.423 68.7988 354.675 69.6756 355.121 70.4565C355.567 71.2373 356.195 71.8992 356.951 72.3861C360.278 74.7701 364.035 76.4881 368.014 77.4454C373.404 78.9223 378.93 79.8488 384.507 80.2111C390.13 80.6218 395.781 80.4636 401.372 79.739C405.441 79.3106 409.391 78.1085 413.008 76.1974C413.794 75.801 414.476 75.2249 414.997 74.5158C415.519 73.8067 415.866 72.9846 416.01 72.1162Z" fill="#29C76F"/>
<path opacity="0.2" d="M416.01 72.1162L415.437 80.6834C415.066 86.3161 400.933 89.925 383.934 88.7782C366.935 87.6315 353.41 82.0325 353.781 76.501L354.388 67.9001C354.423 68.7988 354.675 69.6756 355.121 70.4565C355.567 71.2373 356.195 71.8992 356.951 72.3861C360.278 74.7701 364.035 76.4881 368.014 77.4454C373.404 78.9223 378.93 79.8488 384.507 80.2111C390.13 80.6218 395.781 80.4636 401.372 79.739C405.441 79.3106 409.391 78.1085 413.008 76.1974C413.794 75.801 414.476 75.2249 414.997 74.5158C415.519 73.8067 415.866 72.9846 416.01 72.1162Z" fill="black"/>
<path d="M416.01 72.0825C415.859 72.9711 415.495 73.8098 414.949 74.5266C414.402 75.2434 413.69 75.8166 412.873 76.1973C409.243 78.0482 405.294 79.1928 401.237 79.5701C395.648 80.3289 389.994 80.4872 384.372 80.0424C378.795 79.707 373.267 78.7914 367.879 77.3104C363.904 76.3388 360.15 74.622 356.816 72.2511C356.062 71.7621 355.435 71.0997 354.99 70.3193C354.544 69.5389 354.291 68.6631 354.252 67.7651C354.623 62.1324 368.722 58.5234 385.755 59.6702C402.788 60.817 415.571 66.0787 415.875 71.5428C415.951 71.7135 415.996 71.8961 416.01 72.0825Z" fill="#29C76F"/>
<path opacity="0.2" d="M409.231 70.4298C409.097 71.1142 408.805 71.7576 408.377 72.3083C407.949 72.859 407.398 73.3016 406.768 73.6003C403.965 75.0978 400.893 76.0262 397.729 76.3323C389.096 77.4173 380.334 76.8218 371.927 74.5785C368.835 73.822 365.916 72.4826 363.326 70.6322C362.757 70.2607 362.282 69.7632 361.937 69.1783C361.591 68.5933 361.386 67.9366 361.336 67.2593C361.639 62.9083 372.601 60.0751 385.823 60.9858C399.044 61.8965 408.994 65.9439 409.231 70.1937V70.4298Z" fill="white"/>
<path d="M496.925 63.3469L496.351 71.9478C495.98 77.5467 481.848 81.1894 464.849 80.0089C447.85 78.8284 434.324 73.2632 434.729 67.7317L435.302 59.1646C435.341 60.0626 435.594 60.9384 436.039 61.7188C436.485 62.4992 437.112 63.1616 437.866 63.6505C441.2 66.0215 444.954 67.7383 448.929 68.7098C454.333 70.2525 459.883 71.2247 465.49 71.6105C471.112 72.0553 476.766 71.8969 482.354 71.1382C486.412 70.7666 490.362 69.6217 493.99 67.7653C494.809 67.3312 495.505 66.6998 496.018 65.9282C496.53 65.1566 496.842 64.2694 496.925 63.3469Z" fill="#29C76F"/>
<path opacity="0.2" d="M496.925 63.3469L496.351 71.9478C495.98 77.5467 481.848 81.1894 464.849 80.0089C447.85 78.8284 434.324 73.2632 434.729 67.7317L435.302 59.1646C435.341 60.0626 435.594 60.9384 436.039 61.7188C436.485 62.4992 437.112 63.1616 437.866 63.6505C441.2 66.0215 444.954 67.7383 448.929 68.7098C454.333 70.2525 459.883 71.2247 465.49 71.6105C471.112 72.0553 476.766 71.8969 482.354 71.1382C486.412 70.7666 490.362 69.6217 493.99 67.7653C494.809 67.3312 495.505 66.6998 496.018 65.9282C496.53 65.1566 496.842 64.2694 496.925 63.3469Z" fill="black"/>
<path d="M496.925 63.3468C496.769 64.2334 496.403 65.0698 495.857 65.7858C495.312 66.5017 494.602 67.0764 493.789 67.4617C490.16 69.3181 486.211 70.463 482.152 70.8346C476.561 71.5592 470.911 71.7175 465.288 71.3068C459.712 70.9547 454.186 70.0394 448.794 68.5748C444.812 67.608 441.055 65.8784 437.731 63.4818C436.973 62.997 436.344 62.3356 435.898 61.5544C435.451 60.7731 435.201 59.8951 435.168 58.9959C435.539 53.3969 449.671 49.7542 466.704 50.9347C483.737 52.1152 496.487 57.3432 496.79 62.7735C496.893 62.9462 496.94 63.1464 496.925 63.3468Z" fill="#29C76F"/>
<path opacity="0.2" d="M490.146 61.6604C490.017 62.3508 489.727 63.0011 489.299 63.558C488.872 64.1148 488.318 64.5626 487.684 64.8647C484.874 66.3469 481.805 67.2744 478.645 67.5967C470.011 68.6817 461.249 68.0861 452.842 65.8428C449.758 65.0942 446.848 63.754 444.275 61.8965C443.698 61.5308 443.215 61.0353 442.864 60.4497C442.512 59.8641 442.303 59.2046 442.251 58.5237C442.555 54.1389 453.517 51.3395 466.738 52.2502C479.96 53.1608 489.91 57.2083 490.146 61.4244V61.6604Z" fill="white"/>
<path d="M466.941 77.749L467.143 86.3498C467.143 91.9825 453.652 96.8731 436.517 97.2779C419.383 97.6826 405.521 93.4328 405.386 87.8001L405.183 79.1993C405.307 80.0876 405.64 80.9336 406.157 81.6669C406.673 82.4002 407.357 82.9997 408.151 83.4154C411.681 85.4842 415.573 86.8582 419.619 87.4629C425.182 88.4647 430.835 88.8717 436.484 88.6771C442.068 88.5791 447.629 87.9123 453.078 86.6871C457.088 85.8977 460.911 84.3524 464.344 82.1337C465.091 81.6584 465.715 81.0138 466.166 80.2519C466.618 79.4901 466.883 78.6326 466.941 77.749Z" fill="#29C76F"/>
<path opacity="0.2" d="M466.941 77.749L467.143 86.3498C467.143 91.9825 453.652 96.8731 436.517 97.2779C419.383 97.6826 405.521 93.4328 405.386 87.8001L405.183 79.1993C405.307 80.0876 405.64 80.9336 406.157 81.6669C406.673 82.4002 407.357 82.9997 408.151 83.4154C411.681 85.4842 415.573 86.8582 419.619 87.4629C425.182 88.4647 430.835 88.8717 436.484 88.6771C442.068 88.5791 447.629 87.9123 453.078 86.6871C457.088 85.8977 460.911 84.3524 464.344 82.1337C465.091 81.6584 465.715 81.0138 466.166 80.2519C466.618 79.4901 466.883 78.6326 466.941 77.749Z" fill="black"/>
<path d="M466.941 77.7488C466.862 78.6426 466.57 79.5044 466.088 80.2616C465.607 81.0188 464.951 81.6492 464.175 82.0998C460.745 84.3311 456.922 85.888 452.909 86.6869C441.965 89.0793 430.663 89.3427 419.619 87.4627C415.573 86.858 411.681 85.484 408.151 83.4152C407.357 82.9995 406.673 82.4 406.157 81.6667C405.64 80.9334 405.307 80.0874 405.183 79.1991C405.183 73.5664 418.675 68.6758 435.843 68.2711C453.011 67.8663 466.199 71.9137 466.907 77.3103C466.935 77.4547 466.946 77.6019 466.941 77.7488Z" fill="#29C76F"/>
<path opacity="0.2" d="M460.026 76.7034C459.965 77.3981 459.737 78.0678 459.361 78.6551C458.985 79.2425 458.472 79.7302 457.867 80.0762C455.209 81.8135 452.244 83.027 449.131 83.6515C444.887 84.5963 440.56 85.116 436.213 85.203C431.875 85.3127 427.537 84.9964 423.261 84.2586C420.124 83.7763 417.104 82.7125 414.357 81.1218C413.726 80.7922 413.187 80.3117 412.787 79.7233C412.387 79.1348 412.138 78.4566 412.063 77.7489C412.063 73.3979 422.587 69.5866 435.674 69.283C448.76 68.9794 459.284 72.1163 459.823 76.2986C459.992 76.4673 460.026 76.5684 460.026 76.7034Z" fill="white"/>
<path d="M423.127 52.6885L423.329 61.2893C423.329 66.8882 409.838 71.8126 392.67 72.2173C375.502 72.6221 361.673 68.3385 361.538 62.7396L361.336 54.105C361.454 54.9993 361.785 55.8521 362.302 56.5917C362.818 57.3312 363.505 57.9359 364.304 58.3549C367.846 60.4224 371.749 61.796 375.805 62.4023C381.305 63.3576 386.887 63.7643 392.467 63.6165C398.063 63.5183 403.635 62.8515 409.096 61.6266C413.108 60.8276 416.932 59.2707 420.361 57.0394C421.133 56.5846 421.787 55.9531 422.267 55.1967C422.748 54.4404 423.043 53.5808 423.127 52.6885Z" fill="#29C76F"/>
<path opacity="0.2" d="M423.127 52.6885L423.329 61.2893C423.329 66.8882 409.838 71.8126 392.67 72.2173C375.502 72.6221 361.673 68.3385 361.538 62.7396L361.336 54.105C361.454 54.9993 361.785 55.8521 362.302 56.5917C362.818 57.3312 363.505 57.9359 364.304 58.3549C367.846 60.4224 371.749 61.796 375.805 62.4023C381.305 63.3576 386.887 63.7643 392.467 63.6165C398.063 63.5183 403.635 62.8515 409.096 61.6266C413.108 60.8276 416.932 59.2707 420.361 57.0394C421.133 56.5846 421.787 55.9531 422.267 55.1967C422.748 54.4404 423.043 53.5808 423.127 52.6885Z" fill="black"/>
<path d="M423.127 52.6548C423.048 53.553 422.756 54.4194 422.275 55.182C421.794 55.9446 421.138 56.5814 420.361 57.0395C416.936 59.2717 413.11 60.8181 409.096 61.5929C398.157 64.0299 386.846 64.2935 375.805 62.3687C371.748 61.7877 367.842 60.4245 364.304 58.355C363.507 57.9338 362.822 57.3285 362.305 56.5894C361.789 55.8503 361.457 54.9986 361.336 54.1051C361.336 48.4724 374.827 43.5818 391.995 43.1771C409.163 42.7723 422.351 46.8197 423.059 52.2163C423.096 52.36 423.118 52.5069 423.127 52.6548Z" fill="#29C76F"/>
<path opacity="0.2" d="M416.179 51.6092C416.119 52.3 415.895 52.9665 415.526 53.5532C415.156 54.1399 414.651 54.6298 414.054 54.982C411.384 56.7121 408.407 57.9143 405.285 58.5235C401.055 59.4849 396.737 60.0049 392.4 60.075C388.062 60.2185 383.72 59.9019 379.448 59.1306C376.293 58.6784 373.256 57.6128 370.51 55.9938C369.882 55.6619 369.344 55.1808 368.944 54.5928C368.544 54.0048 368.294 53.3278 368.217 52.621C368.217 48.2362 378.774 44.4249 392.029 44.1214C405.285 43.8178 415.639 46.9545 416.145 51.1369C416.186 51.2908 416.197 51.451 416.179 51.6092Z" fill="white"/>
<path d="M443.094 31.8777L443.297 40.4785C443.297 46.1112 429.805 51.0019 412.671 51.4066C395.537 51.8114 381.64 47.5616 381.539 41.9289L381.337 33.328C381.452 34.2189 381.783 35.0684 382.3 35.803C382.817 36.5376 383.505 37.1352 384.305 37.5441C387.832 39.6183 391.725 40.9926 395.773 41.5916C406.817 43.4716 418.119 43.2082 429.063 40.8158C433.076 40.0168 436.899 38.4601 440.329 36.2287C441.101 35.7739 441.754 35.1423 442.235 34.3859C442.716 33.6296 443.01 32.77 443.094 31.8777Z" fill="#29C76F"/>
<path opacity="0.2" d="M443.094 31.8777L443.297 40.4785C443.297 46.1112 429.805 51.0019 412.671 51.4066C395.537 51.8114 381.64 47.5616 381.539 41.9289L381.337 33.328C381.452 34.2189 381.783 35.0684 382.3 35.803C382.817 36.5376 383.505 37.1352 384.305 37.5441C387.832 39.6183 391.725 40.9926 395.773 41.5916C406.817 43.4716 418.119 43.2082 429.063 40.8158C433.076 40.0168 436.899 38.4601 440.329 36.2287C441.101 35.7739 441.754 35.1423 442.235 34.3859C442.716 33.6296 443.01 32.77 443.094 31.8777Z" fill="black"/>
<path d="M443.094 31.8778C443.01 32.77 442.716 33.6296 442.235 34.386C441.754 35.1424 441.101 35.774 440.329 36.2288C436.899 38.4601 433.076 40.0169 429.063 40.8158C423.613 42.039 418.053 42.7057 412.469 42.8058C406.877 42.9545 401.284 42.5478 395.773 41.5916C391.725 40.9926 387.832 39.6183 384.305 37.5442C383.501 37.1321 382.81 36.5293 382.292 35.7885C381.775 35.0476 381.447 34.1913 381.337 33.2944C381.337 27.6954 394.828 22.771 411.963 22.4C429.097 22.029 442.319 26.0427 443.061 31.4393C443.061 31.5742 443.094 31.7091 443.094 31.8778Z" fill="#29C76F"/>
<path opacity="0.2" d="M436.18 30.8324C436.106 31.5233 435.873 32.1877 435.498 32.773C435.123 33.3584 434.618 33.8486 434.021 34.2052C431.355 35.8841 428.388 37.0295 425.286 37.5781C421.043 38.5352 416.716 39.0662 412.368 39.1634C408.028 39.2798 403.688 38.9521 399.416 38.1852C396.269 37.7399 393.242 36.6737 390.511 35.0484C389.88 34.716 389.338 34.2355 388.933 33.6482C388.528 33.0608 388.271 32.3839 388.184 31.6756C388.184 27.2908 398.741 23.5133 411.997 23.176C425.252 22.8387 435.607 26.0092 436.146 30.2253C436.109 30.4274 436.12 30.6356 436.18 30.8324Z" fill="white"/>
<path d="M388.893 69.2156L389.095 77.8164C389.095 83.4491 375.603 88.3734 358.436 88.7444C341.268 89.1154 327.439 84.8994 327.338 79.2667L327.135 70.6659C327.251 71.561 327.581 72.415 328.098 73.155C328.615 73.895 329.303 74.4991 330.103 74.9157C333.626 76.9914 337.523 78.3551 341.571 78.9295C352.611 80.8551 363.923 80.5915 374.861 78.1537C378.876 77.3788 382.701 75.8324 386.127 73.6003C386.903 73.1422 387.559 72.5054 388.04 71.7428C388.521 70.9801 388.814 70.1138 388.893 69.2156Z" fill="#29C76F"/>
<path opacity="0.2" d="M388.893 69.2156L389.095 77.8164C389.095 83.4491 375.603 88.3734 358.436 88.7444C341.268 89.1154 327.439 84.8994 327.338 79.2667L327.135 70.6659C327.251 71.561 327.581 72.415 328.098 73.155C328.615 73.895 329.303 74.4991 330.103 74.9157C333.626 76.9914 337.523 78.3551 341.571 78.9295C352.611 80.8551 363.923 80.5915 374.861 78.1537C378.876 77.3788 382.701 75.8324 386.127 73.6003C386.903 73.1422 387.559 72.5054 388.04 71.7428C388.521 70.9801 388.814 70.1138 388.893 69.2156Z" fill="black"/>
<path d="M388.893 69.2156C388.814 70.1138 388.521 70.9802 388.04 71.7428C387.559 72.5054 386.903 73.1422 386.127 73.6003C382.694 75.819 378.871 77.3643 374.861 78.1537C363.917 80.5461 352.615 80.8095 341.571 78.9295C337.527 78.3393 333.633 76.9766 330.103 74.9158C329.304 74.4968 328.618 73.8921 328.101 73.1526C327.585 72.413 327.254 71.5602 327.135 70.6659C327.135 65.0332 340.627 60.1426 357.761 59.7379C374.895 59.3331 388.117 63.3805 388.859 68.7771C388.859 68.9458 388.893 69.0807 388.893 69.2156Z" fill="#29C76F"/>
<path opacity="0.2" d="M381.944 68.2375C381.879 68.9269 381.652 69.5913 381.283 70.1772C380.914 70.763 380.412 71.254 379.819 71.6104C377.136 73.2812 374.16 74.4258 371.049 74.9832C366.82 75.9447 362.502 76.4646 358.165 76.5347C353.827 76.6614 349.487 76.345 345.213 75.5903C342.074 75.1136 339.053 74.0494 336.309 72.4536C335.677 72.1211 335.136 71.6407 334.73 71.0533C334.325 70.4659 334.068 69.7891 333.981 69.0807C333.981 64.7297 344.539 60.9183 357.794 60.6148C371.049 60.3112 381.404 63.4481 381.944 67.6304V68.2375Z" fill="white"/>
<path d="M544.955 58.355L546.776 66.7534C547.991 72.2512 535.443 79.6715 518.781 83.3142C502.119 86.9569 487.616 85.4391 486.402 79.9413L484.581 71.5092C484.865 72.3635 485.351 73.1371 485.997 73.765C486.642 74.393 487.429 74.857 488.291 75.1182C492.155 76.4731 496.241 77.0798 500.332 76.9058C505.928 76.8141 511.5 76.1472 516.96 74.9158C522.427 73.7501 527.761 72.0323 532.88 69.789C536.647 68.1961 540.08 65.9075 542.999 63.0432C543.663 62.4646 544.185 61.7406 544.524 60.9276C544.864 60.1145 545.011 59.2342 544.955 58.355Z" fill="#29C76F"/>
<path opacity="0.2" d="M544.955 58.355L546.776 66.7534C547.991 72.2512 535.443 79.6715 518.781 83.3142C502.119 86.9569 487.616 85.4391 486.402 79.9413L484.581 71.5092C484.865 72.3635 485.351 73.1371 485.997 73.765C486.642 74.393 487.429 74.857 488.291 75.1182C492.155 76.4731 496.241 77.0798 500.332 76.9058C505.928 76.8141 511.5 76.1472 516.96 74.9158C522.427 73.7501 527.761 72.0323 532.88 69.789C536.647 68.1961 540.08 65.9075 542.999 63.0432C543.663 62.4646 544.185 61.7406 544.524 60.9276C544.864 60.1145 545.011 59.2342 544.955 58.355Z" fill="black"/>
<path d="M544.955 58.355C545.043 59.246 544.918 60.1452 544.589 60.9781C544.261 61.8111 543.739 62.5537 543.066 63.1445C540.156 66.0196 536.721 68.3096 532.947 69.8902C527.828 72.1336 522.494 73.8514 517.027 75.017C511.569 76.2551 505.995 76.9108 500.399 76.9732C496.31 77.1565 492.224 76.5613 488.358 75.2194C487.496 74.9582 486.709 74.4942 486.064 73.8662C485.418 73.2383 484.932 72.4647 484.648 71.6104C483.433 66.1126 495.981 58.6923 512.643 55.0496C529.304 51.4069 542.998 52.891 544.887 58.0177C544.853 58.1189 544.921 58.1189 544.955 58.355Z" fill="#29C76F"/>
<path opacity="0.2" d="M537.939 58.6246C538.022 59.3197 537.932 60.0244 537.68 60.6771C537.427 61.3298 537.018 61.9105 536.489 62.3686C534.203 64.5828 531.512 66.335 528.562 67.5291C524.553 69.3114 520.371 70.6789 516.083 71.6102C511.853 72.5681 507.535 73.0769 503.198 73.1281C500.024 73.2838 496.849 72.814 493.856 71.7452C493.187 71.5479 492.575 71.1941 492.071 70.7131C491.566 70.2321 491.184 69.6378 490.955 68.9794C490.01 64.6958 499.758 58.8607 512.71 56.095C525.662 53.3292 536.32 54.4086 537.737 58.4223L537.939 58.6246Z" fill="white"/>
<path d="M455.371 45.8416L457.226 54.2401C458.407 59.7379 445.893 67.1582 429.231 70.8009C412.569 74.4436 398.066 72.9258 396.852 67.428L395.03 59.0295C395.317 59.879 395.804 60.6471 396.45 61.2693C397.095 61.8915 397.881 62.3494 398.74 62.6047C402.6 63.9761 406.69 64.5833 410.782 64.3923C416.367 64.3005 421.928 63.6336 427.376 62.4024C432.859 61.2571 438.206 59.5388 443.33 57.2756C447.097 55.6827 450.529 53.3942 453.448 50.5299C454.109 49.9496 454.626 49.2245 454.959 48.4111C455.293 47.5978 455.434 46.7183 455.371 45.8416Z" fill="#29C76F"/>
<path opacity="0.2" d="M455.371 45.8416L457.226 54.2401C458.407 59.7379 445.893 67.1582 429.231 70.8009C412.569 74.4436 398.066 72.9258 396.852 67.428L395.03 59.0295C395.317 59.879 395.804 60.6471 396.45 61.2693C397.095 61.8915 397.881 62.3494 398.74 62.6047C402.6 63.9761 406.69 64.5833 410.782 64.3923C416.367 64.3005 421.928 63.6336 427.376 62.4024C432.859 61.2571 438.206 59.5388 443.33 57.2756C447.097 55.6827 450.529 53.3942 453.448 50.5299C454.109 49.9496 454.626 49.2245 454.959 48.4111C455.293 47.5978 455.434 46.7183 455.371 45.8416Z" fill="black"/>
<path d="M455.372 45.8416C455.466 46.738 455.343 47.6439 455.015 48.4832C454.686 49.3225 454.161 50.0707 453.483 50.6649C450.576 53.544 447.14 55.8345 443.364 57.4106C433.084 61.8504 422.045 64.2667 410.85 64.5273C406.759 64.7013 402.673 64.0947 398.809 62.7397C397.944 62.4837 397.155 62.0215 396.508 61.3928C395.862 60.7642 395.378 59.9878 395.099 59.1307C393.884 53.6329 406.431 46.2126 423.093 42.6036C439.755 38.9947 453.449 40.4113 455.338 45.538L455.372 45.8416Z" fill="#29C76F"/>
<path opacity="0.2" d="M448.423 46.1452C448.487 46.837 448.386 47.5341 448.128 48.1791C447.87 48.8242 447.463 49.3986 446.939 49.8553C444.667 52.0705 441.987 53.8232 439.047 55.0157C431.057 58.4579 422.481 60.3357 413.784 60.5473C410.611 60.669 407.443 60.2001 404.441 59.1644C403.77 58.9613 403.157 58.6015 402.653 58.1147C402.148 57.6279 401.767 57.0282 401.54 56.365C400.596 52.0814 410.343 46.2464 423.295 43.5143C436.247 40.7823 446.905 41.7942 448.322 45.8079L448.423 46.1452Z" fill="white"/>
<path d="M584.688 77.0405L584.89 85.6414C584.89 91.2741 571.398 96.1647 554.264 96.5695C537.13 96.9742 523.268 92.6907 523.133 87.0917L522.829 78.356C522.939 79.2529 523.267 80.1093 523.785 80.8501C524.302 81.591 524.993 82.1938 525.797 82.6058C529.326 84.6747 533.219 86.0485 537.265 86.6532C542.776 87.6094 548.369 88.0162 553.961 87.8675C559.545 87.7695 565.106 87.1027 570.555 85.8775C574.568 85.0786 578.391 83.5217 581.821 81.2904C582.602 80.8615 583.27 80.2521 583.769 79.5128C584.268 78.7736 584.583 77.926 584.688 77.0405Z" fill="#29C76F"/>
<path opacity="0.2" d="M584.688 77.0405L584.89 85.6414C584.89 91.2741 571.398 96.1647 554.264 96.5695C537.13 96.9742 523.268 92.6907 523.133 87.0917L522.829 78.356C522.939 79.2529 523.267 80.1093 523.785 80.8501C524.302 81.591 524.993 82.1938 525.797 82.6058C529.326 84.6747 533.219 86.0485 537.265 86.6532C542.776 87.6094 548.369 88.0162 553.961 87.8675C559.545 87.7695 565.106 87.1027 570.555 85.8775C574.568 85.0786 578.391 83.5217 581.821 81.2904C582.602 80.8615 583.27 80.2521 583.769 79.5128C584.268 78.7736 584.583 77.926 584.688 77.0405Z" fill="black"/>
<path d="M584.688 77.0068C584.614 77.9065 584.324 78.775 583.843 79.5385C583.361 80.302 582.702 80.9377 581.922 81.3915C578.497 83.6236 574.671 85.17 570.656 85.9449C559.718 88.3827 548.407 88.6463 537.366 86.7207C533.319 86.1404 529.424 84.7771 525.898 82.7069C525.066 82.2935 524.349 81.6792 523.813 80.9196C523.278 80.16 522.939 79.2789 522.829 78.3559C522.829 72.7232 536.321 67.8326 553.488 67.4278C570.656 67.0231 583.844 71.1043 584.553 76.5009C584.654 76.737 584.688 76.8719 584.688 77.0068Z" fill="#29C76F"/>
<path opacity="0.2" d="M577.773 75.9614C577.713 76.6562 577.485 77.3259 577.109 77.9132C576.733 78.5006 576.22 78.9883 575.615 79.3343C572.954 81.059 569.989 82.2609 566.879 82.8758C562.638 83.8371 558.309 84.3571 553.961 84.4273C549.622 84.5708 545.281 84.2542 541.009 83.4829C537.862 83.0376 534.836 81.9714 532.105 80.3461C531.472 80.0189 530.931 79.5391 530.531 78.9502C530.13 78.3613 529.883 77.6818 529.811 76.9733C529.811 72.5885 540.334 68.7772 553.59 68.4737C566.845 68.1701 577.2 71.3068 577.74 75.4892C577.74 75.759 577.773 75.8603 577.773 75.9614Z" fill="white"/>
<path d="M487.684 50.8671L484.311 58.827C482.186 64.055 467.649 63.0769 451.864 56.6347C436.079 50.1925 424.881 40.7485 427.073 35.5542L430.446 27.5605C430.188 28.4278 430.145 29.3449 430.322 30.2323C430.498 31.1198 430.888 31.9509 431.458 32.6536C433.886 35.9501 436.92 38.7544 440.396 40.9171C449.771 47.041 460.238 51.301 471.224 53.4642C475.213 54.3607 479.338 54.4639 483.367 53.7677C484.267 53.6696 485.131 53.3544 485.883 52.8492C486.634 52.3439 487.253 51.6638 487.684 50.8671Z" fill="#29C76F"/>
<path opacity="0.2" d="M487.684 50.8671L484.311 58.827C482.186 64.055 467.649 63.0769 451.864 56.6347C436.079 50.1925 424.881 40.7485 427.073 35.5542L430.446 27.5605C430.188 28.4278 430.145 29.3449 430.322 30.2323C430.498 31.1198 430.888 31.9509 431.458 32.6536C433.886 35.9501 436.92 38.7544 440.396 40.9171C449.771 47.041 460.238 51.301 471.224 53.4642C475.213 54.3607 479.338 54.4639 483.367 53.7677C484.267 53.6696 485.131 53.3544 485.883 52.8492C486.634 52.3439 487.253 51.6638 487.684 50.8671Z" fill="black"/>
<path d="M487.683 50.8672C487.255 51.6596 486.642 52.337 485.897 52.842C485.151 53.3469 484.294 53.6645 483.4 53.7678C479.37 54.4468 475.248 54.3437 471.257 53.4643C460.271 51.3011 449.804 47.0411 440.429 40.9172C436.953 38.7545 433.92 35.9502 431.491 32.6537C430.929 31.9469 430.544 31.1158 430.368 30.2299C430.192 29.344 430.23 28.4288 430.479 27.5607C432.604 22.3664 447.108 23.3446 462.926 29.753C478.745 36.1615 489.235 45.1671 487.818 50.4625C487.789 50.6021 487.743 50.7378 487.683 50.8672Z" fill="#29C76F"/>
<path opacity="0.2" d="M481.747 47.1571C481.409 47.7751 480.925 48.3011 480.337 48.6891C479.749 49.0771 479.076 49.3155 478.374 49.3832C475.243 49.9328 472.035 49.864 468.93 49.1808C460.404 47.4733 452.278 44.1657 444.983 39.4332C442.287 37.7356 439.931 35.551 438.035 32.991C437.6 32.4428 437.303 31.7986 437.168 31.1121C437.033 30.4255 437.064 29.7167 437.259 29.0448C438.878 24.9973 450.177 25.6719 462.454 30.765C474.732 35.858 482.894 42.7386 481.781 46.8198C481.78 46.933 481.769 47.0459 481.747 47.1571Z" fill="white"/>
<path d="M501.816 106.992L500.906 115.458C500.298 121.057 486.031 124.126 469.099 122.203C452.168 120.281 438.744 114.345 439.452 108.712L440.396 100.178C440.403 101.078 440.623 101.964 441.039 102.761C441.456 103.559 442.056 104.246 442.791 104.766C446.022 107.263 449.695 109.128 453.618 110.263C458.952 111.947 464.445 113.077 470.01 113.636C475.61 114.28 481.261 114.348 486.874 113.839C490.956 113.562 494.949 112.521 498.646 110.769C499.423 110.417 500.112 109.895 500.661 109.241C501.209 108.587 501.604 107.819 501.816 106.992Z" fill="#29C76F"/>
<path opacity="0.2" d="M501.816 106.992L500.906 115.458C500.298 121.057 486.031 124.126 469.099 122.203C452.168 120.281 438.744 114.345 439.452 108.712L440.396 100.178C440.403 101.078 440.623 101.964 441.039 102.761C441.456 103.559 442.056 104.246 442.791 104.766C446.022 107.263 449.695 109.128 453.618 110.263C458.952 111.947 464.445 113.077 470.01 113.636C475.61 114.28 481.261 114.348 486.874 113.839C490.956 113.562 494.949 112.521 498.646 110.769C499.423 110.417 500.112 109.895 500.661 109.241C501.209 108.587 501.604 107.819 501.816 106.992Z" fill="black"/>
<path d="M501.816 106.992C501.611 107.876 501.198 108.698 500.612 109.39C500.025 110.082 499.282 110.625 498.443 110.972C494.749 112.725 490.753 113.756 486.672 114.007C475.504 114.985 464.252 113.77 453.55 110.432C449.616 109.325 445.938 107.457 442.723 104.934C441.987 104.417 441.385 103.73 440.968 102.932C440.551 102.134 440.332 101.247 440.329 100.347C440.936 94.7481 455.169 91.7125 472.135 93.6013C489.1 95.4901 501.681 101.157 501.749 106.621L501.816 106.992Z" fill="#29C76F"/>
<path opacity="0.2" d="M495.07 105.069C494.925 105.751 494.616 106.386 494.169 106.921C493.722 107.456 493.152 107.874 492.507 108.138C489.642 109.511 486.538 110.313 483.366 110.5C479.05 110.951 474.698 110.951 470.381 110.5C466.064 110.06 461.803 109.178 457.665 107.869C454.605 106.998 451.741 105.543 449.233 103.585C448.659 103.19 448.19 102.661 447.867 102.044C447.544 101.427 447.376 100.74 447.378 100.044C447.85 95.6926 458.913 93.2978 472.101 94.7482C485.289 96.1985 495.037 100.617 495.104 104.867C495.098 104.935 495.087 105.003 495.07 105.069Z" fill="white"/>
<path d="M500.501 68.8782L502.322 77.3104C503.503 82.8081 490.989 90.2284 474.327 93.8374C457.665 97.4464 443.162 95.9623 441.948 90.4645L440.126 82.0661C440.418 82.9129 440.907 83.6784 441.552 84.2998C442.197 84.9213 442.98 85.381 443.837 85.6414C447.696 87.0127 451.786 87.6199 455.878 87.429C461.472 87.3331 467.042 86.6776 472.506 85.4726C477.968 84.2915 483.301 82.5743 488.426 80.3459C492.193 78.753 495.625 76.4645 498.545 73.6002C499.218 73.0214 499.746 72.2925 500.085 71.4723C500.425 70.652 500.567 69.7635 500.501 68.8782Z" fill="#29C76F"/>
<path opacity="0.2" d="M500.501 68.8782L502.322 77.3104C503.503 82.8081 490.989 90.2284 474.327 93.8374C457.665 97.4464 443.162 95.9623 441.948 90.4645L440.126 82.0661C440.418 82.9129 440.907 83.6784 441.552 84.2998C442.197 84.9213 442.98 85.381 443.837 85.6414C447.696 87.0127 451.786 87.6199 455.878 87.429C461.472 87.3331 467.042 86.6776 472.506 85.4726C477.968 84.2915 483.301 82.5743 488.426 80.3459C492.193 78.753 495.625 76.4645 498.545 73.6002C499.218 73.0214 499.746 72.2925 500.085 71.4723C500.425 70.652 500.567 69.7635 500.501 68.8782Z" fill="black"/>
<path d="M500.467 68.8783C500.568 69.7721 500.452 70.6771 500.129 71.5167C499.806 72.3563 499.286 73.1056 498.612 73.7014C495.693 76.5658 492.26 78.8543 488.493 80.4472C483.369 82.7103 478.022 84.4288 472.539 85.574C467.091 86.8053 461.53 87.4721 455.945 87.564C451.853 87.7549 447.763 87.1478 443.904 85.7764C443.044 85.5211 442.259 85.063 441.613 84.4408C440.967 83.8187 440.48 83.0506 440.194 82.2011C438.979 76.7034 451.526 69.283 468.188 65.6403C484.85 61.9976 498.544 63.4479 500.433 68.6084C500.451 68.6973 500.462 68.7876 500.467 68.8783Z" fill="#29C76F"/>
<path opacity="0.2" d="M493.485 69.1818C493.546 69.8752 493.446 70.5732 493.195 71.2223C492.944 71.8713 492.547 72.4541 492.035 72.9258C489.741 75.1207 487.051 76.8604 484.109 78.0525C480.133 79.8087 475.984 81.1427 471.73 82.0325C467.499 82.9843 463.182 83.5041 458.846 83.584C455.673 83.7057 452.505 83.2368 449.503 82.2012C448.835 81.9932 448.224 81.6317 447.72 81.1456C447.217 80.6595 446.834 80.0622 446.602 79.4016C445.658 75.1181 455.406 69.283 468.357 66.551C481.309 63.819 491.967 64.8645 493.384 68.8445L493.485 69.1818Z" fill="white"/>
<path d="M421.879 49.6528L421.002 58.2199C420.429 63.8189 406.229 66.9894 389.263 65.2692C372.298 63.549 358.908 57.6128 359.548 52.0476L360.392 43.4805C360.41 44.377 360.639 45.2565 361.061 46.0477C361.483 46.8389 362.086 47.5194 362.82 48.0339C366.07 50.5256 369.769 52.3691 373.715 53.4641C379.05 55.1421 384.542 56.2722 390.107 56.837C395.714 57.4006 401.364 57.4006 406.971 56.837C411.05 56.539 415.034 55.4627 418.709 53.6665C419.513 53.2907 420.219 52.7321 420.769 52.0352C421.32 51.3384 421.7 50.5225 421.879 49.6528Z" fill="#29C76F"/>
<path opacity="0.2" d="M421.879 49.6528L421.002 58.2199C420.429 63.8189 406.229 66.9894 389.263 65.2692C372.298 63.549 358.908 57.6128 359.548 52.0476L360.392 43.4805C360.41 44.377 360.639 45.2565 361.061 46.0477C361.483 46.8389 362.086 47.5194 362.82 48.0339C366.07 50.5256 369.769 52.3691 373.715 53.4641C379.05 55.1421 384.542 56.2722 390.107 56.837C395.714 57.4006 401.364 57.4006 406.971 56.837C411.05 56.539 415.034 55.4627 418.709 53.6665C419.513 53.2907 420.219 52.7321 420.769 52.0352C421.32 51.3384 421.7 50.5225 421.879 49.6528Z" fill="black"/>
<path d="M421.879 49.653C421.674 50.5369 421.261 51.3593 420.674 52.0515C420.088 52.7437 419.344 53.286 418.506 53.633C414.834 55.4312 410.847 56.4966 406.768 56.7698C401.163 57.369 395.509 57.369 389.904 56.7698C384.339 56.2043 378.847 55.0742 373.512 53.3969C369.566 52.3019 365.867 50.4583 362.617 47.9665C361.878 47.4487 361.273 46.7629 360.851 45.9654C360.428 45.168 360.202 44.2817 360.189 43.3795C360.762 37.7805 374.962 34.61 391.961 36.3302C408.96 38.0504 421.541 43.683 421.676 49.1471L421.879 49.653Z" fill="#29C76F"/>
<path opacity="0.2" d="M415.133 47.7641C414.98 48.4463 414.668 49.0827 414.222 49.6219C413.777 50.161 413.211 50.5876 412.57 50.8672C409.713 52.2401 406.624 53.0638 403.463 53.2957C394.798 54.1233 386.054 53.2408 377.728 50.6985C374.658 49.8607 371.781 48.4283 369.262 46.4824C368.69 46.0831 368.221 45.5541 367.893 44.9386C367.564 44.323 367.386 43.6385 367.374 42.941C367.812 38.59 378.875 36.1952 392.063 37.4769C405.251 38.7586 415.032 43.1771 415.133 47.3932V47.7641Z" fill="white"/>
<path d="M538.041 56.6685L537.164 65.2018C536.59 70.8008 522.39 73.9713 505.425 72.2849C488.459 70.5985 475.069 64.6284 475.676 59.0294L476.553 50.4624C476.563 51.3652 476.789 52.2524 477.211 53.0503C477.634 53.8482 478.241 54.5336 478.982 55.0495C482.234 57.5285 485.933 59.3605 489.876 60.4461C500.595 63.6974 511.843 64.8428 522.997 63.8189C527.074 63.5298 531.058 62.4652 534.735 60.6822C535.565 60.3233 536.297 59.7721 536.872 59.0742C537.447 58.3763 537.847 57.5517 538.041 56.6685Z" fill="#29C76F"/>
<path opacity="0.2" d="M538.041 56.6685L537.164 65.2018C536.59 70.8008 522.39 73.9713 505.425 72.2849C488.459 70.5985 475.069 64.6284 475.676 59.0294L476.553 50.4624C476.563 51.3652 476.789 52.2524 477.211 53.0503C477.634 53.8482 478.241 54.5336 478.982 55.0495C482.234 57.5285 485.933 59.3605 489.876 60.4461C500.595 63.6974 511.843 64.8428 522.997 63.8189C527.074 63.5298 531.058 62.4652 534.735 60.6822C535.565 60.3233 536.297 59.7721 536.872 59.0742C537.447 58.3763 537.847 57.5517 538.041 56.6685Z" fill="black"/>
<path d="M538.041 56.6346C537.838 57.5236 537.426 58.3515 536.84 59.0495C536.253 59.7476 535.508 60.2957 534.668 60.6484C530.99 62.4314 527.006 63.496 522.93 63.7851C511.775 64.8089 500.528 63.6636 489.808 60.4122C485.865 59.3267 482.167 57.4947 478.914 55.0156C478.173 54.4998 477.566 53.8144 477.144 53.0165C476.721 52.2186 476.496 51.3313 476.486 50.4286C477.059 44.8296 491.259 41.6591 508.258 43.3793C525.257 45.0994 537.838 50.7322 537.973 56.1625L538.041 56.6346Z" fill="#29C76F"/>
<path opacity="0.2" d="M531.295 54.7458C531.144 55.4291 530.833 56.0667 530.387 56.6062C529.942 57.1457 529.374 57.5716 528.732 57.8489C525.882 59.2465 522.79 60.0824 519.625 60.311C510.959 61.094 502.224 60.2125 493.89 57.714C490.819 56.8762 487.943 55.4437 485.424 53.4979C484.852 53.0986 484.383 52.5695 484.054 51.954C483.726 51.3384 483.548 50.6538 483.535 49.9563C483.974 45.6053 495.037 43.2106 508.225 44.4586C521.413 45.7066 531.194 50.1924 531.295 54.4085V54.7458Z" fill="white"/>
<path d="M453.044 19.3981L452.201 27.9653C451.627 33.5642 437.394 36.7347 420.428 35.0146C403.463 33.2944 390.072 27.3919 390.713 21.793L391.59 13.2258C391.594 14.1215 391.813 15.0031 392.23 15.7958C392.647 16.5886 393.249 17.269 393.985 17.7792C397.231 20.2767 400.931 22.1209 404.879 23.2095C415.611 26.4585 426.869 27.6038 438.035 26.5824C442.108 26.2772 446.089 25.2134 449.772 23.4456C450.605 23.0862 451.337 22.5302 451.907 21.8252C452.477 21.1202 452.867 20.2872 453.044 19.3981Z" fill="#29C76F"/>
<path opacity="0.2" d="M453.044 19.3981L452.201 27.9653C451.627 33.5642 437.394 36.7347 420.428 35.0146C403.463 33.2944 390.072 27.3919 390.713 21.793L391.59 13.2258C391.594 14.1215 391.813 15.0031 392.23 15.7958C392.647 16.5886 393.249 17.269 393.985 17.7792C397.231 20.2767 400.931 22.1209 404.879 23.2095C415.611 26.4585 426.869 27.6038 438.035 26.5824C442.108 26.2772 446.089 25.2134 449.772 23.4456C450.605 23.0862 451.337 22.5302 451.907 21.8252C452.477 21.1202 452.867 20.2872 453.044 19.3981Z" fill="black"/>
<path d="M453.044 19.3982C452.85 20.2867 452.441 21.1141 451.853 21.8079C451.265 22.5017 450.516 23.0409 449.671 23.3782C445.997 25.1745 442.013 26.2507 437.934 26.5487C432.326 27.1123 426.677 27.1123 421.069 26.5487C415.493 25.9871 409.989 24.8569 404.643 23.1759C400.71 22.0737 397.024 20.2306 393.783 17.7455C393.038 17.2411 392.428 16.5628 392.005 15.7694C391.582 14.976 391.358 14.0913 391.354 13.1921C391.894 7.59312 406.127 4.4226 423.093 6.10904C440.059 7.79548 452.707 13.462 452.842 18.926C452.93 19.0737 452.998 19.2324 453.044 19.3982Z" fill="#29C76F"/>
<path opacity="0.2" d="M446.298 17.6442C446.159 18.3273 445.856 18.9663 445.415 19.5067C444.974 20.0471 444.41 20.4728 443.769 20.7473C440.904 22.1312 437.802 22.9554 434.628 23.1758C425.965 23.9891 417.226 23.1186 408.893 20.6124C405.843 19.747 402.983 18.3169 400.461 16.3963C399.874 16.0041 399.394 15.4719 399.064 14.8477C398.734 14.2235 398.565 13.527 398.572 12.821C399.011 8.50377 410.04 6.07532 423.228 7.35701C436.416 8.6387 446.197 13.0571 446.332 17.3069C446.336 17.4203 446.324 17.5338 446.298 17.6442Z" fill="white"/>
<path d="M438.845 86.5183L440.666 94.9167C441.88 100.415 429.333 107.835 412.671 111.478C396.009 115.12 381.506 113.602 380.325 108.105L378.47 99.7061C378.763 100.558 379.256 101.327 379.907 101.949C380.558 102.572 381.35 103.028 382.214 103.281C386.065 104.639 390.142 105.246 394.221 105.069C399.818 104.977 405.39 104.31 410.85 103.079C416.316 101.913 421.65 100.196 426.77 97.9523C430.545 96.3762 433.981 94.0857 436.888 91.2065C437.559 90.6329 438.085 89.9099 438.425 89.0955C438.765 88.2812 438.909 87.3984 438.845 86.5183Z" fill="#29C76F"/>
<path opacity="0.2" d="M438.845 86.5183L440.666 94.9167C441.88 100.415 429.333 107.835 412.671 111.478C396.009 115.12 381.506 113.602 380.325 108.105L378.47 99.7061C378.763 100.558 379.256 101.327 379.907 101.949C380.558 102.572 381.35 103.028 382.214 103.281C386.065 104.639 390.142 105.246 394.221 105.069C399.818 104.977 405.39 104.31 410.85 103.079C416.316 101.913 421.65 100.196 426.77 97.9523C430.545 96.3762 433.981 94.0857 436.888 91.2065C437.559 90.6329 438.085 89.9099 438.425 89.0955C438.765 88.2812 438.909 87.3984 438.845 86.5183Z" fill="black"/>
<path d="M438.845 86.5186C438.939 87.415 438.816 88.3208 438.488 89.1601C438.159 89.9994 437.634 90.7476 436.956 91.3418C434.049 94.2209 430.613 96.5114 426.837 98.0875C421.718 100.331 416.384 102.049 410.917 103.214C405.457 104.446 399.885 105.113 394.289 105.204C390.199 105.361 386.116 104.755 382.248 103.417C381.386 103.155 380.599 102.691 379.954 102.064C379.308 101.436 378.823 100.662 378.538 99.8076C377.357 94.3098 389.871 86.8896 406.566 83.2469C423.262 79.6042 436.922 81.0882 438.777 86.2149C438.807 86.3144 438.829 86.4159 438.845 86.5186Z" fill="#29C76F"/>
<path opacity="0.2" d="M431.761 86.7883C431.843 87.4834 431.754 88.188 431.501 88.8407C431.249 89.4934 430.84 90.0741 430.311 90.5322C428.025 92.7464 425.334 94.4987 422.384 95.6928C418.415 97.4335 414.278 98.767 410.04 99.6727C405.798 100.629 401.469 101.137 397.122 101.19C393.947 101.346 390.772 100.876 387.779 99.8076C387.11 99.6103 386.498 99.2566 385.994 98.7756C385.489 98.2946 385.107 97.7003 384.878 97.0419C383.967 92.7583 393.681 86.9232 406.633 84.1575C419.585 81.3917 430.243 82.4711 431.66 86.4848C431.723 86.5734 431.759 86.6792 431.761 86.7883Z" fill="white"/>
<path d="M174.849 40.7148L175.052 49.3157C175.052 54.9484 161.56 59.8391 144.426 60.2438C127.292 60.6485 113.429 56.3987 113.294 50.766L113.092 42.1652C113.213 43.0586 113.545 43.9103 114.062 44.6494C114.578 45.3886 115.263 45.9938 116.06 46.415C119.586 48.4851 123.481 49.8485 127.528 50.4287C138.568 52.3544 149.88 52.0907 160.818 49.6529C164.835 48.8847 168.662 47.338 172.084 45.0996C172.864 44.6459 173.523 44.0101 174.005 43.2467C174.486 42.4832 174.776 41.6145 174.849 40.7148Z" fill="#29C76F"/>
<path opacity="0.2" d="M174.849 40.7148L175.052 49.3157C175.052 54.9484 161.56 59.8391 144.426 60.2438C127.292 60.6485 113.429 56.3987 113.294 50.766L113.092 42.1652C113.213 43.0586 113.545 43.9103 114.062 44.6494C114.578 45.3886 115.263 45.9938 116.06 46.415C119.586 48.4851 123.481 49.8485 127.528 50.4287C138.568 52.3544 149.88 52.0907 160.818 49.6529C164.835 48.8847 168.662 47.338 172.084 45.0996C172.864 44.6459 173.523 44.0101 174.005 43.2467C174.486 42.4832 174.776 41.6145 174.849 40.7148Z" fill="black"/>
<path d="M174.849 40.7149C174.776 41.6146 174.486 42.4832 174.005 43.2467C173.523 44.0102 172.864 44.6459 172.084 45.0997C168.651 47.3184 164.828 48.8636 160.818 49.653C149.874 52.0454 138.572 52.3088 127.528 50.4288C123.485 49.8329 119.593 48.4706 116.06 46.415C115.266 45.9895 114.584 45.3831 114.068 44.6447C113.553 43.9064 113.218 43.0569 113.092 42.1652C113.092 36.5325 126.584 31.6419 143.751 31.2371C160.919 30.8324 174.107 34.8798 174.816 40.2764C174.842 40.421 174.854 40.5679 174.849 40.7149Z" fill="#29C76F"/>
<path opacity="0.2" d="M167.935 39.6691C167.872 40.3631 167.643 41.0317 167.267 41.6187C166.891 42.2056 166.38 42.6938 165.777 43.042C163.106 44.7133 160.141 45.8582 157.041 46.4149C152.811 47.3763 148.493 47.8962 144.156 47.9664C139.807 48.0916 135.456 47.7752 131.171 47.022C128.035 46.5337 125.016 45.4702 122.266 43.8852C121.638 43.5532 121.1 43.0722 120.7 42.4842C120.3 41.8962 120.05 41.2192 119.973 40.5124C119.973 36.1614 130.53 32.35 143.785 32.0464C157.041 31.7429 167.395 34.8797 167.901 39.0621C167.967 39.2577 167.979 39.4674 167.935 39.6691Z" fill="white"/>
<path d="M61.791 57.7141L61.9934 66.3149C61.9934 71.9476 48.5019 76.8383 31.334 77.2431C14.1661 77.6478 0.337279 73.3979 0.202364 67.7652L0 59.1644C0.123375 60.0527 0.457066 60.8987 0.973324 61.632C1.48958 62.3653 2.1735 62.9648 2.96814 63.3805C6.51003 65.4481 10.4135 66.8218 14.4696 67.428C25.5134 69.3072 36.8156 69.0438 47.7599 66.6522C51.7725 65.8533 55.5959 64.2965 59.0253 62.0651C59.7975 61.6103 60.4509 60.9787 60.9317 60.2224C61.4124 59.466 61.707 58.6064 61.791 57.7141Z" fill="#29C76F"/>
<path opacity="0.2" d="M61.791 57.7141L61.9934 66.3149C61.9934 71.9476 48.5019 76.8383 31.334 77.2431C14.1661 77.6478 0.337279 73.3979 0.202364 67.7652L0 59.1644C0.123375 60.0527 0.457066 60.8987 0.973324 61.632C1.48958 62.3653 2.1735 62.9648 2.96814 63.3805C6.51003 65.4481 10.4135 66.8218 14.4696 67.428C25.5134 69.3072 36.8156 69.0438 47.7599 66.6522C51.7725 65.8533 55.5959 64.2965 59.0253 62.0651C59.7975 61.6103 60.4509 60.9787 60.9317 60.2224C61.4124 59.466 61.707 58.6064 61.791 57.7141Z" fill="black"/>
<path d="M61.791 57.7139C61.707 58.6062 61.4124 59.4658 60.9317 60.2222C60.4509 60.9785 59.7975 61.6101 59.0253 62.065C55.5959 64.2963 51.7725 65.8531 47.7599 66.652C42.2989 67.877 36.7275 68.5437 31.1316 68.642C25.5511 68.7898 19.9698 68.3831 14.4696 67.4278C10.4135 66.8216 6.51003 65.4479 2.96814 63.3803C2.16926 62.9614 1.48274 62.3567 0.966222 61.6171C0.449705 60.8776 0.118283 60.0248 0 59.1305C0 53.5315 13.4915 48.6072 30.6594 48.2362C47.8273 47.8652 61.0153 51.8789 61.7236 57.2755C61.7649 57.4181 61.7876 57.5655 61.791 57.7139Z" fill="#29C76F"/>
<path opacity="0.2" d="M54.8433 56.6684C54.7836 57.3592 54.5596 58.0258 54.1899 58.6125C53.8203 59.1992 53.3158 59.6891 52.7184 60.0413C50.0556 61.7851 47.0759 62.9883 43.9489 63.5827C39.7194 64.5442 35.4015 65.0641 31.0646 65.1342C26.7261 65.2777 22.3845 64.9612 18.1127 64.1898C14.9572 63.7377 11.9207 62.672 9.17463 61.0531C8.54583 60.7211 8.00805 60.2401 7.60821 59.6521C7.20838 59.0641 6.95869 58.387 6.8811 57.6802C6.8811 53.2955 17.4382 49.5179 30.6936 49.1806C43.949 48.8433 54.3037 52.0138 54.8096 56.2299C54.8518 56.372 54.8633 56.5215 54.8433 56.6684Z" fill="white"/>
<path d="M144.224 50.496L143.347 59.0632C142.807 64.6621 128.574 67.8326 111.608 66.1125C94.6429 64.3923 81.2526 58.4898 81.8934 52.8909L82.7366 44.3237C82.7548 45.2202 82.9841 46.0998 83.4061 46.891C83.8281 47.6821 84.4307 48.3627 85.1651 48.8771C88.4193 51.3618 92.1165 53.2046 96.0595 54.3074C101.395 55.9853 106.887 57.1155 112.452 57.6803C118.059 58.2438 123.709 58.2438 129.316 57.6803C133.396 57.3872 137.381 56.3107 141.054 54.5098C141.863 54.1407 142.573 53.5841 143.124 52.8861C143.675 52.1881 144.052 51.3688 144.224 50.496Z" fill="#29C76F"/>
<path opacity="0.2" d="M144.224 50.496L143.347 59.0632C142.807 64.6621 128.574 67.8326 111.608 66.1125C94.6429 64.3923 81.2526 58.4898 81.8934 52.8909L82.7366 44.3237C82.7548 45.2202 82.9841 46.0998 83.4061 46.891C83.8281 47.6821 84.4307 48.3627 85.1651 48.8771C88.4193 51.3618 92.1165 53.2046 96.0595 54.3074C101.395 55.9853 106.887 57.1155 112.452 57.6803C118.059 58.2438 123.709 58.2438 129.316 57.6803C133.396 57.3872 137.381 56.3107 141.054 54.5098C141.863 54.1407 142.573 53.5841 143.124 52.8861C143.675 52.1881 144.052 51.3688 144.224 50.496Z" fill="black"/>
<path d="M144.224 50.496C144.027 51.3833 143.617 52.2094 143.03 52.9028C142.442 53.5963 141.694 54.1363 140.851 54.4761C137.183 56.2832 133.194 57.3491 129.114 57.6128C123.508 58.1983 117.856 58.1983 112.249 57.6128C106.676 57.0349 101.174 55.905 95.8235 54.2399C91.8805 53.1371 88.1834 51.2942 84.9292 48.8096C84.1902 48.2917 83.5848 47.6059 83.1626 46.8085C82.7404 46.011 82.5136 45.1247 82.5007 44.2225C83.0741 38.6573 97.3076 35.4868 114.273 37.1732C131.239 38.8596 143.853 44.526 143.988 49.9901L144.224 50.496Z" fill="#29C76F"/>
<path opacity="0.2" d="M137.478 48.6073C137.325 49.2895 137.013 49.9259 136.567 50.465C136.122 51.0041 135.556 51.4308 134.915 51.7104C132.058 53.0832 128.969 53.907 125.808 54.1389C121.491 54.5786 117.14 54.5786 112.823 54.1389C108.494 53.736 104.221 52.8767 100.073 51.5755C97.0109 50.7327 94.1375 49.3132 91.6073 47.3931C91.0365 46.9848 90.5686 46.449 90.2408 45.8285C89.9129 45.2079 89.7341 44.5196 89.7185 43.8179C90.157 39.4669 101.22 37.0722 114.408 38.3539C127.596 39.6356 137.377 44.054 137.478 48.3038V48.6073Z" fill="white"/>
<path d="M130.395 20.4438L132.25 28.8424C133.431 34.3401 120.918 41.7605 104.256 45.4032C87.5936 49.0459 73.0902 47.4944 71.876 42.0303L70.0547 33.6318C70.3396 34.4861 70.8251 35.2598 71.4706 35.8877C72.1162 36.5157 72.9029 36.9796 73.7648 37.2408C77.6312 38.5827 81.7174 39.1779 85.8059 38.9946C91.3889 38.8985 96.9482 38.2432 102.401 37.0384C107.87 35.8838 113.205 34.1657 118.32 31.9117C122.096 30.3356 125.532 28.0451 128.439 25.166C129.119 24.5924 129.651 23.8643 129.991 23.0428C130.332 22.2212 130.47 21.33 130.395 20.4438Z" fill="#29C76F"/>
<path opacity="0.2" d="M130.395 20.4438L132.25 28.8424C133.431 34.3401 120.918 41.7605 104.256 45.4032C87.5936 49.0459 73.0902 47.4944 71.876 42.0303L70.0547 33.6318C70.3396 34.4861 70.8251 35.2598 71.4706 35.8877C72.1162 36.5157 72.9029 36.9796 73.7648 37.2408C77.6312 38.5827 81.7174 39.1779 85.8059 38.9946C91.3889 38.8985 96.9482 38.2432 102.401 37.0384C107.87 35.8838 113.205 34.1657 118.32 31.9117C122.096 30.3356 125.532 28.0451 128.439 25.166C129.119 24.5924 129.651 23.8643 129.991 23.0428C130.332 22.2212 130.47 21.33 130.395 20.4438Z" fill="black"/>
<path d="M130.395 20.41C130.495 21.3069 130.375 22.2145 130.046 23.0548C129.717 23.895 129.189 24.6426 128.506 25.2332C125.599 28.1123 122.164 30.4029 118.388 31.979C108.112 36.4292 97.0686 38.835 85.8733 39.062C81.7815 39.2564 77.6911 38.6491 73.8322 37.2744C72.97 37.0242 72.1817 36.568 71.5353 35.9451C70.8889 35.3222 70.4039 34.5514 70.122 33.6992C68.9077 28.2014 81.4548 20.7811 98.1168 17.1384C114.779 13.4956 128.473 14.946 130.362 20.1065L130.395 20.41Z" fill="#29C76F"/>
<path opacity="0.2" d="M123.413 20.7136C123.475 21.4101 123.373 22.1114 123.115 22.7614C122.858 23.4114 122.451 23.9922 121.929 24.4574C119.649 26.6527 116.97 28.3927 114.037 29.5842C110.061 31.3404 105.913 32.6744 101.658 33.5642C97.4268 34.5135 93.1101 35.0333 88.774 35.1157C85.5891 35.2545 82.4068 34.7852 79.3975 33.7328C78.7276 33.5353 78.1161 33.1769 77.6164 32.689C77.1167 32.201 76.744 31.5984 76.5305 30.9334C75.5861 26.6836 85.3337 20.8148 98.2856 18.0827C111.237 15.3507 121.896 16.3963 123.312 20.3763L123.413 20.7136Z" fill="white"/>
<path d="M192.202 25.5989L192 34.1998C192 39.8325 205.492 44.7231 222.626 45.1278C239.76 45.5326 253.622 41.2828 253.757 35.6501L253.96 27.0492C253.839 27.9426 253.506 28.7943 252.99 29.5334C252.474 30.2726 251.789 30.8779 250.992 31.299C247.466 33.3692 243.571 34.7325 239.524 35.3128C228.483 37.2384 217.172 36.9748 206.234 34.537C202.217 33.7688 198.39 32.222 194.968 29.9837C194.188 29.5299 193.529 28.8942 193.047 28.1307C192.566 27.3672 192.276 26.4986 192.202 25.5989Z" fill="#29C76F"/>
<path opacity="0.2" d="M192.202 25.5989L192 34.1998C192 39.8325 205.492 44.7231 222.626 45.1278C239.76 45.5326 253.622 41.2828 253.757 35.6501L253.96 27.0492C253.839 27.9426 253.506 28.7943 252.99 29.5334C252.474 30.2726 251.789 30.8779 250.992 31.299C247.466 33.3692 243.571 34.7325 239.524 35.3128C228.483 37.2384 217.172 36.9748 206.234 34.537C202.217 33.7688 198.39 32.222 194.968 29.9837C194.188 29.5299 193.529 28.8942 193.047 28.1307C192.566 27.3672 192.276 26.4986 192.202 25.5989Z" fill="black"/>
<path d="M192.202 25.5989C192.276 26.4986 192.566 27.3673 193.047 28.1307C193.529 28.8942 194.188 29.5299 194.968 29.9837C198.4 32.2024 202.224 33.7476 206.234 34.537C217.178 36.9294 228.48 37.1928 239.524 35.3128C243.567 34.7169 247.459 33.3546 250.992 31.2991C251.785 30.8736 252.468 30.2671 252.983 29.5288C253.499 28.7904 253.833 27.9409 253.96 27.0492C253.96 21.4165 240.468 16.5259 223.3 16.1212C206.132 15.7164 192.944 19.7638 192.236 25.1604C192.209 25.305 192.198 25.452 192.202 25.5989Z" fill="#29C76F"/>
<path opacity="0.2" d="M199.117 24.5532C199.18 25.2472 199.409 25.9158 199.785 26.5027C200.161 27.0897 200.672 27.5778 201.275 27.9261C203.945 29.5973 206.911 30.7422 210.011 31.2989C214.241 32.2603 218.558 32.7803 222.895 32.8504C227.245 32.9756 231.595 32.6592 235.881 31.906C239.017 31.4177 242.036 30.3543 244.785 28.7693C245.414 28.4373 245.952 27.9563 246.352 27.3683C246.752 26.7803 247.001 26.1032 247.079 25.3964C247.079 21.0454 236.522 17.234 223.266 16.9305C210.011 16.6269 199.656 19.7637 199.15 23.9461C199.085 24.1417 199.073 24.3515 199.117 24.5532Z" fill="white"/>
<path d="M305.261 42.5981L305.058 51.1989C305.058 56.8316 318.55 61.7224 335.718 62.1271C352.886 62.5318 366.714 58.2819 366.849 52.6492L367.052 44.0485C366.928 44.9367 366.595 45.7827 366.078 46.516C365.562 47.2494 364.878 47.8488 364.084 48.2645C360.542 50.3321 356.638 51.7058 352.582 52.312C341.538 54.1912 330.236 53.9278 319.292 51.5362C315.279 50.7373 311.456 49.1805 308.027 46.9492C307.254 46.4943 306.601 45.8628 306.12 45.1064C305.639 44.35 305.345 43.4904 305.261 42.5981Z" fill="#29C76F"/>
<path opacity="0.2" d="M305.261 42.5981L305.058 51.1989C305.058 56.8316 318.55 61.7224 335.718 62.1271C352.886 62.5318 366.714 58.2819 366.849 52.6492L367.052 44.0485C366.928 44.9367 366.595 45.7827 366.078 46.516C365.562 47.2494 364.878 47.8488 364.084 48.2645C360.542 50.3321 356.638 51.7058 352.582 52.312C341.538 54.1912 330.236 53.9278 319.292 51.5362C315.279 50.7373 311.456 49.1805 308.027 46.9492C307.254 46.4943 306.601 45.8628 306.12 45.1064C305.639 44.35 305.345 43.4904 305.261 42.5981Z" fill="black"/>
<path d="M305.261 42.598C305.345 43.4903 305.639 44.3499 306.12 45.1062C306.601 45.8626 307.254 46.4942 308.027 46.949C311.456 49.1803 315.279 50.7371 319.292 51.5361C324.753 52.761 330.324 53.4278 335.92 53.526C341.501 53.6738 347.082 53.2672 352.582 52.3119C356.638 51.7056 360.542 50.3319 364.084 48.2644C364.883 47.8454 365.569 47.2407 366.086 46.5012C366.602 45.7616 366.933 44.9088 367.052 44.0145C367.052 38.4156 353.56 33.4912 336.392 33.1202C319.224 32.7492 306.036 36.7629 305.328 42.1595C305.287 42.3021 305.264 42.4495 305.261 42.598Z" fill="#29C76F"/>
<path opacity="0.2" d="M312.208 41.5524C312.268 42.2433 312.492 42.9098 312.862 43.4965C313.231 44.0832 313.736 44.5731 314.333 44.9253C316.996 46.6691 319.976 47.8724 323.103 48.4668C327.332 49.4282 331.65 49.9481 335.987 50.0183C340.326 50.1618 344.667 49.8452 348.939 49.0739C352.095 48.6217 355.131 47.5561 357.877 45.9371C358.506 45.6051 359.044 45.1241 359.444 44.5361C359.843 43.9481 360.093 43.2711 360.171 42.5642C360.171 38.1795 349.614 34.4019 336.358 34.0646C323.103 33.7274 312.748 36.8978 312.242 41.1139C312.2 41.256 312.188 41.4055 312.208 41.5524Z" fill="white"/>
<path d="M222.828 35.3801L223.705 43.9472C224.244 49.5462 238.478 52.7167 255.443 50.9965C272.409 49.2763 285.799 43.3739 285.158 37.7749L284.315 29.2078C284.297 30.1043 284.068 30.9838 283.646 31.775C283.224 32.5662 282.621 33.2467 281.887 33.7612C278.632 36.2458 274.935 38.0887 270.992 39.1914C265.657 40.8694 260.165 41.9995 254.6 42.5643C248.993 43.1279 243.343 43.1279 237.736 42.5643C233.656 42.2712 229.671 41.1948 225.998 39.3938C225.189 39.0247 224.479 38.4681 223.928 37.7702C223.376 37.0722 222.999 36.2528 222.828 35.3801Z" fill="#29C76F"/>
<path opacity="0.2" d="M222.828 35.3801L223.705 43.9472C224.244 49.5462 238.478 52.7167 255.443 50.9965C272.409 49.2763 285.799 43.3739 285.158 37.7749L284.315 29.2078C284.297 30.1043 284.068 30.9838 283.646 31.775C283.224 32.5662 282.621 33.2467 281.887 33.7612C278.632 36.2458 274.935 38.0887 270.992 39.1914C265.657 40.8694 260.165 41.9995 254.6 42.5643C248.993 43.1279 243.343 43.1279 237.736 42.5643C233.656 42.2712 229.671 41.1948 225.998 39.3938C225.189 39.0247 224.479 38.4681 223.928 37.7702C223.376 37.0722 222.999 36.2528 222.828 35.3801Z" fill="black"/>
<path d="M222.828 35.38C223.024 36.2674 223.434 37.0935 224.022 37.7869C224.61 38.4803 225.357 39.0203 226.2 39.3601C229.869 41.1672 233.857 42.2331 237.938 42.4968C243.544 43.0823 249.196 43.0823 254.802 42.4968C260.376 41.9189 265.878 40.7891 271.228 39.124C275.171 38.0212 278.868 36.1783 282.123 33.6936C282.862 33.1758 283.467 32.49 283.889 31.6925C284.311 30.895 284.538 30.0088 284.551 29.1065C283.978 23.5413 269.744 20.3708 252.779 22.0572C235.813 23.7437 223.199 29.4101 223.064 34.8741L222.828 35.38Z" fill="#29C76F"/>
<path opacity="0.2" d="M229.573 33.4914C229.727 34.1736 230.039 34.81 230.484 35.3491C230.93 35.8882 231.496 36.3149 232.137 36.5944C234.993 37.9673 238.083 38.7911 241.243 39.0229C245.561 39.4626 249.912 39.4626 254.229 39.0229C258.557 38.62 262.831 37.7608 266.979 36.4595C270.041 35.6168 272.914 34.1973 275.444 32.2772C276.015 31.8688 276.483 31.3331 276.811 30.7125C277.139 30.0919 277.318 29.4036 277.333 28.7019C276.895 24.3509 265.832 21.9562 252.644 23.2379C239.456 24.5196 229.675 28.938 229.573 33.1878V33.4914Z" fill="white"/>
<path d="M236.656 5.32788L234.801 13.7264C233.621 19.2242 246.134 26.6445 262.796 30.2872C279.458 33.9299 293.962 32.3784 295.176 26.9143L296.997 18.5158C296.712 19.3702 296.227 20.1438 295.581 20.7718C294.936 21.3997 294.149 21.8637 293.287 22.1248C289.421 23.4667 285.334 24.0619 281.246 23.8787C275.663 23.7825 270.104 23.1272 264.651 21.9225C259.182 20.7678 253.847 19.0497 248.731 16.7957C244.956 15.2196 241.52 12.9291 238.613 10.05C237.933 9.47646 237.401 8.74838 237.06 7.92681C236.72 7.10523 236.582 6.21401 236.656 5.32788Z" fill="#29C76F"/>
<path opacity="0.2" d="M236.656 5.32788L234.801 13.7264C233.621 19.2242 246.134 26.6445 262.796 30.2872C279.458 33.9299 293.962 32.3784 295.176 26.9143L296.997 18.5158C296.712 19.3702 296.227 20.1438 295.581 20.7718C294.936 21.3997 294.149 21.8637 293.287 22.1248C289.421 23.4667 285.334 24.0619 281.246 23.8787C275.663 23.7825 270.104 23.1272 264.651 21.9225C259.182 20.7678 253.847 19.0497 248.731 16.7957C244.956 15.2196 241.52 12.9291 238.613 10.05C237.933 9.47646 237.401 8.74838 237.06 7.92681C236.72 7.10523 236.582 6.21401 236.656 5.32788Z" fill="black"/>
<path d="M236.657 5.29407C236.557 6.19092 236.677 7.09856 237.006 7.9388C237.335 8.77905 237.863 9.52667 238.545 10.1173C241.452 12.9964 244.888 15.2869 248.664 16.863C258.939 21.3132 269.983 23.719 281.178 23.946C285.27 24.1404 289.361 23.5332 293.22 22.1584C294.082 21.9083 294.87 21.4521 295.516 20.8292C296.163 20.2063 296.648 19.4354 296.93 18.5832C298.144 13.0854 285.597 5.66508 268.935 2.02238C252.273 -1.62032 238.579 -0.169966 236.69 4.99053L236.657 5.29407Z" fill="#29C76F"/>
<path opacity="0.2" d="M243.638 5.59761C243.577 6.29414 243.679 6.9954 243.937 7.64544C244.194 8.29547 244.6 8.87624 245.122 9.34144C247.403 11.5367 250.082 13.2768 253.015 14.4683C256.99 16.2245 261.139 17.5584 265.393 18.4482C269.625 19.3976 273.942 19.9173 278.278 19.9997C281.463 20.1386 284.645 19.6692 287.654 18.6168C288.324 18.4193 288.936 18.0609 289.435 17.573C289.935 17.0851 290.308 16.4824 290.521 15.8174C291.466 11.5676 281.718 5.6988 268.766 2.96677C255.814 0.234744 245.156 1.28031 243.74 5.2603L243.638 5.59761Z" fill="white"/>
<path d="M712.849 88.5989L713.052 97.1998C713.052 102.832 699.56 107.723 682.426 108.128C665.292 108.533 651.429 104.283 651.294 98.6501L651.092 90.0492C651.213 90.9426 651.545 91.7943 652.062 92.5334C652.578 93.2726 653.263 93.8779 654.06 94.299C657.586 96.3692 661.481 97.7325 665.528 98.3128C676.568 100.238 687.88 99.9748 698.818 97.537C702.835 96.7688 706.662 95.222 710.084 92.9837C710.864 92.5299 711.523 91.8942 712.005 91.1307C712.486 90.3672 712.776 89.4986 712.849 88.5989Z" fill="#29C76F"/>
<path opacity="0.2" d="M712.849 88.5989L713.052 97.1998C713.052 102.832 699.56 107.723 682.426 108.128C665.292 108.533 651.429 104.283 651.294 98.6501L651.092 90.0492C651.213 90.9426 651.545 91.7943 652.062 92.5334C652.578 93.2726 653.263 93.8779 654.06 94.299C657.586 96.3692 661.481 97.7325 665.528 98.3128C676.568 100.238 687.88 99.9748 698.818 97.537C702.835 96.7688 706.662 95.222 710.084 92.9837C710.864 92.5299 711.523 91.8942 712.005 91.1307C712.486 90.3672 712.776 89.4986 712.849 88.5989Z" fill="black"/>
<path d="M712.849 88.5989C712.776 89.4986 712.486 90.3673 712.005 91.1307C711.523 91.8942 710.864 92.5299 710.084 92.9837C706.651 95.2024 702.828 96.7476 698.818 97.537C687.874 99.9294 676.572 100.193 665.528 98.3128C661.485 97.7169 657.593 96.3546 654.06 94.2991C653.266 93.8736 652.584 93.2671 652.068 92.5288C651.553 91.7904 651.218 90.9409 651.092 90.0492C651.092 84.4165 664.584 79.5259 681.751 79.1212C698.919 78.7164 712.107 82.7638 712.816 88.1604C712.842 88.305 712.854 88.452 712.849 88.5989Z" fill="#29C76F"/>
<path opacity="0.2" d="M705.935 87.5532C705.872 88.2472 705.643 88.9158 705.267 89.5027C704.891 90.0897 704.38 90.5778 703.777 90.9261C701.106 92.5973 698.141 93.7422 695.041 94.2989C690.811 95.2603 686.493 95.7803 682.156 95.8504C677.807 95.9756 673.456 95.6592 669.171 94.906C666.035 94.4177 663.016 93.3543 660.266 91.7693C659.638 91.4373 659.1 90.9563 658.7 90.3683C658.3 89.7803 658.05 89.1032 657.973 88.3964C657.973 84.0454 668.53 80.234 681.785 79.9305C695.041 79.6269 705.395 82.7637 705.901 86.9461C705.967 87.1417 705.979 87.3515 705.935 87.5532Z" fill="white"/>
<path d="M599.791 105.598L599.993 114.199C599.993 119.832 586.502 124.722 569.334 125.127C552.166 125.532 538.337 121.282 538.202 115.649L538 107.048C538.123 107.937 538.457 108.783 538.973 109.516C539.49 110.249 540.173 110.849 540.968 111.265C544.51 113.332 548.414 114.706 552.47 115.312C563.513 117.191 574.816 116.928 585.76 114.536C589.772 113.737 593.596 112.181 597.025 109.949C597.798 109.494 598.451 108.863 598.932 108.106C599.412 107.35 599.707 106.49 599.791 105.598Z" fill="#29C76F"/>
<path opacity="0.2" d="M599.791 105.598L599.993 114.199C599.993 119.832 586.502 124.722 569.334 125.127C552.166 125.532 538.337 121.282 538.202 115.649L538 107.048C538.123 107.937 538.457 108.783 538.973 109.516C539.49 110.249 540.173 110.849 540.968 111.265C544.51 113.332 548.414 114.706 552.47 115.312C563.513 117.191 574.816 116.928 585.76 114.536C589.772 113.737 593.596 112.181 597.025 109.949C597.798 109.494 598.451 108.863 598.932 108.106C599.412 107.35 599.707 106.49 599.791 105.598Z" fill="black"/>
<path d="M599.791 105.598C599.707 106.49 599.412 107.35 598.932 108.106C598.451 108.863 597.798 109.494 597.025 109.949C593.596 112.18 589.772 113.737 585.76 114.536C580.299 115.761 574.728 116.428 569.132 116.526C563.551 116.674 557.97 116.267 552.47 115.312C548.414 114.706 544.51 113.332 540.968 111.264C540.169 110.845 539.483 110.241 538.966 109.501C538.45 108.762 538.118 107.909 538 107.015C538 101.416 551.491 96.4912 568.659 96.1202C585.827 95.7492 599.015 99.7629 599.724 105.159C599.765 105.302 599.788 105.45 599.791 105.598Z" fill="#29C76F"/>
<path opacity="0.2" d="M592.843 104.552C592.784 105.243 592.56 105.91 592.19 106.496C591.82 107.083 591.316 107.573 590.718 107.925C588.056 109.669 585.076 110.872 581.949 111.467C577.719 112.428 573.402 112.948 569.065 113.018C564.726 113.162 560.385 112.845 556.113 112.074C552.957 111.622 549.921 110.556 547.175 108.937C546.546 108.605 546.008 108.124 545.608 107.536C545.208 106.948 544.959 106.271 544.881 105.564C544.881 101.18 555.438 97.4019 568.694 97.0646C581.949 96.7274 592.304 99.8978 592.81 104.114C592.852 104.256 592.863 104.406 592.843 104.552Z" fill="white"/>
<path d="M682.224 98.3801L681.347 106.947C680.807 112.546 666.574 115.717 649.608 113.996C632.643 112.276 619.253 106.374 619.893 100.775L620.737 92.2078C620.755 93.1043 620.984 93.9838 621.406 94.775C621.828 95.5662 622.431 96.2467 623.165 96.7612C626.419 99.2458 630.117 101.089 634.06 102.191C639.395 103.869 644.887 104.999 650.452 105.564C656.059 106.128 661.709 106.128 667.316 105.564C671.396 105.271 675.381 104.195 679.054 102.394C679.863 102.025 680.573 101.468 681.124 100.77C681.675 100.072 682.052 99.2528 682.224 98.3801Z" fill="#29C76F"/>
<path opacity="0.2" d="M682.224 98.3801L681.347 106.947C680.807 112.546 666.574 115.717 649.608 113.996C632.643 112.276 619.253 106.374 619.893 100.775L620.737 92.2078C620.755 93.1043 620.984 93.9838 621.406 94.775C621.828 95.5662 622.431 96.2467 623.165 96.7612C626.419 99.2458 630.117 101.089 634.06 102.191C639.395 103.869 644.887 104.999 650.452 105.564C656.059 106.128 661.709 106.128 667.316 105.564C671.396 105.271 675.381 104.195 679.054 102.394C679.863 102.025 680.573 101.468 681.124 100.77C681.675 100.072 682.052 99.2528 682.224 98.3801Z" fill="black"/>
<path d="M682.224 98.38C682.027 99.2674 681.617 100.093 681.03 100.787C680.442 101.48 679.694 102.02 678.851 102.36C675.183 104.167 671.194 105.233 667.114 105.497C661.508 106.082 655.856 106.082 650.249 105.497C644.676 104.919 639.174 103.789 633.824 102.124C629.881 101.021 626.183 99.1783 622.929 96.6936C622.19 96.1758 621.585 95.49 621.163 94.6925C620.74 93.895 620.514 93.0088 620.501 92.1065C621.074 86.5413 635.308 83.3708 652.273 85.0572C669.239 86.7437 681.853 92.4101 681.988 97.8741L682.224 98.38Z" fill="#29C76F"/>
<path opacity="0.2" d="M675.478 96.4914C675.325 97.1736 675.013 97.81 674.567 98.3491C674.122 98.8882 673.556 99.3149 672.915 99.5944C670.058 100.967 666.969 101.791 663.808 102.023C659.491 102.463 655.14 102.463 650.823 102.023C646.494 101.62 642.221 100.761 638.073 99.4595C635.011 98.6168 632.137 97.1973 629.607 95.2772C629.036 94.8688 628.569 94.3331 628.241 93.7125C627.913 93.0919 627.734 92.4036 627.719 91.7019C628.157 87.3509 639.22 84.9562 652.408 86.2379C665.596 87.5196 675.377 91.938 675.478 96.1878V96.4914Z" fill="white"/>
<path d="M668.395 68.3279L670.25 76.7264C671.431 82.2242 658.918 89.6445 642.256 93.2872C625.594 96.9299 611.09 95.3784 609.876 89.9143L608.055 81.5158C608.34 82.3702 608.825 83.1438 609.471 83.7718C610.116 84.3997 610.903 84.8637 611.765 85.1248C615.631 86.4667 619.717 87.0619 623.806 86.8787C629.389 86.7825 634.948 86.1272 640.401 84.9225C645.87 83.7678 651.205 82.0497 656.32 79.7957C660.096 78.2196 663.532 75.9291 666.439 73.05C667.119 72.4765 667.651 71.7484 667.991 70.9268C668.332 70.1052 668.47 69.214 668.395 68.3279Z" fill="#29C76F"/>
<path opacity="0.2" d="M668.395 68.3279L670.25 76.7264C671.431 82.2242 658.918 89.6445 642.256 93.2872C625.594 96.9299 611.09 95.3784 609.876 89.9143L608.055 81.5158C608.34 82.3702 608.825 83.1438 609.471 83.7718C610.116 84.3997 610.903 84.8637 611.765 85.1248C615.631 86.4667 619.717 87.0619 623.806 86.8787C629.389 86.7825 634.948 86.1272 640.401 84.9225C645.87 83.7678 651.205 82.0497 656.32 79.7957C660.096 78.2196 663.532 75.9291 666.439 73.05C667.119 72.4765 667.651 71.7484 667.991 70.9268C668.332 70.1052 668.47 69.214 668.395 68.3279Z" fill="black"/>
<path d="M668.395 68.2941C668.495 69.1909 668.375 70.0986 668.046 70.9388C667.717 71.779 667.189 72.5267 666.506 73.1173C663.599 75.9964 660.164 78.2869 656.388 79.863C646.112 84.3132 635.069 86.719 623.873 86.946C619.781 87.1404 615.691 86.5332 611.832 85.1584C610.97 84.9083 610.182 84.4521 609.535 83.8292C608.889 83.2063 608.404 82.4354 608.122 81.5832C606.908 76.0854 619.455 68.6651 636.117 65.0224C652.779 61.3797 666.473 62.83 668.362 67.9905L668.395 68.2941Z" fill="#29C76F"/>
<path opacity="0.2" d="M661.413 68.5976C661.475 69.2941 661.373 69.9954 661.115 70.6454C660.858 71.2955 660.451 71.8762 659.929 72.3414C657.649 74.5367 654.97 76.2768 652.037 77.4683C648.061 79.2245 643.913 80.5584 639.658 81.4482C635.427 82.3976 631.11 82.9173 626.774 82.9997C623.589 83.1386 620.407 82.6692 617.397 81.6168C616.728 81.4193 616.116 81.0609 615.616 80.573C615.117 80.0851 614.744 79.4824 614.531 78.8174C613.586 74.5676 623.334 68.6988 636.286 65.9668C649.237 63.2347 659.896 64.2803 661.312 68.2603L661.413 68.5976Z" fill="white"/>
<path d="M682.202 38.5989L682 47.1998C682 52.8325 695.492 57.7231 712.626 58.1278C729.76 58.5326 743.622 54.2828 743.757 48.6501L743.96 40.0492C743.839 40.9426 743.506 41.7943 742.99 42.5334C742.474 43.2726 741.789 43.8779 740.992 44.299C737.466 46.3692 733.571 47.7325 729.524 48.3128C718.483 50.2384 707.172 49.9748 696.234 47.537C692.217 46.7688 688.39 45.222 684.968 42.9837C684.188 42.5299 683.529 41.8942 683.047 41.1307C682.566 40.3672 682.276 39.4986 682.202 38.5989Z" fill="#29C76F"/>
<path opacity="0.2" d="M682.202 38.5989L682 47.1998C682 52.8325 695.492 57.7231 712.626 58.1278C729.76 58.5326 743.622 54.2828 743.757 48.6501L743.96 40.0492C743.839 40.9426 743.506 41.7943 742.99 42.5334C742.474 43.2726 741.789 43.8779 740.992 44.299C737.466 46.3692 733.571 47.7325 729.524 48.3128C718.483 50.2384 707.172 49.9748 696.234 47.537C692.217 46.7688 688.39 45.222 684.968 42.9837C684.188 42.5299 683.529 41.8942 683.047 41.1307C682.566 40.3672 682.276 39.4986 682.202 38.5989Z" fill="black"/>
<path d="M682.202 38.5989C682.276 39.4986 682.566 40.3673 683.047 41.1307C683.529 41.8942 684.188 42.5299 684.968 42.9837C688.4 45.2024 692.224 46.7476 696.234 47.537C707.178 49.9294 718.48 50.1928 729.524 48.3128C733.567 47.7169 737.459 46.3546 740.992 44.2991C741.785 43.8736 742.468 43.2671 742.983 42.5288C743.499 41.7904 743.833 40.9409 743.96 40.0492C743.96 34.4165 730.468 29.5259 713.3 29.1212C696.132 28.7164 682.944 32.7638 682.236 38.1604C682.209 38.305 682.198 38.452 682.202 38.5989Z" fill="#29C76F"/>
<path opacity="0.2" d="M689.117 37.5532C689.18 38.2472 689.409 38.9158 689.785 39.5027C690.161 40.0897 690.672 40.5778 691.275 40.9261C693.945 42.5973 696.911 43.7422 700.011 44.2989C704.241 45.2603 708.558 45.7803 712.895 45.8504C717.245 45.9756 721.595 45.6592 725.881 44.906C729.017 44.4177 732.036 43.3543 734.785 41.7693C735.414 41.4373 735.952 40.9563 736.352 40.3683C736.752 39.7803 737.001 39.1032 737.079 38.3964C737.079 34.0454 726.522 30.234 713.266 29.9305C700.011 29.6269 689.656 32.7637 689.15 36.9461C689.085 37.1417 689.073 37.3515 689.117 37.5532Z" fill="white"/>
<path d="M795.261 55.5981L795.058 64.1989C795.058 69.8316 808.55 74.7224 825.718 75.1271C842.886 75.5318 856.714 71.2819 856.849 65.6492L857.052 57.0485C856.928 57.9367 856.595 58.7827 856.078 59.516C855.562 60.2494 854.878 60.8488 854.084 61.2645C850.542 63.3321 846.638 64.7058 842.582 65.312C831.538 67.1912 820.236 66.9278 809.292 64.5362C805.279 63.7373 801.456 62.1805 798.027 59.9492C797.254 59.4943 796.601 58.8628 796.12 58.1064C795.639 57.35 795.345 56.4904 795.261 55.5981Z" fill="#29C76F"/>
<path opacity="0.2" d="M795.261 55.5981L795.058 64.1989C795.058 69.8316 808.55 74.7224 825.718 75.1271C842.886 75.5318 856.714 71.2819 856.849 65.6492L857.052 57.0485C856.928 57.9367 856.595 58.7827 856.078 59.516C855.562 60.2494 854.878 60.8488 854.084 61.2645C850.542 63.3321 846.638 64.7058 842.582 65.312C831.538 67.1912 820.236 66.9278 809.292 64.5362C805.279 63.7373 801.456 62.1805 798.027 59.9492C797.254 59.4943 796.601 58.8628 796.12 58.1064C795.639 57.35 795.345 56.4904 795.261 55.5981Z" fill="black"/>
<path d="M795.261 55.598C795.345 56.4903 795.639 57.3499 796.12 58.1062C796.601 58.8626 797.254 59.4942 798.027 59.949C801.456 62.1803 805.279 63.7371 809.292 64.5361C814.753 65.761 820.324 66.4278 825.92 66.526C831.501 66.6738 837.082 66.2672 842.582 65.3119C846.638 64.7056 850.542 63.3319 854.084 61.2644C854.883 60.8454 855.569 60.2407 856.086 59.5012C856.602 58.7616 856.933 57.9088 857.052 57.0145C857.052 51.4156 843.56 46.4912 826.392 46.1202C809.224 45.7492 796.036 49.7629 795.328 55.1595C795.287 55.3021 795.264 55.4495 795.261 55.598Z" fill="#29C76F"/>
<path opacity="0.2" d="M802.208 54.5524C802.268 55.2433 802.492 55.9098 802.862 56.4965C803.231 57.0832 803.736 57.5731 804.333 57.9253C806.996 59.6691 809.976 60.8724 813.103 61.4668C817.332 62.4282 821.65 62.9481 825.987 63.0183C830.326 63.1618 834.667 62.8452 838.939 62.0739C842.095 61.6217 845.131 60.5561 847.877 58.9371C848.506 58.6051 849.044 58.1241 849.444 57.5361C849.843 56.9481 850.093 56.2711 850.171 55.5642C850.171 51.1795 839.614 47.4019 826.358 47.0646C813.103 46.7274 802.748 49.8978 802.242 54.1139C802.2 54.256 802.188 54.4055 802.208 54.5524Z" fill="white"/>
<path d="M712.828 48.3801L713.705 56.9472C714.244 62.5462 728.478 65.7167 745.443 63.9965C762.409 62.2763 775.799 56.3739 775.158 50.7749L774.315 42.2078C774.297 43.1043 774.068 43.9838 773.646 44.775C773.224 45.5662 772.621 46.2467 771.887 46.7612C768.632 49.2458 764.935 51.0887 760.992 52.1914C755.657 53.8694 750.165 54.9995 744.6 55.5643C738.993 56.1279 733.343 56.1279 727.736 55.5643C723.656 55.2712 719.671 54.1948 715.998 52.3938C715.189 52.0247 714.479 51.4681 713.928 50.7702C713.376 50.0722 712.999 49.2528 712.828 48.3801Z" fill="#29C76F"/>
<path opacity="0.2" d="M712.828 48.3801L713.705 56.9472C714.244 62.5462 728.478 65.7167 745.443 63.9965C762.409 62.2763 775.799 56.3739 775.158 50.7749L774.315 42.2078C774.297 43.1043 774.068 43.9838 773.646 44.775C773.224 45.5662 772.621 46.2467 771.887 46.7612C768.632 49.2458 764.935 51.0887 760.992 52.1914C755.657 53.8694 750.165 54.9995 744.6 55.5643C738.993 56.1279 733.343 56.1279 727.736 55.5643C723.656 55.2712 719.671 54.1948 715.998 52.3938C715.189 52.0247 714.479 51.4681 713.928 50.7702C713.376 50.0722 712.999 49.2528 712.828 48.3801Z" fill="black"/>
<path d="M712.828 48.38C713.024 49.2674 713.434 50.0935 714.022 50.7869C714.61 51.4803 715.357 52.0203 716.2 52.3601C719.869 54.1672 723.857 55.2331 727.938 55.4968C733.544 56.0823 739.196 56.0823 744.802 55.4968C750.376 54.9189 755.878 53.7891 761.228 52.124C765.171 51.0212 768.868 49.1783 772.123 46.6936C772.862 46.1758 773.467 45.49 773.889 44.6925C774.311 43.895 774.538 43.0088 774.551 42.1065C773.978 36.5413 759.744 33.3708 742.779 35.0572C725.813 36.7437 713.199 42.4101 713.064 47.8741L712.828 48.38Z" fill="#29C76F"/>
<path opacity="0.2" d="M719.573 46.4914C719.727 47.1736 720.039 47.81 720.484 48.3491C720.93 48.8882 721.496 49.3149 722.137 49.5944C724.993 50.9673 728.083 51.7911 731.243 52.0229C735.561 52.4626 739.912 52.4626 744.229 52.0229C748.557 51.62 752.831 50.7608 756.979 49.4595C760.041 48.6168 762.914 47.1973 765.444 45.2772C766.015 44.8688 766.483 44.3331 766.811 43.7125C767.139 43.0919 767.318 42.4036 767.333 41.7019C766.895 37.3509 755.832 34.9562 742.644 36.2379C729.456 37.5196 719.675 41.938 719.573 46.1878V46.4914Z" fill="white"/>
<path d="M726.656 18.3279L724.801 26.7264C723.621 32.2242 736.134 39.6445 752.796 43.2872C769.458 46.9299 783.962 45.3784 785.176 39.9143L786.997 31.5158C786.712 32.3702 786.227 33.1438 785.581 33.7718C784.936 34.3997 784.149 34.8637 783.287 35.1248C779.421 36.4667 775.334 37.0619 771.246 36.8787C765.663 36.7825 760.104 36.1272 754.651 34.9225C749.182 33.7678 743.847 32.0497 738.731 29.7957C734.956 28.2196 731.52 25.9291 728.613 23.05C727.933 22.4765 727.401 21.7484 727.06 20.9268C726.72 20.1052 726.582 19.214 726.656 18.3279Z" fill="#29C76F"/>
<path opacity="0.2" d="M726.656 18.3279L724.801 26.7264C723.621 32.2242 736.134 39.6445 752.796 43.2872C769.458 46.9299 783.962 45.3784 785.176 39.9143L786.997 31.5158C786.712 32.3702 786.227 33.1438 785.581 33.7718C784.936 34.3997 784.149 34.8637 783.287 35.1248C779.421 36.4667 775.334 37.0619 771.246 36.8787C765.663 36.7825 760.104 36.1272 754.651 34.9225C749.182 33.7678 743.847 32.0497 738.731 29.7957C734.956 28.2196 731.52 25.9291 728.613 23.05C727.933 22.4765 727.401 21.7484 727.06 20.9268C726.72 20.1052 726.582 19.214 726.656 18.3279Z" fill="black"/>
<path d="M726.657 18.2941C726.557 19.1909 726.677 20.0986 727.006 20.9388C727.335 21.779 727.863 22.5267 728.545 23.1173C731.452 25.9964 734.888 28.2869 738.664 29.863C748.939 34.3132 759.983 36.719 771.178 36.946C775.27 37.1404 779.361 36.5332 783.22 35.1584C784.082 34.9083 784.87 34.4521 785.516 33.8292C786.163 33.2063 786.648 32.4354 786.93 31.5832C788.144 26.0854 775.597 18.6651 758.935 15.0224C742.273 11.3797 728.579 12.83 726.69 17.9905L726.657 18.2941Z" fill="#29C76F"/>
<path opacity="0.2" d="M733.638 18.5976C733.577 19.2941 733.679 19.9954 733.937 20.6454C734.194 21.2955 734.6 21.8762 735.122 22.3414C737.403 24.5367 740.082 26.2768 743.015 27.4683C746.99 29.2245 751.139 30.5584 755.393 31.4482C759.625 32.3976 763.942 32.9173 768.278 32.9997C771.463 33.1386 774.645 32.6692 777.654 31.6168C778.324 31.4193 778.936 31.0609 779.435 30.573C779.935 30.0851 780.308 29.4824 780.521 28.8174C781.466 24.5676 771.718 18.6988 758.766 15.9668C745.814 13.2347 735.156 14.2803 733.74 18.2603L733.638 18.5976Z" fill="white"/>
</svg>
